<svg xmlns="http://www.w3.org/2000/svg" width="274.371" height="276.702" viewBox="0 0 274.371 276.702">
  <path id="Path_64" data-name="Path 64" d="M1369.015,746.72c-1.513-2.857-3.644-4.357-6.03-4.651a10.455,10.455,0,0,0-6.577,1.714,23.35,23.35,0,0,0-6.781,6.6c-5.622,7.948-9.323,20.977-6.6,37.3-.039-12.973,2.58-23.994,6.825-31.407a25.022,25.022,0,0,1,5.768-7.064,14.189,14.189,0,0,1,7.16-3.219,13.287,13.287,0,0,1,6.239.735m-22.332,47.6c2.637-8.649,7.457-15.867,12.114-22.839,4.334-6.49,8.522-12.762,10.548-19.7Q1350.016,766.529,1346.683,794.318Zm-24.018,14.625q-12.543-1.934-27.657,2.47a171.784,171.784,0,0,1,29.4,1.663A89.373,89.373,0,0,1,1344,818.194,45.538,45.538,0,0,0,1322.665,808.943Zm15.435,9.6a95.375,95.375,0,0,0-14.031-3.182,181.542,181.542,0,0,0-35.595-1.423,12.044,12.044,0,0,0,3.167,5.162c7.879,2.247,16.3,1.3,25.051.323C1323.629,818.646,1330.77,817.847,1338.1,818.543Zm-49.837-7.353q19.2-6.927,34.746-4.533a48.14,48.14,0,0,1,10.221,2.734c-11.5-7.073-22.665-8.974-31.07-7.8a23.337,23.337,0,0,0-8.975,2.995,10.445,10.445,0,0,0-4.544,5.048A6.855,6.855,0,0,0,1288.263,811.19Zm75.694,21.889q12.109-11,16.785-22.228a36.245,36.245,0,0,0,.474-27.417c-6.062,6.62-4.345,24.751-8.723,35A74.093,74.093,0,0,1,1363.957,833.079Zm74.351-41.044a101.213,101.213,0,0,0-13.752,23.545c1.269-2,2.576-3.959,3.871-5.9C1432.33,803.839,1436.115,798.172,1438.308,792.035Zm-2.851-.081q-17.765,13.022-18.785,39.439.22-.666.459-1.322Q1423.18,808.105,1435.457,791.954Zm-21.789,38.916q-2.067-22.842,3.685-34.107,6.328-12.395,21.736-10.922c-1.524-3.456-3.844-5.244-6.473-5.569a10.45,10.45,0,0,0-6.577,1.715,23.349,23.349,0,0,0-6.782,6.595C1413.074,797.325,1409.217,812.216,1413.668,830.87Zm23.469-42.846q-12.484-.488-17.734,9.787-4.209,8.243-3.971,23.321Q1419.381,799.136,1437.137,788.024Zm14.626,49.029q-2.248,8.492-11.215,11.344-6.636,2.111-16.995,1.037c10.328,3.293,19.055,2.035,24.6-.914a14.54,14.54,0,0,0,4.61-3.657,6.281,6.281,0,0,0,1.534-3.782A4.826,4.826,0,0,0,1451.763,837.053ZM1434.7,874.976a10.725,10.725,0,0,0,5.05-7.2q-4.943,6.311-14.328,9.3a51.249,51.249,0,0,1-7.312,1.711q1.783-.051,3.426-.185Q1430.113,877.9,1434.7,874.976Zm-26.627,2.408a61.4,61.4,0,0,0,16.654-2.51q9.709-3.087,14.212-9.922c-5.813.872-11.323,3.613-17.027,6.451A94.9,94.9,0,0,1,1408.078,877.384Zm34.229-11.831a16.492,16.492,0,0,1-.177,2.048,12.938,12.938,0,0,1-6.188,9.318q-5.086,3.237-14.22,3.981a102.242,102.242,0,0,1-19.2-.593c14.8,5.856,27.407,4.323,35.153.206a18.642,18.642,0,0,0,5.914-4.7,8.229,8.229,0,0,0,2-4.959C1445.6,868.913,1444.565,867.046,1442.307,865.553Zm-140.334.435a57.418,57.418,0,0,1-10.024-17.364c-.069.261-.132.52-.191.777q-1.625,7.16,2.144,12.525,3.861,5.5,13.4,9.276l.348.136A38.962,38.962,0,0,1,1301.973,865.988Zm9.119,9q-2.46-.771-4.636-1.633-10.182-4.032-14.443-10.1-4.354-6.2-2.5-14.359a27.283,27.283,0,0,1,.76-2.689c-2.521.1-4.222,1.086-5.105,2.627a7.354,7.354,0,0,0-.668,4.727,16.773,16.773,0,0,0,2.487,6.321C1290.823,866.038,1298.835,872.343,1311.092,874.985ZM1294.4,848.552a54.394,54.394,0,0,0,9.309,15.918,35.427,35.427,0,0,0,8.13,6.951,82.892,82.892,0,0,1-8.549-11.416C1300.508,855.8,1297.81,851.723,1294.4,848.552Zm-6.35,45.314q8.765-.068,24.189-6.989a74.786,74.786,0,0,1-15.653,2.166q-11.344.235-19.4-4.2a12.369,12.369,0,0,0,1.267,4.463,7.724,7.724,0,0,0,3.529,3.411A13.591,13.591,0,0,0,1288.049,893.866Zm35.375-8.574c-13.942,13.355-28.795,16.72-38.954,15.082a21.444,21.444,0,0,1-8.194-2.948c-11.355-7.327-4.937-17.352,9.866-16.88a113.271,113.271,0,0,1,11.291,1.135c8.69,1.164,17.779,2.38,27.12-.915-3.448-1.741-2.58-2.126-5.891-2.375-17.537-1.323-28.73-9.42-33.639-17.29a19.057,19.057,0,0,1-2.812-7.216c-.506-3.479.5-7.364,3.8-9.108,5.115-2.7,8.116.024,11.519,3.637a75.912,75.912,0,0,1,7.679,10.317c9.764,14.757,14.043,16.916,28.174,23.017a108.281,108.281,0,0,1,10.277,4.876c-2.752-5.591-7.069-9.765-11.225-13.783-3.238-3.13-6.383-6.17-8.711-9.744-5.076-7.795.766-13.96,8.344-11.378a17.093,17.093,0,0,1,5.9,3.663c6.278,5.752,11.683,17.358,9.538,33.632,6.945,4.792,13.222,12.053,17.852,25.6,4.781-30.6-3.872-57.182-12.131-82.548-.957-2.94-1.909-5.864-2.835-8.778l-.168.432c-11.4-4.453-22.587-3.2-33.279-2-9.09,1.019-17.831,2-26.24-.487l-.282-.083-.21-.21c-4.126-4.13-5.112-8.4-3.74-12.1a12.712,12.712,0,0,1,5.5-6.224,25.637,25.637,0,0,1,9.869-3.311c12.467-1.736,30.654,2.892,47.318,20.065-2.368-7.665-5.22-17.518-7.183-25.4-4.92-19.757-.82-35.618,5.76-44.921a25.648,25.648,0,0,1,7.477-7.245c10.682-6.43,20.5,1.151,14.894,14.735-2.325,5.632-5.813,10.854-9.4,16.222-4.535,6.789-9.229,13.817-11.787,22.131-2.622,8.517-1.467,8.833,1.019,17.44,1.8,6.228,3.847,12.514,5.918,18.876q.966,2.965,1.932,5.954a79.138,79.138,0,0,0,12.576-19.632c3.36-7.868,2.916-22.845,6.566-31.521,3.178-7.549,12.135-9.228,17.843-1.987a18.449,18.449,0,0,1,3.508,9.219,32.723,32.723,0,0,1-.939,11.982c-3.484,13.581-15.25,28.986-38.372,35.64,5.331,16.834,10.1,34.335,10.517,53.311a72.236,72.236,0,0,0,19.36-12.012c-11.579-11.428-14.492-23.814-13.141-32.2a17.244,17.244,0,0,1,2.369-6.58,8.73,8.73,0,0,1,4.365-3.68c4.945-1.711,8.5,1.62,9.151,5.919.717,4.762.065,9.637-.609,14.673-.852,6.361-1.739,12.993.21,19.785a85.552,85.552,0,0,0,6.637-6.849c6.526-7.529,12.4-16.958,15.227-26.564,2.344-7.973.6-6.143-1.5-14.706-4.838-19.658-.746-35.439,5.81-44.709a25.634,25.634,0,0,1,7.477-7.245c9.749-5.869,20.07.639,15.552,13.042-2.29,6.287-6.115,12.014-10.056,17.914-4.115,6.162-8.362,12.52-11.025,19.858a92.229,92.229,0,0,0-2.93,14.879c6.938-.305,12.826-3.233,18.472-6.042,4.038-2.01,7.958-3.961,12.125-4.926,4.517-1.047,9.648.072,9.621,6.357a8.537,8.537,0,0,1-2.031,5.2,16.831,16.831,0,0,1-5.333,4.272c-7.3,3.882-19.627,5.1-33.792-1.944-1.267,6.537-9.892,19.931-15.522,26.426q-.833.961-1.7,1.9c8.483-.561,15.716-4.159,22.66-7.614,4.911-2.444,9.683-4.818,14.717-6.068,5.623-1.4,12.33-.553,12.294,7.6a10.472,10.472,0,0,1-2.5,6.377,20.918,20.918,0,0,1-6.637,5.311c-9.287,4.936-25.059,6.424-43.17-2.859a77.127,77.127,0,0,1-26.07,17.445,119.986,119.986,0,0,1-9.968,47.376l-2.548-1.084a123.538,123.538,0,0,0,7.274-22.943c-7.117-25.449-19.507-30.8-31.989-36.194C1326.959,881.994,1326.811,882.047,1323.424,885.292Zm-44.343-2.054q7.293,3.713,17.459,3.5a69.272,69.272,0,0,0,12.755-1.562,121.914,121.914,0,0,1-12.161-1.21C1290.884,883.131,1284.84,882.322,1279.081,883.238Zm39.753,3.088q-19.963,9.759-30.775,9.844a15.833,15.833,0,0,1-7.094-1.377,9.991,9.991,0,0,1-4.56-4.413,14.226,14.226,0,0,1-1.45-4.763,6.292,6.292,0,0,0-1.028,5.7,8.464,8.464,0,0,0,3.6,4.163,19.151,19.151,0,0,0,7.308,2.613C1293.7,899.527,1306.418,896.857,1318.834,886.326Zm74.72-94.762a1.536,1.536,0,1,1-1.536,1.536A1.536,1.536,0,0,1,1393.554,791.564Zm-3.953,8.154a1.536,1.536,0,1,1-1.536,1.536A1.536,1.536,0,0,1,1389.6,799.718Zm-4.833,16.761a1.536,1.536,0,1,1-1.537,1.536A1.536,1.536,0,0,1,1384.768,816.479Zm-7.094-9.171a1.536,1.536,0,1,1-1.535,1.536A1.536,1.536,0,0,1,1377.674,807.308Zm4.157-15.179a1.536,1.536,0,1,1-1.536,1.536A1.536,1.536,0,0,1,1381.831,792.129Zm9.9,17.983a1.531,1.531,0,0,1,1.252.647,39.1,39.1,0,0,0,2.13-6.1,30.4,30.4,0,0,0,.875-11.132,16.152,16.152,0,0,0-3.03-8.071c-2.192-2.781-5.508-4.1-9.713-3.163a38.508,38.508,0,0,1-.375,29.448q-5.4,12.96-20.155,25.5a60.314,60.314,0,0,0,12.819-6.363,1.536,1.536,0,1,1,.962-1.426,1.527,1.527,0,0,1-.438,1.074,47.741,47.741,0,0,0,15.758-17.336c-.028,0-.056,0-.085,0a1.536,1.536,0,0,1,0-3.072Zm-4.144-25.234a1.535,1.535,0,1,1-1.536,1.535A1.536,1.536,0,0,1,1387.591,784.878Zm-4.9,59.814a1.061,1.061,0,1,1-1.062,1.061A1.062,1.062,0,0,1,1382.689,844.692Zm-2.281,15.156a1.057,1.057,0,0,1,.805.371q-.03-.517-.041-1.026a19.806,19.806,0,0,1,7-16.017c-1.761-1.457-3.487-1.81-4.981-1.294a6.469,6.469,0,0,0-3.171,2.75,14.937,14.937,0,0,0-2.035,5.694,22.79,22.79,0,0,0-.278,3.741,1.062,1.062,0,1,1,.048,1.45c.339,5.562,2.484,12.182,7.363,18.837a42.3,42.3,0,0,1-3.806-12.9,1.062,1.062,0,1,1-.908-1.611Zm4.788-4.427a1.062,1.062,0,1,1-1.061,1.062A1.061,1.061,0,0,1,1385.2,855.421Zm3.7-5.692a1.056,1.056,0,0,1,.7.261,26.78,26.78,0,0,0-.39-4.64,17.581,17.581,0,0,0-5.733,13.8q.142,6.858,4.4,15.646c-.471-5.094.188-10.018.828-14.795.381-2.853.756-5.652.864-8.381a1.062,1.062,0,1,1-.666-1.889Zm-2.439,13.553a1.062,1.062,0,1,1-1.062,1.062A1.061,1.061,0,0,1,1386.462,863.282Zm-56.923-1.739a1.061,1.061,0,1,1-1.062,1.061A1.062,1.062,0,0,1,1329.539,861.543Zm10.232,10.3a1.062,1.062,0,1,1-1.061,1.062A1.062,1.062,0,0,1,1339.771,871.843Zm-2.979-7.7a1.062,1.062,0,1,1-1.322-1.379,12.316,12.316,0,0,0-11.041-3.054c1.938,3.793,5,6.978,8.281,10.178a1.062,1.062,0,1,1,1.319,1.279l.009.008c3.52,3.4,7.151,6.913,9.948,11.307Q1341.655,869.844,1336.792,864.147Zm-7.773-9.855a1.061,1.061,0,1,1-1.061,1.061A1.061,1.061,0,0,1,1329.019,854.292Zm9.214,4.673a1.062,1.062,0,1,1-1.305-1.4c-.171-.167-.342-.331-.514-.489a14.8,14.8,0,0,0-5.083-3.175,6.42,6.42,0,0,0-4.16-.187,4.878,4.878,0,0,0-2.983,3.688q15.916-2.758,21.381,21.308C1344.971,869.95,1341.927,863.268,1338.233,858.965Zm103.706-18.181a1.061,1.061,0,1,1-1.062,1.061A1.061,1.061,0,0,1,1441.939,840.784Zm3.433,6.415a1.062,1.062,0,1,1-1.062,1.061A1.061,1.061,0,0,1,1445.372,847.2Zm5.421-4.563a1.061,1.061,0,1,1-1.061,1.062A1.061,1.061,0,0,1,1450.793,842.636Zm-3.273-5.653a1.062,1.062,0,1,1-1.854.706,1.036,1.036,0,0,1,.021-.21,61.552,61.552,0,0,0-9.1,3.9,1.06,1.06,0,1,1-1.348.67,62.156,62.156,0,0,1-12.339,4.995,64.134,64.134,0,0,0,6.638.446,1.062,1.062,0,1,1,1.671-.009,30.97,30.97,0,0,0,8.644-1.283q7.65-2.433,9.638-9.588C1448.83,836.707,1448.173,836.832,1447.52,836.983Zm-102.194-48.971q4.8-25.066,23.637-38.83a11.26,11.26,0,0,0-5.9-.912,11.916,11.916,0,0,0-5.994,2.723,22.752,22.752,0,0,0-5.217,6.422C1347.75,764.582,1345.237,775.32,1345.326,788.012Z" transform="translate(-366.122 -1383.128) rotate(40)" fill="#faf7f1"/>
</svg>