<svg id="Component_30_2" data-name="Component 30 – 2" xmlns="http://www.w3.org/2000/svg" width="88" height="88" viewBox="0 0 88 88">
  <rect id="Rectangle_5642" data-name="Rectangle 5642" width="88" height="88" fill="#8e6941" opacity="0"/>
  <path id="Path_19866" data-name="Path 19866" d="M240.86,1266.317H240l-.43,2.579h6.789l-3.266,6.359-17.187.085H182.337l-.687-.344-3.266-4.726.687-1.375h3.61v-1.978l5.155-3.437V1221.63h22.258V1254.8h4.125l-.6,2.149,5.414,2.837-1.805-8.079h25.438a23.127,23.127,0,0,1,2.921.473,7.466,7.466,0,0,1,5.071,4.34,8.779,8.779,0,0,1,.6,3.351,5.735,5.735,0,0,1-.43,2.234,4.621,4.621,0,0,1-1.375,1.805,8.317,8.317,0,0,1-4.3,1.977A26.886,26.886,0,0,1,240.86,1266.317Zm-60.07,4.383,2.062,2.922H217.4v-.086h8.078l2.837-2.922H180.791Zm3.609-2.835v1.031h5.5l-.172-.688-.774-3.437Zm23.891-44.431H189.556v36.782l1.461-.687v-23.805h1.718v22.859l1.805-.945v-21.915h1.718V1254.8h1.805v-19.077h1.718V1254.8h1.8v-19.077h1.72V1254.8h1.8v-19.077h1.718V1254.8h1.462Zm-18.133,38.5,1.546,6.962h7.047l-.859-3.438-1.633-6.7Zm21.57-4.726.172-.687H197.548l3.008,12.375h8.336Zm-5.628-41.466a6.863,6.863,0,0,0-2.106,5.029h-1.718a8.585,8.585,0,0,1,2.578-6.231,8.467,8.467,0,0,1,6.274-2.622,8.612,8.612,0,0,1,6.316,2.622,8.513,8.513,0,0,1,2.622,6.231,8.949,8.949,0,0,1-8.938,8.937v-1.719a6.812,6.812,0,0,0,5.07-2.106,7.033,7.033,0,0,0,2.063-5.113,6.942,6.942,0,0,0-2.063-5.029,7.108,7.108,0,0,0-10.1,0Zm-.387,1.5,3.008,1.461-.774,1.547-3.007-1.462Zm3.524,1.031,1.633-.6-1.117-3.179-1.633.6Zm10.055,43.655-6.1-3.178-2.407,10.141h6.961l1.375-6.274Zm-7.047-34.891,1.633-.514-1.032-3.266-1.718.6Zm.774-12.375,1.547.774-1.462,3.094-1.633-.773Zm.258,8.25,3.008,1.462.774-1.633-3.008-1.461Zm.258-3.952.6,1.718,3.18-1.117-.6-1.719Zm22.516,34.547H219.462l2.234,9.968,5.071,3.437v1.978H233.3Zm-16.157,13.75-.343,1.633h5.5v-1.031l-4.555-3.094Zm6.445-27.845a1.132,1.132,0,0,0,.258-.386c.056-.142.115-.271.172-.386l-.343-4.813c-.116-.228-.23-.443-.345-.644s-.258-.443-.429-.731l1.375-1.032q2.578,3.269,2.149,5.329a11.653,11.653,0,0,1-1.289,3.523c-.172.344-.331.674-.473.988a10.276,10.276,0,0,0-.386.989l.171,2.062.387.774c.142.287.3.573.473.859l-.688.516-.687.516q-1.892-2.662-1.462-4.468a10.919,10.919,0,0,1,1.2-3.095Zm15.641,34.118,1.462-2.837H230.72l-2.836,2.837Zm-9.883-34.118a1.514,1.514,0,0,1,.215-.429,1.521,1.521,0,0,0,.215-.431l-.343-4.726c-.116-.228-.23-.443-.345-.644a6.223,6.223,0,0,0-.516-.731l1.375-1.032q2.579,3.269,2.191,5.329a10.88,10.88,0,0,1-1.245,3.523,6.9,6.9,0,0,0-.559.988,3.916,3.916,0,0,0-.3.989l.171,2.062a3.79,3.79,0,0,0,.3.774,4.8,4.8,0,0,0,.56.859l-.774.516-.688.516q-1.89-2.662-1.461-4.468A10.884,10.884,0,0,1,232.095,1239.418ZM235.1,1268.9h2.664l2.75-15.383h-2.664Zm12.633-13.579a5.758,5.758,0,0,0-2.921-1.5,14.943,14.943,0,0,0-2.493-.3l-1.976,11.085a35.363,35.363,0,0,0,3.91-.3,7.263,7.263,0,0,0,4.082-1.676,3.747,3.747,0,0,0,.859-1.247,4.017,4.017,0,0,0,.258-1.5,7.522,7.522,0,0,0-.429-2.622A4.828,4.828,0,0,0,247.735,1255.317Z" transform="translate(-171.05 -1199.696)" fill="#8e6941"/>
</svg>
