<svg id="Component_31_2" data-name="Component 31 – 2" xmlns="http://www.w3.org/2000/svg" width="88" height="88" viewBox="0 0 88 88">
  <rect id="Rectangle_5643" data-name="Rectangle 5643" width="88" height="88" fill="#8e6941" opacity="0"/>
  <path id="Path_19867" data-name="Path 19867" d="M274.509,1253.942a3.913,3.913,0,0,1,1.5,1.934c.142.6.215.932.215.989v22.774h-1.805v-10.914h-6.617a3.329,3.329,0,0,1-1.247,1.976,3.59,3.59,0,0,1-2.277.774,3.419,3.419,0,0,1-2.234-.774,3.845,3.845,0,0,1-1.289-1.976h-6.53v10.914h-1.805v-51.563h.859a23.819,23.819,0,0,1,3.351,1.805q3.095,1.8,3.095,12.117a31.224,31.224,0,0,1-.516,6.187,16.781,16.781,0,0,1-1.289,4.04,25.073,25.073,0,0,1,6.359-.688,27.6,27.6,0,0,1,6.188.6A9.8,9.8,0,0,1,274.509,1253.942Zm-20.28-.171a8.091,8.091,0,0,0,2.363-3.052q1.333-2.448,1.332-8.722t-1.332-8.723a8.084,8.084,0,0,0-2.363-3.051Zm20.195,13.147v-9.109H254.228v9.109h6.53a3.849,3.849,0,0,1,1.289-1.976,3.419,3.419,0,0,1,2.234-.774,3.59,3.59,0,0,1,2.277.774,3.332,3.332,0,0,1,1.247,1.976Zm-3.18-12.676q-2.062-.9-6.961-.9a18.69,18.69,0,0,0-6.875.9,8.324,8.324,0,0,0-2.75,1.676h19.25A7.176,7.176,0,0,0,271.243,1254.242Zm-6.961,15.426a1.676,1.676,0,0,0,1.289-.559,1.9,1.9,0,0,0,.516-1.332,1.8,1.8,0,0,0-.516-1.245,1.767,1.767,0,0,0-2.579,0,1.8,1.8,0,0,0-.515,1.245,1.9,1.9,0,0,0,.515,1.332A1.679,1.679,0,0,0,264.282,1269.668Zm25.782,5.071a13.556,13.556,0,0,0,2.75,3.352l-1.032,1.547q-.086-.084-1.633-1.59a14.4,14.4,0,0,1-2.921-4.941v6.531h-1.891v-6.531a14.418,14.418,0,0,1-2.922,4.941q-1.547,1.5-1.633,1.59l-.516-.774-.516-.773a24.244,24.244,0,0,0,5.587-15.727,27.116,27.116,0,0,0-.9-7.648,21.235,21.235,0,0,0-1.934-4.727,11.1,11.1,0,0,0-1.5-2.148,10.355,10.355,0,0,0-1.074-1.032H264.282v-1.891h44v1.891H292.642a23.208,23.208,0,0,0-3.093,4.168q-2.321,3.568-2.32,11.387a27.164,27.164,0,0,0,.9,7.649A21.225,21.225,0,0,0,290.064,1274.739Zm-3.782-38.93a4.267,4.267,0,0,1-2.878-1.074,4.734,4.734,0,0,1-1.59-2.621h-7.476v-.946a11.923,11.923,0,0,1,11-11.859v-17.445h1.891v17.445a11.926,11.926,0,0,1,11,11.859v.946h-7.478a4.752,4.752,0,0,1-1.589,2.621A4.275,4.275,0,0,1,286.282,1235.809Zm0-14.695a10.093,10.093,0,0,0-10.054,9.195h1.89v-.085a8,8,0,0,1,2.664-5.2,7.916,7.916,0,0,1,5.5-2.106,7.828,7.828,0,0,1,5.5,2.149,8.557,8.557,0,0,1,2.75,5.242h1.805v-.085a10.111,10.111,0,0,0-10.055-9.109Zm0,5.5a4.385,4.385,0,0,1,2.88,1.032,4.585,4.585,0,0,1,1.589,2.663h1.891v-.085a6.122,6.122,0,0,0-2.149-3.867,6.5,6.5,0,0,0-8.421,0,6.184,6.184,0,0,0-2.149,3.953h1.891v-.085a4.531,4.531,0,0,1,1.59-2.578A4.377,4.377,0,0,1,286.282,1226.614Zm-3.782,20.109a25.579,25.579,0,0,1,1.59,2.32,15.559,15.559,0,0,1,1.247,2.579v-4.813H282.5Zm3.782-18.305a2.7,2.7,0,0,0-1.59.516,2.526,2.526,0,0,0-.988,1.375h5.157v-.085a2.558,2.558,0,0,0-.989-1.29A2.708,2.708,0,0,0,286.282,1228.418Zm0,5.5a2.7,2.7,0,0,0,1.59-.516,2.554,2.554,0,0,0,.989-1.288H283.7a2.539,2.539,0,0,0,.988,1.288A2.694,2.694,0,0,0,286.282,1233.918Zm.946,17.7v-.086a16.961,16.961,0,0,1,1.245-2.492,18.333,18.333,0,0,1,1.59-2.234h-2.836Zm33-23.547v51.563h-1.891v-10.914h-6.532a3.329,3.329,0,0,1-1.247,1.976,3.59,3.59,0,0,1-2.277.774,3.419,3.419,0,0,1-2.234-.774,3.845,3.845,0,0,1-1.289-1.976h-6.53v10.914h-1.891v-22.774a9.858,9.858,0,0,1,.258-.989,4.335,4.335,0,0,1,1.461-1.934,10.557,10.557,0,0,1,4.082-1.8,27,27,0,0,1,6.144-.6,26.134,26.134,0,0,1,6.446.688,17.908,17.908,0,0,1-1.332-4.04,28.774,28.774,0,0,1-.558-6.187q0-10.312,3.136-12.117a33.742,33.742,0,0,1,3.309-1.805Zm-1.891,29.734H298.228v9.109h6.53a3.849,3.849,0,0,1,1.289-1.976,3.419,3.419,0,0,1,2.234-.774,3.59,3.59,0,0,1,2.277.774,3.332,3.332,0,0,1,1.247,1.976h6.532Zm-10.055-4.468a19.059,19.059,0,0,0-6.918.9,7.172,7.172,0,0,0-2.707,1.676h19.25a7.183,7.183,0,0,0-2.707-1.676A19.068,19.068,0,0,0,308.282,1253.341Zm0,16.328a1.907,1.907,0,0,0,1.891-1.891,1.725,1.725,0,0,0-.559-1.245,1.82,1.82,0,0,0-1.332-.559,1.682,1.682,0,0,0-1.289.559,1.8,1.8,0,0,0-.515,1.245,1.9,1.9,0,0,0,.515,1.332A1.679,1.679,0,0,0,308.282,1269.668Zm10.055-39.445a8.74,8.74,0,0,0-2.278,3.051q-1.333,2.449-1.331,8.723,0,6.36,1.331,8.766a8.762,8.762,0,0,0,2.278,3.008Z" transform="translate(-242.325 -1201.863)" fill="#8e6941"/>
</svg>
