<svg id="Component_6_6" data-name="Component 6 – 6" xmlns="http://www.w3.org/2000/svg" width="40" height="40" viewBox="0 0 40 40">
  <rect id="Rectangle_26" data-name="Rectangle 26" width="40" height="40" fill="#8e6941" opacity="0"/>
  <path id="Path_69" data-name="Path 69" d="M355.186,903.98h.715v6.8a4.916,4.916,0,0,1-.13,1.092,1.276,1.276,0,0,1-.65.862.483.483,0,0,0-.212.277,1.155,1.155,0,0,0-.082.407v2.93q0,1.2.13,3.093.13,1.855.293,3.613t.325,3.027c.087.847.13,1.282.13,1.3l.033.392H351.8l.032-.392c0-.02.043-.455.13-1.3q.165-1.3.325-3.06t.293-3.613q.13-1.888.13-3.06v-2.93a1.151,1.151,0,0,0-.08-.407.5.5,0,0,0-.212-.277,1.283,1.283,0,0,1-.652-.862,4.916,4.916,0,0,1-.13-1.092v-6.8h.717v6.8a4.57,4.57,0,0,0,.065.782.833.833,0,0,0,.357.587,1.082,1.082,0,0,1,.457.537,1.826,1.826,0,0,1,.163.732v1.922h.748V913.42a1.823,1.823,0,0,1,.162-.732,1.09,1.09,0,0,1,.457-.537.747.747,0,0,0,.358-.57,5.052,5.052,0,0,0,.065-.8Zm-.228,23.08q-.065-.585-.2-1.953-.13-1.335-.277-2.93t-.245-3.157q-.1-1.6-.1-2.67v-.293H353.4v.293q0,1.075-.1,2.637-.1,1.595-.245,3.175t-.277,2.945q-.128,1.367-.2,1.953Zm-1.53-23.08V910h.683V903.98Zm19.3,1.173a11.281,11.281,0,0,1,6.087,6.087,11.36,11.36,0,0,1,0,8.918,11.291,11.291,0,0,1-6.087,6.088,11.359,11.359,0,0,1-8.918,0,11.3,11.3,0,0,1-6.088-6.088,11.36,11.36,0,0,1,0-8.918,11.291,11.291,0,0,1,6.088-6.087,11.36,11.36,0,0,1,8.918,0Zm-14.942,8.1.033-.065c-.087.347-.158.7-.212,1.058a7.36,7.36,0,0,0-.082,1.09h2.995c.022-.24.043-.467.065-.683a4.935,4.935,0,0,1,.1-.618Zm-.26,2.8a7.4,7.4,0,0,0,.082,1.092c.053.358.113.688.178.992l2.9-.78.032.065a3.459,3.459,0,0,1-.13-.668q-.033-.34-.065-.7Zm1.27-5.435v-.065q-.228.455-.44.96a10.234,10.234,0,0,0-.375,1.058l2.9.78v-.032c.085-.217.167-.428.243-.635a3.169,3.169,0,0,1,.277-.57Zm-.815,8.2v.065a9.036,9.036,0,0,0,.375.992c.142.315.288.615.44.9l2.6-1.5v.033c-.087-.2-.173-.4-.26-.6s-.175-.428-.26-.667Zm2.442-10.482a7.989,7.989,0,0,0-.683.78,9.586,9.586,0,0,0-.618.912l2.6,1.5.032-.033a5.336,5.336,0,0,1,.375-.52c.142-.175.277-.347.407-.522Zm-1.3,13.053.033.032c.2.282.4.565.6.847a6.9,6.9,0,0,0,.667.782l2.117-2.117h.032c-.15-.173-.3-.347-.438-.52s-.277-.358-.407-.553Zm3.483-14.845-.065.033c-.282.2-.565.395-.847.6a6.736,6.736,0,0,0-.782.668l2.117,2.115V910q.26-.228.52-.44c.175-.142.358-.277.553-.407Zm-1.693,16.993a8.185,8.185,0,0,0,.782.683,9.579,9.579,0,0,0,.912.618l1.5-2.6-.032-.032a5.345,5.345,0,0,1-.522-.375c-.173-.142-.347-.277-.52-.407Zm14.422-7.845a6.781,6.781,0,0,0-.553-2.735,7.018,7.018,0,0,0-3.777-3.777,7.032,7.032,0,0,0-5.468,0,7,7,0,0,0-3.777,3.777,7.032,7.032,0,0,0,0,5.468,6.989,6.989,0,0,0,3.777,3.777,7.032,7.032,0,0,0,5.468,0,7,7,0,0,0,3.777-3.777A6.773,6.773,0,0,0,375.336,915.7Zm-12.143,9.472h-.065q.49.228.977.44a9.284,9.284,0,0,0,1.042.375l.782-2.9H365.9c-.217-.087-.428-.167-.635-.243a3.122,3.122,0,0,1-.57-.277Zm1.953-19.758h-.065a8.724,8.724,0,0,0-.992.373c-.315.142-.615.288-.9.44l1.5,2.6h-.033c.2-.087.4-.175.6-.262s.428-.173.667-.26Zm.683,20.768h-.065q.52.1,1.058.178c.358.053.722.093,1.09.113v-3.027a4.716,4.716,0,0,1-.683-.048c-.217-.033-.423-.07-.618-.115Zm2.083-21.225a7.386,7.386,0,0,0-1.09.082c-.358.053-.688.115-.993.18l.782,2.9-.065.032a3.46,3.46,0,0,1,.668-.13c.227-.02.46-.043.7-.065Zm2.8.262.065.032c-.347-.087-.7-.158-1.058-.212a7.35,7.35,0,0,0-1.09-.082v2.995c.24.022.467.045.683.065a5.271,5.271,0,0,1,.618.1Zm-2.083,21.255c.37-.02.733-.053,1.09-.1a6.645,6.645,0,0,0,.993-.195l-.782-2.9.065-.032a4.592,4.592,0,0,1-.667.147,5.06,5.06,0,0,1-.7.048Zm4.72-20.247h.065q-.455-.228-.96-.44a9.877,9.877,0,0,0-1.058-.373l-.78,2.9h.065c.2.087.4.168.6.245a2.961,2.961,0,0,1,.57.277ZM371.4,926.018l.065-.032c.347-.11.68-.228.993-.358a9.67,9.67,0,0,0,.9-.423l-1.5-2.637h.032a6.075,6.075,0,0,1-.6.293,5.672,5.672,0,0,1-.667.227Zm4.232-18.163a7.8,7.8,0,0,0-.78-.685,10.224,10.224,0,0,0-.912-.618l-1.5,2.6.033.032a3.241,3.241,0,0,1,.537.375c.163.142.33.277.505.407Zm-1.66,16.992.033-.033c.282-.2.565-.4.847-.6a6.728,6.728,0,0,0,.78-.667l-2.115-2.117c-.175.13-.347.265-.522.407a6.755,6.755,0,0,1-.553.407Zm3.452-14.812-.033-.065c-.2-.282-.395-.565-.6-.847a6.576,6.576,0,0,0-.668-.78L374,910.491v-.033c.13.175.265.347.407.522a6.735,6.735,0,0,1,.407.553Zm-1.3,13.022a8.015,8.015,0,0,0,.685-.782q.323-.423.618-.878l-2.6-1.53-.032.032a3.171,3.171,0,0,1-.375.537c-.142.163-.277.332-.407.505Zm2.475-10.482-.033-.065c-.108-.347-.228-.68-.358-.993a9.67,9.67,0,0,0-.423-.9l-2.637,1.5v-.032a5.74,5.74,0,0,1,.293.6,5.384,5.384,0,0,1,.228.667Zm-.815,8.2-.032.065c.152-.305.3-.623.44-.962s.277-.688.407-1.057l-2.93-.782v.065c-.065.2-.142.4-.228.6a3.812,3.812,0,0,1-.293.57Zm1.27-5.437q-.033-.555-.1-1.09a6.639,6.639,0,0,0-.2-.993l-2.9.782-.032-.067a4.465,4.465,0,0,1,.145.668,5.073,5.073,0,0,1,.05.732Zm-.293,2.8v.1c.065-.347.127-.7.18-1.073s.092-.738.113-1.108H376.02a4.513,4.513,0,0,1-.05.685c-.032.217-.07.423-.113.618Zm2.345,8.237q.1-.977.212-2.54t.212-3.547q.1-1.955.1-3.94v-1.92a1.334,1.334,0,0,1-.683-.472,1.271,1.271,0,0,1-.26-.8v-8.627a1.727,1.727,0,0,1,.52-1.268,1.692,1.692,0,0,1,1.237-.522,1.781,1.781,0,0,1,1.792,1.79V916.35q0,1.985.1,3.94t.212,3.532c.077,1.053.147,1.9.212,2.555s.1.988.1,1.008l.065.392h-3.972l.065-.392Q381,927.355,381.1,926.376Zm.26-13.217a.609.609,0,0,0,.618.618h.358v1.563h1.2V904.533a1.015,1.015,0,0,0-.325-.765,1.09,1.09,0,0,0-.782-.308,1.052,1.052,0,0,0-.748.308,1.015,1.015,0,0,0-.325.765v8.627Zm.977,3.19q0,1.692-.1,3.387-.065,1.69-.162,3.157t-.2,2.572q-.1,1.075-.162,1.6h2.408q-.065-.52-.163-1.628-.1-1.073-.2-2.538t-.162-3.157q-.067-1.693-.067-3.387v-.293h-1.2Z" transform="translate(-348.272 -896.076)" fill="#8e6941"/>
</svg>
