<svg id="Component_5_6" data-name="Component 5 – 6" xmlns="http://www.w3.org/2000/svg" width="40" height="40" viewBox="0 0 40 40">
  <rect id="Rectangle_29" data-name="Rectangle 29" width="40" height="40" fill="#8e6941" opacity="0"/>
  <path id="Path_68" data-name="Path 68" d="M464.863,910.327h3.322l-1.628,13.215h-12.63l.26-2.278h-.748a2.187,2.187,0,0,1-1.513-.57,2.149,2.149,0,0,1-.733-1.383l-.878-6.412v.032a.575.575,0,0,1-.033-.178V912.6a2.279,2.279,0,0,1,2.28-2.278h3.157l2.9-2.67a1.988,1.988,0,0,1,.652-1.253,1.872,1.872,0,0,1,1.3-.505,1.947,1.947,0,0,1,1.922,1.922ZM454.285,920.58l1.172-9.538h-2.9a1.554,1.554,0,0,0-1.123.457,1.477,1.477,0,0,0-.472,1.107.382.382,0,0,0,.015.113.342.342,0,0,1,.017.115l.878,6.38a1.5,1.5,0,0,0,.505.977,1.542,1.542,0,0,0,1.058.39Zm.423,2.246h.813l.2-1.563H454.9Zm.26-2.246h.847l1.172-9.538h-.847Zm1.465.683-.2,1.563h3.71v-1.563Zm1.237-10.222L456.5,920.58h3.45v-9.538Zm-.943-.715h7.193l-1.6-1.693v.034a1.9,1.9,0,0,1-.7.8,1.929,1.929,0,0,1-2.88-.96Zm3.84-3.743a1.225,1.225,0,0,0-.765.26,1.156,1.156,0,0,0-.438.65h2.408a1.384,1.384,0,0,0-.455-.65A1.161,1.161,0,0,0,460.567,906.583Zm-1.2,1.6a1.156,1.156,0,0,0,.438.65,1.226,1.226,0,0,0,.765.262,1.162,1.162,0,0,0,.75-.262,1.384,1.384,0,0,0,.455-.65Zm4.687,12.4-1.172-9.538h-2.247v9.538Zm-3.418,2.246h3.712l-.2-1.563h-3.517Zm5.242,0-1.465-11.785H463.6l1.432,11.785Zm-.748-11.785,1.138,9.278,1.14-9.278Zm17.708,4.623H482.8a3.658,3.658,0,0,1,.618,1.025,3.181,3.181,0,0,1,.228,1.188,3.391,3.391,0,0,1-3.385,3.385h-.847l-.293,2.278h-7.975l-1.107-9.048h10.222a3.165,3.165,0,0,1,1.432.325A4.009,4.009,0,0,1,482.833,915.665Zm-11.068,7.161h1.075v-7.618h-2.018Zm1.888-12.045c-.542-.565-.955-1.013-1.237-1.35a1.6,1.6,0,0,1-.423-1.027,1.622,1.622,0,0,1,.423-1.008q.422-.52,1.237-1.367a4.2,4.2,0,0,0,1.042-1.385,1.579,1.579,0,0,0,.1-.8,1.662,1.662,0,0,0-.39-.781q-.325-.39-.748-.814l.488-.488a11.3,11.3,0,0,1,.862.96,2.267,2.267,0,0,1,.473,1.025,2.143,2.143,0,0,1-.228,1.287,6.184,6.184,0,0,1-1.107,1.482c-.457.477-.813.862-1.075,1.155a.883.883,0,0,0,0,1.465c.262.293.618.678,1.075,1.155Zm4.85,12.045.977-7.618h-5.925v7.618ZM474.76,908.4a1.622,1.622,0,0,1,.423-1.008q.423-.52,1.237-1.367a4.154,4.154,0,0,0,1.042-1.385,2.034,2.034,0,0,0,.13-.8,1.992,1.992,0,0,0-.423-.781q-.325-.39-.748-.814l.522-.488a11.318,11.318,0,0,1,.862.96,2.264,2.264,0,0,1,.472,1.025,2.154,2.154,0,0,1-.227,1.287,6.185,6.185,0,0,1-1.107,1.482q-.718.715-1.092,1.155a.905.905,0,0,0,0,1.465q.375.44,1.092,1.155l-.522.488c-.542-.565-.955-1.013-1.237-1.35A1.6,1.6,0,0,1,474.76,908.4Zm8.17,9.863a1.085,1.085,0,0,1,.017-.195,1.109,1.109,0,0,0,.017-.2,2.544,2.544,0,0,0-.8-1.888,2.63,2.63,0,0,0-1.9-.782h-.1l-.652,5.372h.75a2.562,2.562,0,0,0,1.757-.667A2.746,2.746,0,0,0,482.93,918.268Z" transform="translate(-446.964 -893.432)" fill="#8e6941"/>
</svg>
