<svg id="Component_38_2" data-name="Component 38 – 2" xmlns="http://www.w3.org/2000/svg" width="64" height="64" viewBox="0 0 64 64">
  <rect id="Rectangle_5661" data-name="Rectangle 5661" width="64" height="64" fill="#8e6941" opacity="0"/>
  <g id="Group_18570" data-name="Group 18570" transform="translate(3.2 8.001)">
    <path id="Path_19925" data-name="Path 19925" d="M812.455,761.178a3.409,3.409,0,0,1,1.062,1.251,3.564,3.564,0,0,1,.376,1.624,3.471,3.471,0,0,1-1.032,2.5,3.387,3.387,0,0,1-2.531,1.063H763.206a6.152,6.152,0,0,1-4.562-1.907,6.309,6.309,0,0,1-1.875-4.594c0-.165.01-.352.03-.562s.032-.4.032-.563l1.312-14.062.125-1.875a4.305,4.305,0,0,1,1.187-2.688,4.1,4.1,0,0,1,2.5-1.312V725.365l-.626-.624a2.277,2.277,0,0,1,0-3.376,2.378,2.378,0,0,1,.75-.5,2.351,2.351,0,0,1,.938-.187,2.214,2.214,0,0,1,.875.187,3.4,3.4,0,0,1,.813.5l.624.626h33.688l.626-.626a2.364,2.364,0,0,1,1.719-.749,2.577,2.577,0,0,1,2.406,2.406,2.367,2.367,0,0,1-.75,1.718l-.625.624V727.3h3.75l.688-.686a2.386,2.386,0,0,1,3.374,3.374l-.688.688v9.5a3.984,3.984,0,0,1,1.97,1.376,4.349,4.349,0,0,1,.906,2.312l1.438,13.688a1.223,1.223,0,0,1,.062.374v.374a3.561,3.561,0,0,1-.376,1.626A3.391,3.391,0,0,1,812.455,761.178Zm-2.125,5.062a2.164,2.164,0,0,0,1.594-.656,2.094,2.094,0,0,0,.657-1.531,2.166,2.166,0,0,0-.563-1.5,1.949,1.949,0,0,0-1.312-.688H764.831v-1.374h45.875a2.29,2.29,0,0,0,1.312-.72,1.977,1.977,0,0,0,.563-1.406l-.064-.562a2.339,2.339,0,0,0-.781-1.25,2.121,2.121,0,0,0-1.406-.5H763.206a4.938,4.938,0,0,0-3.281,1.187,4.873,4.873,0,0,0-1.719,2.938l-.125,1a4.833,4.833,0,0,0,1.5,3.594,4.982,4.982,0,0,0,3.624,1.469Zm-50.875-20.25-1,10.75a7.44,7.44,0,0,1,2.157-1.5,6.123,6.123,0,0,1,2.594-.562l47.125.062a3.256,3.256,0,0,1,1.032.157,5.135,5.135,0,0,1,.906.4l-1.187-11.312a2.685,2.685,0,0,0-.5-1.406,3.652,3.652,0,0,0-1.064-.968v6.749l.688.626a2.413,2.413,0,0,1,0,3.374,2.576,2.576,0,0,1-.813.563,2.211,2.211,0,0,1-.875.187,2.341,2.341,0,0,1-.936-.187,1.959,1.959,0,0,1-.75-.563l-.688-.624h-33.75l-.437.437a2.272,2.272,0,0,1-3.374,0,1.7,1.7,0,0,1-.533-.749,2.768,2.768,0,0,1-.155-.938,2.592,2.592,0,0,1,.155-.875,2.183,2.183,0,0,1,.533-.813l.5-.5v-1.811h-3.813l-.5.437a1.715,1.715,0,0,1-.75.531,2.739,2.739,0,0,1-.937.157,2.548,2.548,0,0,1-.875-.157,2.189,2.189,0,0,1-.813-.531,2.416,2.416,0,0,1,0-3.374l.563-.5v-1.688a3.351,3.351,0,0,0-1.626,1,2.769,2.769,0,0,0-.749,1.75Zm2,15.125a2.066,2.066,0,0,0,.658,1.563,2.14,2.14,0,0,0,1.531.624h46v1.376h-46a3.363,3.363,0,0,1-2.469-1.032,3.438,3.438,0,0,1-1.032-2.531,3.521,3.521,0,0,1,3.5-3.5h45.938v1.374H763.644a2.149,2.149,0,0,0-1.531.626A2,2,0,0,0,761.455,761.115Zm.813-38.813a1.058,1.058,0,0,0,0,1.5l1,1v18.75l-.938.938a1.056,1.056,0,0,0,0,1.5,3.267,3.267,0,0,0,.376.219.83.83,0,0,0,.375.093.965.965,0,0,0,.437-.093,1.163,1.163,0,0,0,.314-.219l.875-.875h4.375V730.678l-.626-.688a1.709,1.709,0,0,1-.531-.75,2.758,2.758,0,0,1-.155-.938,2.588,2.588,0,0,1,.155-.874,2.2,2.2,0,0,1,.531-.813,2.414,2.414,0,0,1,3.376,0l.624.686h28.563v-2.5l1.063-1.062a.832.832,0,0,0,.312-.688,1.06,1.06,0,0,0-1.811-.75l-1,1.062H764.769l-1.062-1.062a1.263,1.263,0,0,0-.313-.218.831.831,0,0,0-.375-.094.959.959,0,0,0-.437.094A1.209,1.209,0,0,0,762.268,722.3Zm40.688,25.626V728.616H771.894l-1-1a1,1,0,0,0-.376-.251,1.227,1.227,0,0,0-.374-.062,1.434,1.434,0,0,0-.437.062.616.616,0,0,0-.313.251.828.828,0,0,0-.312.686,1.016,1.016,0,0,0,.312.75l1,1.062v17.813Zm-33.438,1.813a.984.984,0,0,0-.25.374,1.18,1.18,0,0,0-.062.376,1.382,1.382,0,0,0,.062.437.6.6,0,0,0,.25.312,1.055,1.055,0,0,0,1.5,0l.813-.811h31.125V749.3h-33Zm36-21.125h-1.25v19.312h1.25Zm-1.25,21.813h1.25V749.3h-1.25Zm5-22.875a1.053,1.053,0,0,0-1.5,0l-.875.875v19.5h1.312V730.115l1.062-1.062a1.25,1.25,0,0,0,0-1.5ZM806.894,749.3v1.251l.875.875a.6.6,0,0,0,.312.25,1.382,1.382,0,0,0,.437.062,1.179,1.179,0,0,0,.376-.062.983.983,0,0,0,.374-.25,1.253,1.253,0,0,0,0-1.5l-.686-.626Z" transform="translate(-756.769 -720.616)" fill="#8e6941"/>
  </g>
</svg>
