<svg id="Component_37_2" data-name="Component 37 – 2" xmlns="http://www.w3.org/2000/svg" width="64" height="64" viewBox="0 0 64 64">
  <rect id="Rectangle_5660" data-name="Rectangle 5660" width="64" height="64" fill="#8e6941" opacity="0"/>
  <path id="Path_19924" data-name="Path 19924" d="M730.012,728.811a19.643,19.643,0,0,1,7.563,2.686,22.478,22.478,0,0,1,6.155,5.406,26.34,26.34,0,0,1,5.594,16.406V758h-44V753.31a26.478,26.478,0,0,1,.688-6.062,28,28,0,0,1,1.906-5.531,23.883,23.883,0,0,1,2.97-4.781,21.252,21.252,0,0,1,3.875-3.875l.125-.125V733a20.232,20.232,0,0,1,4.531-2.688,21.81,21.81,0,0,1,5.219-1.5v-4.938a2.277,2.277,0,0,1-1.406-.907,2.7,2.7,0,0,1-.531-1.656,2.646,2.646,0,0,1,.75-1.906,2.492,2.492,0,0,1,1.874-.781h23.314V720H725.324a1.313,1.313,0,1,0,0,2.626h23.314V724H730.012Zm-23.374,27.813h28v-4.5H706.7a10.394,10.394,0,0,0-.062,1.187Zm9-22.563a22.669,22.669,0,0,0-6,7.157,24.515,24.515,0,0,0-2.875,9.531h27.813a35.935,35.935,0,0,0-1.251-6.875,25,25,0,0,0-2.5-5.875,14.893,14.893,0,0,0-4.125-4.688,8.261,8.261,0,0,0-4.813-1.624,7.987,7.987,0,0,0-3.5.781A18.21,18.21,0,0,0,715.638,734.061Zm-5,43.25h1.374v-16h-1.374Zm8-16v16h1.374v-16Zm29.25-10.562a25,25,0,0,0-2.187-8.125A24.361,24.361,0,0,0,741.137,736a21.158,21.158,0,0,0-6.25-4.438,19.122,19.122,0,0,0-9.75-1.437c-.709.085-1.374.187-2,.312a10.37,10.37,0,0,1,4.781,2.125,16.108,16.108,0,0,1,4.032,4.75,25.342,25.342,0,0,1,2.688,6.187,33.994,33.994,0,0,1,1.25,7.251Zm-19.25-22.125V724h-2.626v4.626Zm-2,32.686v16h1.374v-16Zm8,16h1.374v-16h-1.374Zm13.374-24a11.206,11.206,0,0,0-.062-1.187h-12c0,.25.01.491.032.718s.03.469.03.718v3.064h12Zm-5.374,24h1.374v-16h-1.374Z" transform="translate(-695.724 -715.422)" fill="#8e6941"/>
</svg>
