<svg id="Component_34_2" data-name="Component 34 – 2" xmlns="http://www.w3.org/2000/svg" width="88" height="88" viewBox="0 0 88 88">
  <rect id="Rectangle_5647" data-name="Rectangle 5647" width="88" height="88" fill="#8e6941" opacity="0"/>
  <path id="Path_19871" data-name="Path 19871" d="M543.533,1283.614l-3.954-17.961,4.9-.087-1.8-8.765a42.351,42.351,0,0,1-.731-8.294,37.557,37.557,0,0,1,.988-8.206,39.729,39.729,0,0,0,.946-7.735,35.4,35.4,0,0,0-.688-7.734l-.085-.343-2.492-12.29,9.195-1.8,2.493,12.288a35.581,35.581,0,0,0,2.363,7.563,38.978,38.978,0,0,0,3.91,6.875,40.177,40.177,0,0,1,4.039,7.261,42.085,42.085,0,0,1,2.492,7.949l2.578,13.063,9.454-.172-4.04,18.391Zm7.046-16.328-8.851.085,2.407,11h8.679l-1.03-5.328Zm-7.905-53.712,2.147,10.571a27.826,27.826,0,0,1,.6,4.9q.083,2.494,0,4.9l1.546-.343q-.174-2.235-.429-4.554t-.688-4.641l-2.234-11Zm1.976,27.071a36.326,36.326,0,0,0-.946,7.434,35.911,35.911,0,0,0,.6,7.433l3.868-.773q-.6-3.694-.9-7.434a55.785,55.785,0,0,1-.128-7.261c0-.8-.015-1.575-.043-2.321s-.044-1.517-.044-2.32l-1.89.344q-.086,1.289-.172,2.492a11.837,11.837,0,0,1-.43,2.406Zm-.087,16.671,1.633,8.25h4.039l-1.805-9.109Zm0,22.773.345,1.719h8.679l-.258-1.2-.171-.516Zm6.016-57.062-2.149-10.571-3.093.6,2.234,11q.431,2.321.731,4.641t.386,4.555l5.071-1.031q-1.032-2.147-1.891-4.469A27.586,27.586,0,0,1,550.579,1223.028Zm12.462,28.788a36.367,36.367,0,0,0-2.278-7.133,38.468,38.468,0,0,0-3.652-6.531,15.191,15.191,0,0,1-1.332-2.106q-.559-1.075-1.074-2.191l-5.929,1.2q0,1.291.085,2.536a19.047,19.047,0,0,1,0,2.535,52.5,52.5,0,0,0,.128,7.047q.3,3.608.9,7.219l13.234-2.579Zm2.836,13.579-2.321-11.946-13.405,2.75,1.891,9.282Zm6.531,12.976,2.492-11.344-22.516.258,1.031,5.07,1.288,6.016Zm-.688,3.437.343-1.719H555.049l.344,1.719Zm22.086-63.25-.343,1.2-6.532,21.657a5.84,5.84,0,0,1-5.586,4.125,1.7,1.7,0,0,1-.429-.044,1.85,1.85,0,0,0-.43-.043l-3.695,12.29,3.953,1.117-.516,1.718-9.54-2.921.516-1.633,3.867,1.2,3.782-12.375a6.147,6.147,0,0,1-2.836-2.878,5.364,5.364,0,0,1-.344-4l6.875-22.516,10.226,3.094ZM577.392,1238.5a4.234,4.234,0,0,0-.13,1.332,3.813,3.813,0,0,0,.3,1.245l7.305-23.03-1.2-.345Zm7.82,2.406,6.359-20.883-5.07-1.462-7.649,24.321a2.281,2.281,0,0,0,.6.429,3.138,3.138,0,0,0,.688.258,3.981,3.981,0,0,0,3.136-.258A3.637,3.637,0,0,0,585.212,1240.9Zm5.114-28.446a1.144,1.144,0,0,1,0-1.546,1.032,1.032,0,0,1,.816-.345.939.939,0,0,1,.73.345,1.14,1.14,0,0,1,0,1.546.935.935,0,0,1-.73.345A1.028,1.028,0,0,1,590.326,1212.457Zm13.793,67.117,4.039-.343.171,1.718-9.883.946-.171-1.805,4.038-.343-1.2-12.805a5.584,5.584,0,0,1-3.652-1.546,5.739,5.739,0,0,1-1.848-3.7l-2.149-23.375,10.829-1.03.086.859.859-.087,2.063,22.516a5.338,5.338,0,0,1-1.032,3.954,5.847,5.847,0,0,1-3.351,2.234Zm-8.508-71.456a.692.692,0,0,1-.258-.56.912.912,0,0,1,.774-.772.694.694,0,0,1,.559.258.813.813,0,0,1,.215.515.736.736,0,0,1-.774.773A.805.805,0,0,1,595.611,1208.118Zm1.805,53.41a3.571,3.571,0,0,0,.386,1.332,6.323,6.323,0,0,0,.731,1.073l-2.149-24.147-1.032.085Zm-.946-30.9a1.145,1.145,0,0,1,1.547,0,.946.946,0,0,1,.344.731,1.035,1.035,0,0,1-.344.816,1.145,1.145,0,0,1-1.547,0,1.031,1.031,0,0,1-.343-.816A.942.942,0,0,1,596.47,1230.633Zm.859-13.492a.734.734,0,0,1,0-1.117.82.82,0,0,1,.516-.215.79.79,0,0,1,.559,1.332.751.751,0,0,1-.559.215A.8.8,0,0,1,597.329,1217.141Zm8.25,43.614L603.6,1239.1l-5.5.516,2.321,25.523a5.284,5.284,0,0,0,.73.128,2.015,2.015,0,0,0,.731-.042,3.666,3.666,0,0,0,2.793-1.418A4.039,4.039,0,0,0,605.579,1260.754Zm-4.984-35.535a.937.937,0,0,1-.343-.731,1.033,1.033,0,0,1,.343-.816,1.145,1.145,0,0,1,1.547,0,1.037,1.037,0,0,1,.344.816.941.941,0,0,1-.344.731,1.146,1.146,0,0,1-1.547,0Z" transform="translate(-529.954 -1201.199)" fill="#8e6941"/>
</svg>
