<svg id="Component_35_2" data-name="Component 35 – 2" xmlns="http://www.w3.org/2000/svg" width="64" height="64" viewBox="0 0 64 64">
  <rect id="Rectangle_5658" data-name="Rectangle 5658" width="64" height="64" fill="#8e6941" opacity="0"/>
  <g id="Group_18537" data-name="Group 18537" transform="translate(0 3.199)">
    <path id="Path_19915" data-name="Path 19915" d="M868.22,740.213h6.25v1.313H811.345v-1.313h8.062V708.4a10.622,10.622,0,0,1,2.031-6.376,11.1,11.1,0,0,1,5.219-4v-5.25h1.688v-8.125h11.187v4.626h-6v3.5h1v5.312a11.335,11.335,0,0,1,5.032,4.032,10.615,10.615,0,0,1,1.968,6.282v.374h2.5v5.938a8.409,8.409,0,0,1,3.781,3.03,8.041,8.041,0,0,1,1.469,4.72v17.749h5.187l-2-24.375h.875L850.283,702.9l-2.626-11.437,3.563-.75,4.938-1.125,2.5,11-3.75.875.064.374,3.25,14h11.75Zm-47.5-10.5h3.438V708.4a18.245,18.245,0,0,1,.686-5.157,11.22,11.22,0,0,1,1.875-3.843,9.925,9.925,0,0,0-4.312,3.562,9.343,9.343,0,0,0-1.688,5.438Zm3.438,1.312h-3.438v3.688h3.438Zm-3.438,9.187h3.438v-4.187h-3.438Zm19.5-31.811a9.764,9.764,0,0,0-9.75-9.75q-2,0-3.5,2.906a14.737,14.737,0,0,0-1.5,6.845v21.312h7.063v-7.25a8.048,8.048,0,0,1,1.5-4.75,8.459,8.459,0,0,1,3.874-3.062v-5.875h2.314Zm-7.688,22.624H825.47v3.688h7.063Zm-7.062,9.187h7.063v-4.187H825.47Zm2.5-46.125v3.5c.414-.083.832-.146,1.25-.187s.832-.062,1.25-.062a10.194,10.194,0,0,1,1.375.093c.459.062.9.136,1.314.219v-3.563Zm1.686-6.125h2.5v-2h-2.5Zm0,4.813h2.5v-3.5h-2.5Zm3.875-6.813v2h4.626v-2Zm7.374,54.25h7V722.464a7.042,7.042,0,0,0-7-7,6.807,6.807,0,0,0-5,2.062,6.738,6.738,0,0,0-2.062,4.938v17.749Zm1.813-30.125h-3.5v4.189c.29-.042.571-.083.843-.126a5.752,5.752,0,0,1,.843-.062,7.162,7.162,0,0,1,.907.062,6.57,6.57,0,0,1,.906.189Zm6.563-17.562,1.938,8.375,2.063-.437-1.875-8.438Zm2.312,10.063,3.062,13.25h2.187l-3.187-13.688-.062-.437-2.062.5Zm3.563-11.438-2.5.563,1.938,8.437,2.5-.562Zm.686,49.063h11.062l1.626-23.062H853.907Z" transform="translate(-811.345 -684.651)" fill="#8e6941"/>
  </g>
</svg>
