<svg id="Component_23_7" data-name="Component 23 – 7" xmlns="http://www.w3.org/2000/svg" width="40" height="40" viewBox="0 0 40 40">
  <rect id="Rectangle_5609" data-name="Rectangle 5609" width="40" height="40" fill="#8e6941" opacity="0"/>
  <path id="Path_19823" data-name="Path 19823" d="M35.43-7.227v-4.531a1.124,1.124,0,0,0-.352-.82,1.124,1.124,0,0,0-.82-.352h-.117v-5.859A13.955,13.955,0,0,0,33.047-24.3,14.578,14.578,0,0,0,30-28.789,14.033,14.033,0,0,0,25.508-31.8,13.54,13.54,0,0,0,20-32.93,13.54,13.54,0,0,0,14.492-31.8,14.033,14.033,0,0,0,10-28.789,14.578,14.578,0,0,0,6.953-24.3a13.955,13.955,0,0,0-1.094,5.508v5.859H5.742a1.124,1.124,0,0,0-.82.352,1.124,1.124,0,0,0-.352.82V-2.07H9.3a1.062,1.062,0,0,0,.8-.352,1.157,1.157,0,0,0,.332-.82v-.742h19.1v.742a1.124,1.124,0,0,0,.352.82,1.124,1.124,0,0,0,.82.352H35.43V-7.227Zm-3.164-5.7v-3.828a1.157,1.157,0,0,0-.332-.82,1.062,1.062,0,0,0-.8-.352h-.742a4.578,4.578,0,0,0-.039-.605q-.039-.293-.078-.605v.078l3.008-.547a2.088,2.088,0,0,1,.039.41v6.27ZM9.844-19.8l-3.086-.469a11.876,11.876,0,0,1,.41-2.09,16.238,16.238,0,0,1,.684-1.895l-.039.078,3.008,1.719a11.812,11.812,0,0,0-.566,1.23,8.627,8.627,0,0,0-.41,1.387ZM20-27.109a9.066,9.066,0,0,1,3.633.742,9.37,9.37,0,0,1,3.008,1.953,9.792,9.792,0,0,1,2.07,2.93,9.036,9.036,0,0,1,.859,3.555H21.6a1.062,1.062,0,0,0-.8.352,1.157,1.157,0,0,0-.332.82v1.094h-.977v-1.094a1.157,1.157,0,0,0-.332-.82,1.062,1.062,0,0,0-.8-.352H10.43a9.036,9.036,0,0,1,.859-3.555,9.792,9.792,0,0,1,2.07-2.93,9.486,9.486,0,0,1,2.969-1.953A9.162,9.162,0,0,1,20-27.109Zm3.711-.117,1.406-3.828a14.663,14.663,0,0,1,1.914.977,13.125,13.125,0,0,1,1.68,1.211h-.039l-2.5,2.969a8.618,8.618,0,0,0-1.113-.723,12.673,12.673,0,0,0-1.27-.605ZM22.93-27.5a6.428,6.428,0,0,0-1.172-.293q-.625-.1-1.328-.137V-32.07a14.979,14.979,0,0,1,2.051.215,11.943,11.943,0,0,1,1.973.527l-.117-.039Zm-3.32-.43a12.915,12.915,0,0,0-1.445.156,8.1,8.1,0,0,0-1.367.352l.078-.039-1.406-3.828a11.881,11.881,0,0,1,1.973-.547,14.2,14.2,0,0,1,2.129-.234h.039Zm-3.516.742q-.7.313-1.289.645a9.073,9.073,0,0,0-1.133.762l.039-.039-2.5-2.93a13.721,13.721,0,0,1,1.6-1.23,10.825,10.825,0,0,1,1.8-.957l.078-.039Zm8.164,12.344a.3.3,0,0,1,.215.1.343.343,0,0,1,.1.254v1.6h-9.18v-1.6a.343.343,0,0,1,.1-.254.343.343,0,0,1,.254-.1Zm7.188,1.914H25.43v-1.562a1.106,1.106,0,0,0-.352-.84,1.157,1.157,0,0,0-.82-.332H21.289v-1.094a.282.282,0,0,1,.1-.234.336.336,0,0,1,.215-.078h9.531a.336.336,0,0,1,.215.078.282.282,0,0,1,.1.234ZM29.1-22.539,32.148-24.3a13.04,13.04,0,0,1,.664,1.816,12.3,12.3,0,0,1,.391,1.973v.078l-3.086.547a7.814,7.814,0,0,0-.43-1.445q-.273-.664-.586-1.25ZM18.359-17.07a.336.336,0,0,1,.215.078.282.282,0,0,1,.1.234h0v1.094h-2.93a1.124,1.124,0,0,0-.82.352,1.124,1.124,0,0,0-.352.82v1.6H8.516v-3.867a.282.282,0,0,1,.1-.234.336.336,0,0,1,.215-.078Zm13.4-7.969-3.086,1.8a8.553,8.553,0,0,0-.859-1.152,9.638,9.638,0,0,0-.977-.957v-.039L29.3-28.32A15.045,15.045,0,0,1,30.625-26.8a13.211,13.211,0,0,1,1.094,1.68ZM10.586-28.2l2.461,2.93a13.519,13.519,0,0,0-.957.977,7.369,7.369,0,0,0-.8,1.094l-.039.039L8.2-24.922A11.958,11.958,0,0,1,9.277-26.68,13.423,13.423,0,0,1,10.586-28.2ZM6.68-18.789v-.664l3.008.469q-.039.234-.059.508t-.02.547H8.828a1.062,1.062,0,0,0-.8.352,1.157,1.157,0,0,0-.332.82v3.828H6.68ZM5.43-11.758a.318.318,0,0,1,.078-.234.318.318,0,0,1,.234-.078H34.258a.318.318,0,0,1,.234.078.318.318,0,0,1,.078.234v4.1H5.43ZM34.57-2.93H30.7a.318.318,0,0,1-.234-.078.318.318,0,0,1-.078-.234V-4.8H9.609v1.563a.282.282,0,0,1-.1.234A.336.336,0,0,1,9.3-2.93H5.43V-6.836H34.57Z" transform="translate(-0.57 37.93)" fill="#8e6941"/>
</svg>
