<svg id="Component_3_6" data-name="Component 3 – 6" xmlns="http://www.w3.org/2000/svg" width="40" height="40" viewBox="0 0 40 40">
  <rect id="Rectangle_28" data-name="Rectangle 28" width="40" height="40" fill="#8e6941" opacity="0"/>
  <path id="Path_19840" data-name="Path 19840" d="M37.578-19.18H7.93V-32.187A4.43,4.43,0,0,1,9.258-35.41,4.379,4.379,0,0,1,12.5-36.758a4.409,4.409,0,0,1,3.066,1.191,4.512,4.512,0,0,1,1.5,2.91v.039a2.9,2.9,0,0,0-1.777.957,2.734,2.734,0,0,0-.723,1.895v.43H20.43v-.43a2.805,2.805,0,0,0-.723-1.914,2.864,2.864,0,0,0-1.777-.977h-.039a5.29,5.29,0,0,0-1.738-3.5A5.2,5.2,0,0,0,12.5-37.578,5.256,5.256,0,0,0,8.672-36a5.205,5.205,0,0,0-1.6,3.848V-19.18H2.578a1.2,1.2,0,0,0-.879.371,1.2,1.2,0,0,0-.371.879v.859a1.165,1.165,0,0,0,.254.723,1.245,1.245,0,0,0,.645.449A22.623,22.623,0,0,0,3.32-10.293a21.046,21.046,0,0,0,2.422,5.02,6.15,6.15,0,0,0,.605.8,8.464,8.464,0,0,0,.684.684l.039.039a2.708,2.708,0,0,1-.937.605A3.071,3.071,0,0,1,5-2.93H4.57v2.5H35.43v-2.5H35a3.021,3.021,0,0,1-1.094-.2,2.556,2.556,0,0,1-.9-.586,4.361,4.361,0,0,0,.762-.7q.332-.391.645-.82v-.039a21.046,21.046,0,0,0,2.422-5.02A22.623,22.623,0,0,0,37.93-15.9a1.245,1.245,0,0,0,.645-.449,1.165,1.165,0,0,0,.254-.723v-.859a1.2,1.2,0,0,0-.371-.879A1.2,1.2,0,0,0,37.578-19.18ZM19.531-30.156H15.469a2.081,2.081,0,0,1,.723-1.211,1.992,1.992,0,0,1,1.309-.469,1.993,1.993,0,0,1,1.309.469,2.066,2.066,0,0,1,.723,1.172ZM2.148-17.93a.351.351,0,0,1,.137-.273.443.443,0,0,1,.293-.117H7.07v1.641H2.578a.443.443,0,0,1-.293-.117.351.351,0,0,1-.137-.273ZM5.43-1.25v-.859A3.754,3.754,0,0,0,6.68-2.48a4.035,4.035,0,0,0,1.055-.762v-.039a6.4,6.4,0,0,0,1.816.9,6.941,6.941,0,0,0,2.09.313h7.93v.82ZM34.57-2.109v.859H20.43v-.82h8.086a6.624,6.624,0,0,0,2.031-.312,8.071,8.071,0,0,0,1.8-.82,3.989,3.989,0,0,0,1,.723A3.56,3.56,0,0,0,34.57-2.109ZM33.711-5.7a6.143,6.143,0,0,1-2.187,2.012,6.075,6.075,0,0,1-3.008.762H11.641a5.967,5.967,0,0,1-2.988-.762A6.55,6.55,0,0,1,6.445-5.7a20.953,20.953,0,0,1-2.3-4.8A22.933,22.933,0,0,1,3.047-15.82H7.07V-10.9H7.93V-15.82h29.18q-.039.391-.078.82a7.772,7.772,0,0,1-.117.82H20v.859H36.8l-.391,1.641H20v.859H36.133a18.037,18.037,0,0,1-1.055,2.734,20.751,20.751,0,0,1-1.406,2.461Zm4.3-11.367a.375.375,0,0,1-.117.273.422.422,0,0,1-.312.117H7.93V-18.32H37.578a.422.422,0,0,1,.313.117.375.375,0,0,1,.117.273ZM18.32-22.5a1.621,1.621,0,0,0,.488,1.191A1.621,1.621,0,0,0,20-20.82a1.621,1.621,0,0,0,1.191-.488A1.621,1.621,0,0,0,21.68-22.5a1.621,1.621,0,0,0-.488-1.191A1.621,1.621,0,0,0,20-24.18a1.621,1.621,0,0,0-1.191.488A1.621,1.621,0,0,0,18.32-22.5Zm2.5,0a.8.8,0,0,1-.234.586A.8.8,0,0,1,20-21.68a.8.8,0,0,1-.586-.234.8.8,0,0,1-.234-.586.8.8,0,0,1,.234-.586A.8.8,0,0,1,20-23.32a.8.8,0,0,1,.586.234A.8.8,0,0,1,20.82-22.5ZM30-22.852a1.621,1.621,0,0,0,1.191-.488,1.576,1.576,0,0,0,.488-1.152,1.621,1.621,0,0,0-.488-1.191A1.621,1.621,0,0,0,30-26.172a1.621,1.621,0,0,0-1.191.488,1.621,1.621,0,0,0-.488,1.191,1.576,1.576,0,0,0,.488,1.152A1.621,1.621,0,0,0,30-22.852Zm0-2.5a.764.764,0,0,1,.586.254.862.862,0,0,1,.234.605.8.8,0,0,1-.234.586.8.8,0,0,1-.586.234.8.8,0,0,1-.586-.234.8.8,0,0,1-.234-.586.862.862,0,0,1,.234-.605A.764.764,0,0,1,30-25.352ZM25-24.1a2.416,2.416,0,0,0,1.777-.723A2.416,2.416,0,0,0,27.5-26.6a2.435,2.435,0,0,0-.723-1.758A2.384,2.384,0,0,0,25-29.1a2.384,2.384,0,0,0-1.777.742A2.435,2.435,0,0,0,22.5-26.6a2.416,2.416,0,0,0,.723,1.777A2.416,2.416,0,0,0,25-24.1Zm0-4.141a1.621,1.621,0,0,1,1.191.488A1.576,1.576,0,0,1,26.68-26.6a1.621,1.621,0,0,1-.488,1.191A1.621,1.621,0,0,1,25-24.922a1.621,1.621,0,0,1-1.191-.488A1.621,1.621,0,0,1,23.32-26.6a1.576,1.576,0,0,1,.488-1.152A1.621,1.621,0,0,1,25-28.242Z" transform="translate(-0.078 39.004)" fill="#8e6941"/>
</svg>
