<svg id="Component_2_6" data-name="Component 2 – 6" xmlns="http://www.w3.org/2000/svg" width="40" height="40" viewBox="0 0 40 40">
  <rect id="Rectangle_27" data-name="Rectangle 27" width="40" height="40" fill="#8e6941" opacity="0"/>
  <path id="Path_66" data-name="Path 66" d="M408.945,922.328V926.3h-3.938a1,1,0,0,1-.977-.977V924.7H388.112v.618a.961.961,0,0,1-.277.683.884.884,0,0,1-.667.293H383.23v-8.073a1,1,0,0,1,.977-.977h.1v-4.882a11.642,11.642,0,0,1,.912-4.59,12.153,12.153,0,0,1,2.538-3.743,11.671,11.671,0,0,1,3.745-2.507,11.614,11.614,0,0,1,9.178,0,11.645,11.645,0,0,1,3.743,2.507,12.128,12.128,0,0,1,2.54,3.743,11.641,11.641,0,0,1,.912,4.59v4.882h.1a1,1,0,0,1,.977.977v4.1Zm-25-.683H408.23v-3.418a.267.267,0,0,0-.065-.2.272.272,0,0,0-.2-.065H384.207a.272.272,0,0,0-.2.065.267.267,0,0,0-.065.2Zm24.285.683H383.945v3.255h3.223a.268.268,0,0,0,.178-.065.233.233,0,0,0,.082-.2v-1.3h17.318v1.3a.265.265,0,0,0,.065.2.258.258,0,0,0,.2.065h3.223Zm-23.243-5.078h.847v-3.19a.969.969,0,0,1,.277-.683.888.888,0,0,1,.668-.293h.65c0-.15.005-.3.017-.455s.028-.293.048-.423l-2.507-.39v5.435Zm2.637-5.728v-.034a7.138,7.138,0,0,1,.342-1.155,9.627,9.627,0,0,1,.473-1.025l-2.507-1.433.032-.065a13.785,13.785,0,0,0-.57,1.58,9.986,9.986,0,0,0-.342,1.74Zm.618-7a11.264,11.264,0,0,0-1.09,1.268,9.993,9.993,0,0,0-.9,1.465l2.538,1.465.033-.032a6.1,6.1,0,0,1,.667-.912q.375-.423.8-.815Zm-1.463,9.277a.278.278,0,0,0-.18.065.24.24,0,0,0-.082.2v3.223h5.047v-1.335a1,1,0,0,1,.977-.977h2.44v-.912a.239.239,0,0,0-.08-.2.284.284,0,0,0-.18-.065Zm9.308-8.367a7.64,7.64,0,0,0-3.058.62,7.889,7.889,0,0,0-2.475,1.627,8.174,8.174,0,0,0-1.725,2.442,7.546,7.546,0,0,0-.717,2.962h6.608a.89.89,0,0,1,.668.293.969.969,0,0,1,.277.683v.912h.813v-.912a.969.969,0,0,1,.277-.683.884.884,0,0,1,.667-.293h6.642a7.546,7.546,0,0,0-.717-2.962,8.2,8.2,0,0,0-1.725-2.442,7.791,7.791,0,0,0-2.507-1.627A7.573,7.573,0,0,0,396.087,905.433Zm-4.427-3.222-.065.031a8.978,8.978,0,0,0-1.5.8,11.2,11.2,0,0,0-1.335,1.025l2.083,2.442-.033.033a7.451,7.451,0,0,1,.945-.635c.325-.185.683-.363,1.073-.538Zm.88,13.443a.289.289,0,0,0-.212.082.282.282,0,0,0-.082.212v1.335h7.65v-1.335a.288.288,0,0,0-.082-.212.254.254,0,0,0-.18-.082Zm3.222-14.355h-.032a11.854,11.854,0,0,0-1.775.195,9.891,9.891,0,0,0-1.643.457l1.172,3.19-.065.032a6.943,6.943,0,0,1,1.14-.293,10.82,10.82,0,0,1,1.2-.13Zm3.938.587.1.032a10.031,10.031,0,0,0-1.643-.44,12.6,12.6,0,0,0-1.71-.178v3.45a10.968,10.968,0,0,1,1.107.115,5.314,5.314,0,0,1,.977.243Zm5.925,12.173a.235.235,0,0,0-.082-.2.277.277,0,0,0-.178-.065h-7.943a.277.277,0,0,0-.178.065.24.24,0,0,0-.082.2v.912h2.473a.972.972,0,0,1,.685.277.923.923,0,0,1,.292.7v1.3h5.013Zm-6.445-8.723h.065a10.337,10.337,0,0,1,1.058.5,7.028,7.028,0,0,1,.927.6l2.083-2.473h.033a10.956,10.956,0,0,0-1.4-1.01,12.029,12.029,0,0,0-1.595-.813Zm6.705,1.823-.032-.065a10.919,10.919,0,0,0-.912-1.4,12.359,12.359,0,0,0-1.107-1.27l-2.052,2.442v.032a8.339,8.339,0,0,1,.815.8,7.039,7.039,0,0,1,.715.96Zm-2.213,2.083v-.033a10.989,10.989,0,0,1,.488,1.042,6.534,6.534,0,0,1,.358,1.205L407.09,911v-.065a10.252,10.252,0,0,0-.325-1.643,10.842,10.842,0,0,0-.553-1.513Zm3.517,8.007v-5.223a1.764,1.764,0,0,0-.033-.343l-2.507.457v-.065c.022.173.045.342.065.505a3.789,3.789,0,0,1,.033.5h.618a.885.885,0,0,1,.667.293.962.962,0,0,1,.277.683v3.19Z" transform="translate(-376.087 -893.441)" fill="#8e6941"/>
</svg>
