<svg id="Component_23_2" data-name="Component 23 – 2" xmlns="http://www.w3.org/2000/svg" width="88" height="88" viewBox="0 0 88 88">
  <rect id="Rectangle_5609" data-name="Rectangle 5609" width="88" height="88" fill="#8e6941" opacity="0"/>
  <path id="Path_19823" data-name="Path 19823" d="M83.43,32.753V21.174a3.07,3.07,0,0,0-2.995-2.995h-.3V3.206a35.662,35.662,0,0,0-2.8-14.075,37.254,37.254,0,0,0-7.786-11.48,35.862,35.862,0,0,0-11.48-7.686,35.664,35.664,0,0,0-28.15,0,35.862,35.862,0,0,0-11.48,7.686,37.254,37.254,0,0,0-7.786,11.48,35.662,35.662,0,0,0-2.8,14.075V18.179h-.3a2.873,2.873,0,0,0-2.1.9,2.873,2.873,0,0,0-.9,2.1V45.93H16.649a2.713,2.713,0,0,0,2.046-.9,2.957,2.957,0,0,0,.848-2.1v-1.9H68.357v1.9a3.07,3.07,0,0,0,2.995,2.995H83.43V32.753ZM75.344,18.179V8.4A2.957,2.957,0,0,0,74.5,6.3a2.713,2.713,0,0,0-2.046-.9h-1.9a11.7,11.7,0,0,0-.1-1.547q-.1-.749-.2-1.547v.2l7.686-1.4a5.336,5.336,0,0,1,.1,1.048V18.179ZM18.046.611,10.16-.587a30.35,30.35,0,0,1,1.048-5.34,41.5,41.5,0,0,1,1.747-4.841l-.1.2,7.686,4.392a30.185,30.185,0,0,0-1.447,3.144A22.047,22.047,0,0,0,18.046.511ZM44-18.056a23.169,23.169,0,0,1,9.283,1.9,23.944,23.944,0,0,1,7.686,4.991A25.023,25.023,0,0,1,66.26-3.682a23.09,23.09,0,0,1,2.2,9.084H48.093a2.713,2.713,0,0,0-2.046.9A2.957,2.957,0,0,0,45.2,8.4v2.8H42.7V8.4a2.957,2.957,0,0,0-.848-2.1,2.713,2.713,0,0,0-2.046-.9H19.544a23.09,23.09,0,0,1,2.2-9.084,25.023,25.023,0,0,1,5.291-7.487,24.241,24.241,0,0,1,7.586-4.991A23.414,23.414,0,0,1,44-18.056Zm9.483-.3,3.594-9.783a37.469,37.469,0,0,1,4.891,2.5,33.541,33.541,0,0,1,4.292,3.094h-.1l-6.389,7.586a22.024,22.024,0,0,0-2.845-1.847,32.384,32.384,0,0,0-3.244-1.547Zm-2-.7a16.427,16.427,0,0,0-2.995-.749q-1.6-.25-3.394-.349V-30.734a38.278,38.278,0,0,1,5.241.549,30.521,30.521,0,0,1,5.041,1.348l-.3-.1ZM43-20.152a33,33,0,0,0-3.693.4,20.7,20.7,0,0,0-3.494.9l.2-.1-3.594-9.783a30.361,30.361,0,0,1,5.041-1.4,36.29,36.29,0,0,1,5.44-.6H43Zm-8.984,1.9q-1.8.8-3.294,1.647a23.184,23.184,0,0,0-2.895,1.947l.1-.1L21.54-22.249a35.063,35.063,0,0,1,4.093-3.144,27.661,27.661,0,0,1,4.592-2.446l.2-.1ZM54.881,13.288a.763.763,0,0,1,.549.25.878.878,0,0,1,.25.649v4.093H32.221V14.186a.856.856,0,0,1,.9-.9Zm18.367,4.891H57.875V14.186a2.825,2.825,0,0,0-.9-2.146,2.957,2.957,0,0,0-2.1-.848H47.294V8.4a.721.721,0,0,1,.25-.6.859.859,0,0,1,.549-.2H72.449A.859.859,0,0,1,73,7.8a.721.721,0,0,1,.25.6ZM67.259-6.377l7.786-4.492a33.322,33.322,0,0,1,1.7,4.642,31.434,31.434,0,0,1,1,5.041v.2L69.854.411a19.968,19.968,0,0,0-1.1-3.693q-.7-1.7-1.5-3.194ZM39.807,7.6a.859.859,0,0,1,.549.2.721.721,0,0,1,.25.6h0v2.8H33.119a3.07,3.07,0,0,0-2.995,2.995v4.093H14.652V8.4a.721.721,0,0,1,.25-.6.859.859,0,0,1,.549-.2ZM74.046-12.766,66.16-8.174a21.856,21.856,0,0,0-2.2-2.945,24.63,24.63,0,0,0-2.5-2.446v-.1l6.289-7.487a38.446,38.446,0,0,1,3.394,3.893,33.76,33.76,0,0,1,2.8,4.292Zm-54.1-8.086,6.289,7.487a34.546,34.546,0,0,0-2.446,2.5,18.831,18.831,0,0,0-2.046,2.8l-.1.1-7.786-4.492A30.558,30.558,0,0,1,16.6-16.958,34.3,34.3,0,0,1,19.943-20.851ZM9.961,3.206v-1.7l7.686,1.2q-.1.6-.15,1.3t-.05,1.4h-2a2.713,2.713,0,0,0-2.046.9,2.957,2.957,0,0,0-.848,2.1v9.783h-2.6ZM6.766,21.174a.706.706,0,0,1,.8-.8h72.87a.706.706,0,0,1,.8.8V31.655H6.766Zm74.467,22.56H71.351a.706.706,0,0,1-.8-.8V38.942H17.447v3.993a.721.721,0,0,1-.25.6.859.859,0,0,1-.549.2H6.766V33.751H81.234Z" transform="translate(-0.57 37.93)" fill="#8e6941"/>
</svg>
