<svg id="Component_6_11" data-name="Component 6 – 11" xmlns="http://www.w3.org/2000/svg" width="88" height="88" viewBox="0 0 88 88">
  <rect id="Rectangle_26" data-name="Rectangle 26" width="88" height="88" transform="translate(0)" fill="#8e6941" opacity="0"/>
  <path id="Path_69" data-name="Path 69" d="M361.024,906.014h1.891v18a13.01,13.01,0,0,1-.344,2.887,3.376,3.376,0,0,1-1.719,2.28,1.278,1.278,0,0,0-.56.732,3.059,3.059,0,0,0-.216,1.076v7.75q0,3.187.344,8.182.344,4.907.776,9.558t.86,8.006c.229,2.24.344,3.39.344,3.443l.088,1.036H352.07l.084-1.036c0-.053.115-1.2.344-3.443q.436-3.439.86-8.094t.776-9.558q.344-4.993.344-8.094v-7.75a3.046,3.046,0,0,0-.211-1.076,1.316,1.316,0,0,0-.56-.732,3.394,3.394,0,0,1-1.724-2.28,13.01,13.01,0,0,1-.344-2.887v-18h1.9v18a12.089,12.089,0,0,0,.172,2.068,2.2,2.2,0,0,0,.943,1.552,2.862,2.862,0,0,1,1.208,1.419,4.832,4.832,0,0,1,.432,1.935v5.083h1.98v-5.083a4.824,4.824,0,0,1,.428-1.935,2.884,2.884,0,0,1,1.208-1.419,1.976,1.976,0,0,0,.948-1.508,13.379,13.379,0,0,0,.172-2.112Zm-.6,61.05q-.172-1.547-.516-5.167-.344-3.532-.732-7.75t-.648-8.35q-.258-4.219-.256-7.063v-.776h-1.98v.776q0,2.843-.26,6.975-.258,4.219-.648,8.4t-.732,7.79q-.337,3.617-.516,5.167Zm-4.047-61.05v15.933h1.808V906.014Zm51.06,3.1a29.838,29.838,0,0,1,16.1,16.1,30.051,30.051,0,0,1,0,23.59,29.866,29.866,0,0,1-16.1,16.1,30.048,30.048,0,0,1-23.59,0,29.891,29.891,0,0,1-16.1-16.1,30.049,30.049,0,0,1,0-23.59,29.864,29.864,0,0,1,16.1-16.1,30.051,30.051,0,0,1,23.59,0ZM367.91,930.557l.088-.172c-.229.917-.419,1.852-.56,2.8a19.47,19.47,0,0,0-.216,2.884h7.922c.057-.635.115-1.235.172-1.807a13.045,13.045,0,0,1,.26-1.636Zm-.688,7.4a19.567,19.567,0,0,0,.216,2.887c.141.948.3,1.821.472,2.623l7.666-2.063.084.172a9.142,9.142,0,0,1-.344-1.768q-.086-.9-.172-1.851Zm3.359-14.377v-.171q-.6,1.2-1.164,2.539a27.032,27.032,0,0,0-.992,2.8l7.666,2.063v-.084c.225-.573.441-1.133.644-1.679a8.387,8.387,0,0,1,.732-1.508Zm-2.156,21.7v.172a23.878,23.878,0,0,0,.992,2.623c.375.833.763,1.627,1.164,2.372l6.886-3.964v.088c-.229-.52-.459-1.049-.688-1.6s-.463-1.133-.688-1.763Zm6.458-27.725a21.108,21.108,0,0,0-1.807,2.063,25.334,25.334,0,0,0-1.635,2.412l6.891,3.964.084-.089a14.094,14.094,0,0,1,.992-1.375c.375-.463.732-.917,1.076-1.38Zm-3.443,34.528.088.084c.516.745,1.045,1.495,1.592,2.24a18.223,18.223,0,0,0,1.763,2.068l5.6-5.6h.084q-.6-.688-1.16-1.375c-.375-.463-.732-.948-1.076-1.464Zm9.214-39.267-.172.088c-.745.516-1.495,1.044-2.24,1.591a17.841,17.841,0,0,0-2.067,1.768l5.6,5.595v.088q.688-.6,1.376-1.164c.463-.375.948-.732,1.464-1.076Zm-4.479,44.95a21.649,21.649,0,0,0,2.067,1.807,25.335,25.335,0,0,0,2.412,1.636l3.959-6.891-.084-.084a14.117,14.117,0,0,1-1.38-.992q-.688-.562-1.376-1.076Zm38.147-20.751a17.938,17.938,0,0,0-1.464-7.234,18.564,18.564,0,0,0-9.99-9.99,18.6,18.6,0,0,0-14.465,0,18.526,18.526,0,0,0-9.99,9.99,18.6,18.6,0,0,0,0,14.465,18.488,18.488,0,0,0,9.99,9.99,18.6,18.6,0,0,0,14.465,0,18.526,18.526,0,0,0,9.99-9.99A17.916,17.916,0,0,0,414.324,937.016ZM382.2,962.07h-.172q1.3.6,2.584,1.164a24.545,24.545,0,0,0,2.755.992l2.068-7.667h-.084c-.573-.229-1.133-.441-1.68-.643a8.261,8.261,0,0,1-1.508-.732Zm5.167-52.264H387.2a23.084,23.084,0,0,0-2.623.988c-.833.374-1.627.763-2.372,1.164l3.963,6.891h-.088c.52-.229,1.049-.463,1.6-.692s1.133-.459,1.763-.688Zm1.808,54.936h-.172q1.375.257,2.8.472c.948.141,1.909.246,2.883.3v-8.006a12.453,12.453,0,0,1-1.807-.128c-.573-.088-1.12-.185-1.636-.3Zm5.511-56.144a19.543,19.543,0,0,0-2.883.216c-.948.141-1.821.3-2.627.476l2.067,7.662-.172.084a9.174,9.174,0,0,1,1.768-.344c.6-.052,1.217-.114,1.847-.172Zm7.406.693.172.083c-.917-.229-1.852-.419-2.8-.56a19.448,19.448,0,0,0-2.883-.216v7.922c.635.057,1.234.12,1.807.172a14,14,0,0,1,1.636.26Zm-5.511,56.222c.979-.053,1.94-.141,2.883-.256a17.579,17.579,0,0,0,2.628-.515l-2.068-7.667.172-.084a12.161,12.161,0,0,1-1.763.388,13.362,13.362,0,0,1-1.852.128Zm12.485-53.555h.172q-1.2-.6-2.54-1.164a26.128,26.128,0,0,0-2.8-.988l-2.063,7.662h.172c.516.229,1.045.445,1.591.648a7.821,7.821,0,0,1,1.508.732ZM403.9,964.309l.172-.083c.917-.291,1.8-.6,2.628-.948a25.6,25.6,0,0,0,2.368-1.12l-3.959-6.975h.084a16.089,16.089,0,0,1-1.592.776,15.02,15.02,0,0,1-1.763.6ZM415.1,916.264a20.658,20.658,0,0,0-2.063-1.812,27.125,27.125,0,0,0-2.411-1.635l-3.963,6.891.088.084a8.565,8.565,0,0,1,1.419.992c.432.375.873.732,1.336,1.076ZM410.7,961.21l.088-.088c.745-.516,1.495-1.045,2.24-1.591a17.789,17.789,0,0,0,2.063-1.763l-5.595-5.6c-.463.344-.917.7-1.38,1.076a17.876,17.876,0,0,1-1.464,1.076Zm9.13-39.179-.088-.172c-.516-.745-1.045-1.495-1.591-2.24a17.375,17.375,0,0,0-1.768-2.063l-5.595,5.682v-.088c.344.463.7.917,1.076,1.38a17.789,17.789,0,0,1,1.076,1.464Zm-3.448,34.444a21.16,21.16,0,0,0,1.812-2.068q.853-1.117,1.636-2.323l-6.891-4.047-.084.084a8.4,8.4,0,0,1-.992,1.419c-.375.432-.732.878-1.076,1.336Zm6.547-27.726-.088-.172c-.286-.917-.6-1.8-.948-2.627a25.6,25.6,0,0,0-1.12-2.368l-6.974,3.959v-.083a15.153,15.153,0,0,1,.776,1.591,14.248,14.248,0,0,1,.6,1.764Zm-2.156,21.7-.084.172c.4-.807.789-1.649,1.164-2.544s.732-1.821,1.076-2.8l-7.75-2.068v.172c-.172.516-.375,1.045-.6,1.592a10.094,10.094,0,0,1-.776,1.508Zm3.359-14.381q-.086-1.468-.256-2.884a17.538,17.538,0,0,0-.52-2.628l-7.662,2.068-.084-.176a11.8,11.8,0,0,1,.383,1.768,13.421,13.421,0,0,1,.132,1.935Zm-.776,7.4v.26c.172-.917.335-1.865.476-2.839s.242-1.953.3-2.932h-8.006a11.944,11.944,0,0,1-.132,1.812c-.084.573-.185,1.12-.3,1.635Zm6.2,21.787q.258-2.585.56-6.719t.56-9.381q.258-5.171.256-10.422v-5.079a3.528,3.528,0,0,1-1.807-1.247,3.363,3.363,0,0,1-.688-2.112V907.478a4.568,4.568,0,0,1,1.375-3.355,4.476,4.476,0,0,1,3.271-1.38,4.712,4.712,0,0,1,4.739,4.735v31.257q0,5.25.256,10.422t.56,9.342c.2,2.786.388,5.035.56,6.758s.26,2.615.26,2.667l.172,1.036H429.132l.172-1.036Q429.3,967.845,429.564,965.257Zm.688-34.96a1.611,1.611,0,0,0,1.636,1.635h.948v4.135h3.183v-28.59a2.686,2.686,0,0,0-.86-2.024,2.883,2.883,0,0,0-2.068-.815,2.783,2.783,0,0,0-1.979.815,2.686,2.686,0,0,0-.86,2.024V930.3Zm2.584,8.438q0,4.477-.26,8.958-.172,4.47-.428,8.35t-.52,6.8q-.258,2.844-.428,4.219h6.371q-.172-1.375-.432-4.307-.258-2.837-.516-6.715t-.427-8.35q-.178-4.477-.176-8.958v-.776h-3.183Z" transform="translate(-351.638 -891.853)" fill="#8e6941"/>
</svg>
