<svg id="Component_36_2" data-name="Component 36 – 2" xmlns="http://www.w3.org/2000/svg" width="40" height="40" viewBox="0 0 40 40">
  <rect id="Rectangle_5662" data-name="Rectangle 5662" width="40" height="40" fill="#8e6941" opacity="0"/>
  <g id="Group_18567" data-name="Group 18567" transform="translate(-563.599 -713.303)">
    <path id="Path_19922" data-name="Path 19922" d="M600.278,749.874H603.6v.859h-40v-.859H567v-3.165h-.82a2.431,2.431,0,0,1-1.758-.722,2.383,2.383,0,0,1-.742-1.778,2.471,2.471,0,0,1,.273-1.152,2.217,2.217,0,0,1,.743-.84l-.586-9.648v-.117a1.572,1.572,0,0,1,.117-.625,2.028,2.028,0,0,1,.312-.508,1.87,1.87,0,0,1,.528-.371,1.505,1.505,0,0,1,.644-.137h.781a8.381,8.381,0,0,1,1.6-.566,17.148,17.148,0,0,1,4.258-.371,19.509,19.509,0,0,1,4.59.39,13.944,13.944,0,0,1,1.777.547,7.816,7.816,0,0,1,1.641-.6,16,16,0,0,1,6.484,0,7.86,7.86,0,0,1,1.641.6,13.827,13.827,0,0,1,1.777-.547,19.5,19.5,0,0,1,4.59-.39,17.634,17.634,0,0,1,4.316.371,10.089,10.089,0,0,1,1.66.566h.743a1.505,1.505,0,0,1,.644.137,1.866,1.866,0,0,1,.527.371,2.06,2.06,0,0,1,.313.508,1.572,1.572,0,0,1,.117.625v.117l-.586,9.648a2.215,2.215,0,0,1,.742.84,2.472,2.472,0,0,1,.274,1.152,2.387,2.387,0,0,1-.742,1.778,2.436,2.436,0,0,1-1.758.722h-.821Zm-34.1-7.305a1.621,1.621,0,0,0-1.191.488,1.572,1.572,0,0,0-.489,1.152.113.113,0,0,0,.039.079h38.242v-.079a1.579,1.579,0,0,0-.488-1.152,1.622,1.622,0,0,0-1.191-.488Zm0,3.32H601.1a1.568,1.568,0,0,0,.8-.215,1.966,1.966,0,0,0,.6-.527h-37.7a1.66,1.66,0,0,0,1.367.742Zm-.664-4.18h1.094a21.7,21.7,0,0,0,.781-2.05,11.734,11.734,0,0,0,.547-3.809,8.981,8.981,0,0,0-.274-2.5,6.674,6.674,0,0,0-.547-1.367.6.6,0,0,0-.253-.254.772.772,0,0,0-.372-.1h-.781a.593.593,0,0,0-.293.078,1.218,1.218,0,0,0-.254.2.476.476,0,0,0-.175.234.871.871,0,0,0-.059.313v.039Zm2.578-1.484-.039.117q-.117.353-.254.723a4.3,4.3,0,0,1-.293.644h10.664v-1.132a10.865,10.865,0,0,0-1.973-.508,21.39,21.39,0,0,0-3.847-.274,20.562,20.562,0,0,0-2.7.137A14.141,14.141,0,0,0,568.091,740.225Zm4.258-9.492a22.5,22.5,0,0,0-2.774.137q-1.055.137-1.64.254a.727.727,0,0,1-.176.058.741.741,0,0,0-.176.059.611.611,0,0,0,.117.156.661.661,0,0,1,.118.156,6.984,6.984,0,0,1,.625,1.524,9.8,9.8,0,0,1,.312,2.773v0a16.48,16.48,0,0,1-.1,1.817,12.613,12.613,0,0,1-.293,1.66,10.25,10.25,0,0,1,1.543-.254q.957-.1,2.442-.1a24.183,24.183,0,0,1,3.789.234,12.094,12.094,0,0,1,2.031.469v-8.2l.078.039c-.182-.078-.371-.149-.566-.215a3.226,3.226,0,0,0-.606-.136,17.176,17.176,0,0,0-1.816-.293A25.5,25.5,0,0,0,572.349,730.733Zm-4.492,15.976v2.852l.7-2.852Zm.781,3.165h30l-.781-3.165H569.419Zm14.961-22.5a2,2,0,0,1-1.309-.469,2.059,2.059,0,0,1-.722-1.172h-3.4v-.43a5.382,5.382,0,0,1,5-5.39V715.3h.859v4.61a5.382,5.382,0,0,1,5,5.39v.43h-3.4a2.07,2.07,0,0,1-.723,1.172A2,2,0,0,1,583.6,727.374Zm0-6.641a4.459,4.459,0,0,0-3.106,1.191,4.383,4.383,0,0,0-1.465,2.95h.86a3.737,3.737,0,0,1,6.211-2.364,3.814,3.814,0,0,1,1.25,2.364h.82a4.387,4.387,0,0,0-1.465-2.95A4.46,4.46,0,0,0,583.6,720.733Zm3.183,10.332a15.428,15.428,0,0,0-6.367,0,7.25,7.25,0,0,0-1.387.527v8.047a8.01,8.01,0,0,1,1.758-.469,20.379,20.379,0,0,1,5.625,0,8.042,8.042,0,0,1,1.758.469v-8.047A7.308,7.308,0,0,0,586.782,731.065Zm-7.754,10.644h9.141v-1.171a6.749,6.749,0,0,0-1.562-.489,17.936,17.936,0,0,0-6.016,0,6.728,6.728,0,0,0-1.563.489Zm4.571-18.476a1.99,1.99,0,0,1,1.308.469,2.067,2.067,0,0,1,.723,1.172h.859a2.865,2.865,0,0,0-.976-1.778,2.9,2.9,0,0,0-3.828,0,2.866,2.866,0,0,0-.977,1.778h.86a2.055,2.055,0,0,1,.722-1.172A1.99,1.99,0,0,1,583.6,723.233Zm0,.82a1.222,1.222,0,0,0-.723.235,1.148,1.148,0,0,0-.449.586h2.344a1.156,1.156,0,0,0-.45-.586A1.221,1.221,0,0,0,583.6,724.053Zm0,2.5a1.227,1.227,0,0,0,.722-.234,1.16,1.16,0,0,0,.45-.586h-2.344a1.153,1.153,0,0,0,.449.586A1.228,1.228,0,0,0,583.6,726.553Zm11.25,4.18a25.476,25.476,0,0,0-2.91.137,17.156,17.156,0,0,0-1.817.293h-.039l-.547.156c-.182.053-.351.1-.508.156v8.2a18.945,18.945,0,0,1,2.032-.449,22.329,22.329,0,0,1,3.789-.254q1.484,0,2.441.1a14.564,14.564,0,0,1,1.66.254v.117q-.2-.858-.312-1.758a14.205,14.205,0,0,1-.117-1.836,9.763,9.763,0,0,1,.312-2.773,6.888,6.888,0,0,1,.625-1.524,1.083,1.083,0,0,1,.1-.156,1.362,1.362,0,0,1,.137-.156.773.773,0,0,0-.176-.059,1.749,1.749,0,0,1-.215-.058q-.586-.119-1.66-.254A23.023,23.023,0,0,0,594.849,730.733Zm-5.821,10.976h10.743l.039.079a5.057,5.057,0,0,1-.332-.723q-.138-.371-.293-.84-.7-.154-1.68-.293a20.176,20.176,0,0,0-2.656-.137,21.387,21.387,0,0,0-3.848.274,10.864,10.864,0,0,0-1.973.508Zm10.391,5h-.7l.7,2.852Zm2.7-14.8a.6.6,0,0,0-.234-.2.709.709,0,0,0-.312-.078h-.743a.73.73,0,0,0-.39.1,1,1,0,0,0-.274.254,6.674,6.674,0,0,0-.547,1.367,8.987,8.987,0,0,0-.273,2.5,11.707,11.707,0,0,0,.547,3.809,21.418,21.418,0,0,0,.781,2.05h1.094l.586-9.218v-.039a.894.894,0,0,0-.059-.313A.472.472,0,0,0,602.114,731.905Z" fill="#8e6941"/>
  </g>
</svg>
