<svg id="Component_33_3" data-name="Component 33 – 3" xmlns="http://www.w3.org/2000/svg" width="88" height="88" viewBox="0 0 88 88">
  <rect id="Rectangle_5646" data-name="Rectangle 5646" width="88" height="88" fill="#8e6941" opacity="0"/>
  <path id="Path_19870" data-name="Path 19870" d="M536.244,1258.918v16.157H468.353v-16.157h1.891v8.766h2.147l-2.062-27.155.516-.258a.177.177,0,0,1,.043-.129.176.176,0,0,0,.043-.128,2.106,2.106,0,0,1,.3-1.16,2.019,2.019,0,0,1,.816-.731l.258-.172a.141.141,0,0,0,.13-.085.387.387,0,0,0,.043-.172v-2.062l4.468-4.9-1.2-7.563h7.647l-1.288,7.649,4.554,4.813v2.062a.37.37,0,0,0,.043.172.138.138,0,0,0,.13.085l.172.172h.086a2.028,2.028,0,0,1,.817.731,2.118,2.118,0,0,1,.3,1.16.171.171,0,0,0,.043.128.183.183,0,0,1,.043.129l.516.258-.172,1.546h1.375v-1.891a5.01,5.01,0,0,1,1.074-3.178,5.435,5.435,0,0,1,2.794-1.891v-8.681a2.23,2.23,0,0,1,.687-1.633,2.333,2.333,0,0,1,1.719-.687h2.492a2.336,2.336,0,0,1,1.72.687,2.235,2.235,0,0,1,.687,1.633v8.681h.086a5.463,5.463,0,0,1,2.707,1.891,5.016,5.016,0,0,1,1.074,3.178v1.891h3.094v8.766a3.762,3.762,0,0,1-.816,2.406,3.924,3.924,0,0,1-2.192,1.375l-.429,3.351h8.766l-1.289-18.133,6.617-2.835v-10.313l.43-.258a6.715,6.715,0,0,1,1.074-.471,8.926,8.926,0,0,1,3.051-.387,9.331,9.331,0,0,1,3.093.387,6.972,6.972,0,0,1,1.117.471l.43.258v10.4l6.272,2.75-1.976,27.843h2.063v-8.766Zm-1.891,14.266v-3.609H470.244v3.609Zm-60.071-5.5h5.071v-4.726a4.725,4.725,0,0,1,1.117-3.136,4.787,4.787,0,0,1,2.75-1.676l-2.492-16.071h6.1v-.687a2.64,2.64,0,0,1-.3-.646,2.288,2.288,0,0,1-.13-.729.378.378,0,0,0-.043-.172.14.14,0,0,0-.128-.085l-.172-.172h-.086a2.018,2.018,0,0,1-.816-.73,1.945,1.945,0,0,1-.3-1.074v-1.462l-1.375-1.461h-7.821l-1.375,1.461v1.462a1.782,1.782,0,0,1-.344,1.074,2.347,2.347,0,0,1-.859.73l-.172.172a.137.137,0,0,0-.128.085.362.362,0,0,0-.043.172,2.322,2.322,0,0,1-.13.729,1.626,1.626,0,0,1-.386.646Zm3.095-34.633h4.382l-1.375-1.46h-1.718Zm.515-8.077.774,4.813h1.718l.86-4.813Zm5.587,34.976a2.991,2.991,0,0,0-1.59,1.074,3.028,3.028,0,0,0-.644,1.934v4.726h3.522Zm19.335-1.976.516-3.266H499.2a3.816,3.816,0,0,1-3.867-3.867v-6.96H482.877l2.147,14.093Zm-1.289,9.71,1.032-7.819H485.369l1.2,7.819Zm-9.711-25.609h11.43v-1.891a3.3,3.3,0,0,0-1.032-2.405,3.394,3.394,0,0,0-2.492-1.031h-4.383a3.39,3.39,0,0,0-2.492,1.031,3.3,3.3,0,0,0-1.032,2.405Zm4.469-16.157a.58.58,0,0,0-.429.173.493.493,0,0,0-.172.343v1.117h3.7v-1.117a.5.5,0,0,0-.172-.343.585.585,0,0,0-.43-.173Zm3.095,3.438h-3.7v1.891h3.7Zm-3.7,5.5h3.7v-1.805h-3.7Zm10.656,9.024h-9.2v1.46h9.2Zm-2.063,9.023a2.056,2.056,0,0,0,2.063-2.063v-3.695h-9.2v3.695a2.058,2.058,0,0,0,2.063,2.063Zm.172,6.961-1.117,7.819h10.828l-.6-7.819Zm10.828-1.891h4.984a4.988,4.988,0,0,1,4.985,4.984v4.726H530.4l1.891-26.726-5.413-2.407h-6.962l-5.844,2.407Zm8.079,4.984a3.082,3.082,0,0,0-3.095-3.094h-4.812l.516,7.819h7.391Zm0-35.578h-.172a10.224,10.224,0,0,0-1.332.085,4.775,4.775,0,0,0-1.245.343v1.548h5.5v-1.548h.085a4.785,4.785,0,0,0-1.247-.343,10.2,10.2,0,0,0-1.331-.085h-.258Zm2.75,3.867h-5.5v1.8h5.5Zm-5.5,5.5h5.5v-1.891h-5.5Z" transform="translate(-458.298 -1205.121)" fill="#8e6941"/>
</svg>
