<svg id="Component_32_4" data-name="Component 32 – 4" xmlns="http://www.w3.org/2000/svg" width="88" height="88" viewBox="0 0 88 88">
  <rect id="Rectangle_5647" data-name="Rectangle 5647" width="88" height="88" fill="#dab68e" opacity="0"/>
  <path id="Path_19872" data-name="Path 19872" d="M21.9-7.937a17.534,17.534,0,0,0,11.516-4.125,17.755,17.755,0,0,0,6.273-10.312v-.086l.258-.945H32.727a3.733,3.733,0,0,0-1.375-2.277,3.985,3.985,0,0,0-2.578-.9,3.817,3.817,0,0,0-2.535.9,3.807,3.807,0,0,0-1.332,2.277H3.938l.172.945a17.788,17.788,0,0,0,6.273,10.4A17.534,17.534,0,0,0,21.9-7.937Zm6.875-17.187a2.4,2.4,0,0,1,1.762.73,2.4,2.4,0,0,1,.73,1.762,2.4,2.4,0,0,1-.73,1.762,2.4,2.4,0,0,1-1.762.73,2.4,2.4,0,0,1-1.762-.73,2.4,2.4,0,0,1-.73-1.762,2.4,2.4,0,0,1,.73-1.762A2.4,2.4,0,0,1,28.773-25.125Zm-3.867,3.266a3.807,3.807,0,0,0,1.332,2.277,3.817,3.817,0,0,0,2.535.9,3.817,3.817,0,0,0,2.535-.9,4.245,4.245,0,0,0,1.418-2.277h5.328a16.428,16.428,0,0,1-5.93,8.895A16.19,16.19,0,0,1,21.9-9.484a16.168,16.168,0,0,1-9.41-2.879,16.156,16.156,0,0,1-5.973-7.348l-.086-.172a.291.291,0,0,1-.086-.215v-.3a1.406,1.406,0,0,1,.43-1.031,1.406,1.406,0,0,1,1.031-.43Zm-9.281,9.367a3.807,3.807,0,0,0,2.793-1.16,3.807,3.807,0,0,0,1.16-2.793,3.909,3.909,0,0,0-1.16-2.879,3.807,3.807,0,0,0-2.793-1.16,3.807,3.807,0,0,0-2.793,1.16,3.909,3.909,0,0,0-1.16,2.879,3.807,3.807,0,0,0,1.16,2.793A3.807,3.807,0,0,0,15.625-12.492Zm0-6.445a2.4,2.4,0,0,1,1.762.73,2.4,2.4,0,0,1,.73,1.762,2.262,2.262,0,0,1-.73,1.719,2.478,2.478,0,0,1-1.762.688,2.478,2.478,0,0,1-1.762-.687,2.262,2.262,0,0,1-.73-1.719,2.4,2.4,0,0,1,.73-1.762A2.4,2.4,0,0,1,15.625-18.937Zm9.883,8.508A3.807,3.807,0,0,0,28.3-11.59a3.807,3.807,0,0,0,1.16-2.793,3.951,3.951,0,0,0-1.16-2.836,3.74,3.74,0,0,0-2.793-1.2,3.74,3.74,0,0,0-2.793,1.2,3.951,3.951,0,0,0-1.16,2.836,3.807,3.807,0,0,0,1.16,2.793A3.807,3.807,0,0,0,25.508-10.43Zm0-6.445a2.4,2.4,0,0,1,1.762.73A2.4,2.4,0,0,1,28-14.383a2.4,2.4,0,0,1-.73,1.762,2.4,2.4,0,0,1-1.762.73,2.4,2.4,0,0,1-1.762-.73,2.4,2.4,0,0,1-.73-1.762,2.4,2.4,0,0,1,.73-1.762A2.4,2.4,0,0,1,25.508-16.875ZM18.461-29.508a3.74,3.74,0,0,0,2.793-1.2,3.951,3.951,0,0,0,1.16-2.836,3.807,3.807,0,0,0-1.16-2.793,3.807,3.807,0,0,0-2.793-1.16,3.909,3.909,0,0,0-2.879,1.16,3.807,3.807,0,0,0-1.16,2.793,3.951,3.951,0,0,0,1.16,2.836A3.838,3.838,0,0,0,18.461-29.508Zm0-6.531a2.262,2.262,0,0,1,1.719.73,2.478,2.478,0,0,1,.688,1.762,2.4,2.4,0,0,1-.73,1.762,2.3,2.3,0,0,1-1.676.73,2.4,2.4,0,0,1-1.762-.73,2.4,2.4,0,0,1-.73-1.762,2.4,2.4,0,0,1,.73-1.762A2.4,2.4,0,0,1,18.461-36.039ZM70.539-22.8a3.807,3.807,0,0,0,2.793-1.16,3.807,3.807,0,0,0,1.16-2.793,3.807,3.807,0,0,0-1.16-2.793,3.807,3.807,0,0,0-2.793-1.16,3.807,3.807,0,0,0-2.793,1.16,3.807,3.807,0,0,0-1.16,2.793,3.807,3.807,0,0,0,1.16,2.793,3.807,3.807,0,0,0,2.793,1.16Zm0-6.445a2.4,2.4,0,0,1,1.762.73,2.4,2.4,0,0,1,.73,1.762A2.4,2.4,0,0,1,72.3-25a2.4,2.4,0,0,1-1.762.73A2.4,2.4,0,0,1,68.777-25a2.4,2.4,0,0,1-.73-1.762,2.4,2.4,0,0,1,.73-1.762A2.4,2.4,0,0,1,70.539-29.25ZM59.367-26.844A3.951,3.951,0,0,0,62.2-28a3.74,3.74,0,0,0,1.2-2.793,3.838,3.838,0,0,0-1.2-2.879,3.951,3.951,0,0,0-2.836-1.16,3.807,3.807,0,0,0-2.793,1.16,3.909,3.909,0,0,0-1.16,2.879h0A3.807,3.807,0,0,0,56.574-28,3.807,3.807,0,0,0,59.367-26.844Zm0-6.445a2.4,2.4,0,0,1,1.762.73,2.4,2.4,0,0,1,.73,1.762,2.262,2.262,0,0,1-.73,1.719,2.478,2.478,0,0,1-1.762.688,2.332,2.332,0,0,1-1.719-.687,2.332,2.332,0,0,1-.687-1.719h0a2.478,2.478,0,0,1,.688-1.762A2.262,2.262,0,0,1,59.367-33.289Zm21.141,6.445A3.951,3.951,0,0,0,83.344-28a3.74,3.74,0,0,0,1.2-2.793,3.838,3.838,0,0,0-1.2-2.879,3.951,3.951,0,0,0-2.836-1.16,3.807,3.807,0,0,0-2.793,1.16,3.909,3.909,0,0,0-1.16,2.879A3.807,3.807,0,0,0,77.715-28,3.807,3.807,0,0,0,80.508-26.844Zm0-6.445h0a2.4,2.4,0,0,1,1.762.73A2.4,2.4,0,0,1,83-30.8a2.262,2.262,0,0,1-.73,1.719,2.478,2.478,0,0,1-1.762.688,2.478,2.478,0,0,1-1.762-.687,2.262,2.262,0,0,1-.73-1.719h0a2.4,2.4,0,0,1,.73-1.762A2.4,2.4,0,0,1,80.508-33.289Zm6.1,7.563q-.258,0-4.641.816A24.5,24.5,0,0,0,72.945-21a2.451,2.451,0,0,1-.773.387,3.28,3.28,0,0,1-.945.129,3.755,3.755,0,0,1-.816-.086,3.158,3.158,0,0,1-.73-.258h.086a31.183,31.183,0,0,0-11.645-4.254q-5.371-.645-5.629-.645h-.773v.773A17.467,17.467,0,0,0,55.93-13.609a17.46,17.46,0,0,0,10.227,6.1l.172.086a1.866,1.866,0,0,1,1.289.73,2.219,2.219,0,0,1,.516,1.418,1.808,1.808,0,0,1-.043.43,1.412,1.412,0,0,0-.043.344A16.122,16.122,0,0,1,63.32,2.031a64.343,64.343,0,0,1-7.906,5.844,4.81,4.81,0,0,0,.344-1.16q.086-.559.172-1.246V3.234a19.27,19.27,0,0,0-.773-4.984A16.635,16.635,0,0,0,52.32-7.336a11.186,11.186,0,0,0-6.1-4.125l-.859-.258-.086.859q0,.086.387,5.844t6.574,9.8a2.722,2.722,0,0,1,1.332,2.105,2.706,2.706,0,0,1-.816,2.277,7.587,7.587,0,0,1-.9.773,7,7,0,0,1-.988.6v.086q-.859.43-1.676.9t-1.676.988q-1.289.687-2.535,1.418t-2.449,1.5A84.571,84.571,0,0,1,30.277,8.563a16.634,16.634,0,0,1-7.09-9.539.853.853,0,0,1-.086-.387V-1.75a2.963,2.963,0,0,1,.73-1.977,2.888,2.888,0,0,1,1.762-1.031,22.65,22.65,0,0,0,7.219-2.578,22.99,22.99,0,0,0,5.672-4.812,21.956,21.956,0,0,0,3.781-6.445,20.618,20.618,0,0,0,1.375-7.562v-.6H42.094v.258a21.076,21.076,0,0,1-1.461,7.82,21.12,21.12,0,0,1-4.211,6.488A21.142,21.142,0,0,1,30.148-7.68a19.553,19.553,0,0,1-7.734,1.719H21.9a19.642,19.642,0,0,1-7.82-1.547,19.858,19.858,0,0,1-6.445-4.3A21.051,21.051,0,0,1,3.25-18.25,20.266,20.266,0,0,1,1.7-26.156v-.6H.156v.6A20.9,20.9,0,0,0,1.7-18.164,22.387,22.387,0,0,0,5.871-11.5,21.473,21.473,0,0,0,12.016-6.82,21.261,21.261,0,0,0,19.75-4.5h.086a1.314,1.314,0,0,1,.945.43,1.731,1.731,0,0,1,.516.945v.086a14.838,14.838,0,0,0,2.148,6.445,23.7,23.7,0,0,0,4.469,5.156,34.731,34.731,0,0,0,6.1,4.211q3.352,1.891,6.961,3.523a77.346,77.346,0,0,0-7.219,4.941,24.958,24.958,0,0,0-5.242,5.371q-.258.43-.516.816t-.516.816a3.2,3.2,0,0,0,.086-.773v-.859q0-.688-.043-1.332T27.4,24.031v.086q0-.344-.9-5.715A25.5,25.5,0,0,0,22.414,8.3a21.121,21.121,0,0,0-7.262-6.961Q11.07-.891,10.9-.977l-1.117-.43L9.867-.2q0,.172.43,2.32a26.172,26.172,0,0,0,1.891,5.5,48.455,48.455,0,0,0,4.211,7.3,41.18,41.18,0,0,0,7.648,7.992,4.606,4.606,0,0,1,1.461,1.762,5.39,5.39,0,0,1,.516,2.363V27.3a25.515,25.515,0,0,1-.387,3.352,17.5,17.5,0,0,1-.9,3.18l.086-.172a33.673,33.673,0,0,0-2.836,11.516q-.172,5.07-.172,5.328h1.547a14.059,14.059,0,0,1,.945-4.168,18.019,18.019,0,0,1,1.977-3.652v.086a5.475,5.475,0,0,1,1.762-1.676,6.111,6.111,0,0,1,2.363-.816q12.375-1.719,16.371-7.3t4.082-5.93l.344-.945-.945-.086a20.345,20.345,0,0,0-10.141,1.2,24.838,24.838,0,0,0-6.961,4.3,22.646,22.646,0,0,0-4.211,4.9l-1.719,3.008A17.31,17.31,0,0,0,23.7,43.969v.086a49.888,49.888,0,0,1,1.762-7.691,33.066,33.066,0,0,1,4.34-8.895,22.563,22.563,0,0,1,5.328-5.414,84.707,84.707,0,0,1,7.477-4.984q1.031.516,2.063.945l2.063.859q4.3,1.891,8.121,3.7a37.519,37.519,0,0,1,6.66,3.953,17.12,17.12,0,0,1,5.2,6.445,16.3,16.3,0,0,1,1.676,6.617A8.952,8.952,0,0,1,65.6,46.2a9.482,9.482,0,0,1-6.66,2.836V50.5H79.3V49.039a9.482,9.482,0,0,1-6.66-2.836,8.952,8.952,0,0,1-2.793-6.617h0a19.266,19.266,0,0,0-1.633-7.047,17.434,17.434,0,0,0-5.758-7.219,37.249,37.249,0,0,0-6.875-4.082q-3.953-1.848-8.25-3.738-1.547-.688-3.18-1.375,1.031-.6,2.063-1.16t2.063-1.16q.773-.43,1.59-.9t1.676-.988q2.32-1.375,4.555-2.75t4.211-2.75a9.075,9.075,0,0,1,1.676-1.031A11.059,11.059,0,0,1,63.836,4.7h.086a.763.763,0,0,1,.344-.086h.43a2.67,2.67,0,0,1,1.2.3,1.836,1.836,0,0,1,.859.816h.086a10,10,0,0,0,1.848,2.191,9.724,9.724,0,0,0,3.48,1.934,15.145,15.145,0,0,0,2.535.73,11.657,11.657,0,0,0,2.105.215,5.818,5.818,0,0,0,3.48-.816,8.128,8.128,0,0,1,1.16-.816l.344-.516-.344-.43a12.417,12.417,0,0,0-7.562-5.07,20.334,20.334,0,0,0-9.453-.172,22.372,22.372,0,0,0,3.609-4.211,12.432,12.432,0,0,0,1.891-4.727,1.432,1.432,0,0,1,.473-.859,1.769,1.769,0,0,1,.9-.43,18.124,18.124,0,0,0,6.359-1.8,19.1,19.1,0,0,0,5.113-3.91,17.01,17.01,0,0,0,3.395-5.457,16.812,16.812,0,0,0,1.289-6.531v-.859ZM11.586,1A49.058,49.058,0,0,1,16.1,3.836a19.393,19.393,0,0,1,5.113,5.328A24.6,24.6,0,0,1,24.3,16.125a55.12,55.12,0,0,1,1.375,6.1q-7.82-6.187-10.656-12.418A56.469,56.469,0,0,1,11.586,1ZM47.594,27.383h.73a3,3,0,0,1,.73.086,23.454,23.454,0,0,1-1.676,2.578,13.091,13.091,0,0,1-2.02,2.148v.086a30.823,30.823,0,0,1-6.016,3.91A28.86,28.86,0,0,1,29.2,38.9a33.757,33.757,0,0,1,5.586-6.961Q39.172,27.383,47.594,27.383ZM72.172,49.039H64.438a11.358,11.358,0,0,0,2.75-2.363,11.747,11.747,0,0,0,1.891-3.051v-.086A13.116,13.116,0,0,0,70.5,46.031a11.9,11.9,0,0,0,1.934,2.063l.172.172a.35.35,0,0,1,.086.258.608.608,0,0,1-.516.516ZM46.648-9.742A11.8,11.8,0,0,1,51.117-6.52a13.332,13.332,0,0,1,2.664,5.285q.258,1.2.473,2.578a17.788,17.788,0,0,1,.215,2.75v.258Q48.8,1.43,47.68-3.168A27.176,27.176,0,0,1,46.648-9.742ZM79.82,8.563a6.229,6.229,0,0,1-2.32.73,10.082,10.082,0,0,1-4.812-.816,8.168,8.168,0,0,1-3.7-2.363,14.4,14.4,0,0,1-1.461-2.105,17.994,17.994,0,0,1,6.832.816A10.853,10.853,0,0,1,79.82,8.563ZM69.594-8.625a15.726,15.726,0,0,1-10.785-4.082,16.179,16.179,0,0,1-5.457-10.1v-.258a.936.936,0,0,1,.344-.73,1.144,1.144,0,0,1,.773-.3h.086a46.4,46.4,0,0,1,4.727.773,32.637,32.637,0,0,1,6.23,2.02,33.035,33.035,0,0,1,6.66,3.91,24.684,24.684,0,0,1,6.016,6.359A18.169,18.169,0,0,1,74.148-9.27,15.77,15.77,0,0,1,69.594-8.625Zm9.8-3.266a28.36,28.36,0,0,0-3.051-3.824,26.144,26.144,0,0,0-3.566-3.137l-.086-.086a22.07,22.07,0,0,1,7.648-3.91q3.953-1.074,5.586-1.332a15.626,15.626,0,0,1-1.934,6.961,16.366,16.366,0,0,1-4.512,5.242Z" transform="translate(-0.156 37.5)" fill="#dab68e"/>
</svg>
