<svg id="Component_3_8" data-name="Component 3 – 8" xmlns="http://www.w3.org/2000/svg" width="64" height="64" viewBox="0 0 64 64">
  <rect id="Rectangle_28" data-name="Rectangle 28" width="64" height="64" fill="#8e6941" opacity="0"/>
  <path id="Path_19840" data-name="Path 19840" d="M60.778-7.293H12.155V-28.7a7.306,7.306,0,0,1,2.178-5.3,7.168,7.168,0,0,1,5.317-2.218,7.216,7.216,0,0,1,5.029,1.961,7.436,7.436,0,0,1,2.466,4.79v.064a4.753,4.753,0,0,0-2.915,1.575,4.51,4.51,0,0,0-1.185,3.119v.707h9.609v-.707a4.628,4.628,0,0,0-1.185-3.151,4.693,4.693,0,0,0-2.915-1.607h-.064a8.719,8.719,0,0,0-2.851-5.755,8.514,8.514,0,0,0-5.99-2.347,8.6,8.6,0,0,0-6.278,2.6,8.584,8.584,0,0,0-2.627,6.333V-7.293H3.378a1.967,1.967,0,0,0-1.441.611,1.981,1.981,0,0,0-.609,1.447v1.415a1.922,1.922,0,0,0,.416,1.19A2.041,2.041,0,0,0,2.8-1.892,37.36,37.36,0,0,0,4.6,7.335,34.7,34.7,0,0,0,8.567,15.6a10.119,10.119,0,0,0,.993,1.318,13.907,13.907,0,0,0,1.121,1.125l.064.064a4.439,4.439,0,0,1-1.537,1,5.021,5.021,0,0,1-1.858.354h-.7V23.57H57.255V19.455h-.7a4.938,4.938,0,0,1-1.794-.321,4.19,4.19,0,0,1-1.473-.964,7.162,7.162,0,0,0,1.249-1.157q.545-.643,1.057-1.35V15.6a34.7,34.7,0,0,0,3.972-8.262,37.361,37.361,0,0,0,1.794-9.227,2.041,2.041,0,0,0,1.057-.739,1.922,1.922,0,0,0,.416-1.19V-5.236a1.981,1.981,0,0,0-.609-1.447A1.967,1.967,0,0,0,60.778-7.293Zm-29.6-18.068H24.519A3.428,3.428,0,0,1,25.7-27.355a3.26,3.26,0,0,1,2.146-.772A3.26,3.26,0,0,1,30-27.355a3.4,3.4,0,0,1,1.185,1.929ZM2.673-5.236a.579.579,0,0,1,.224-.45.725.725,0,0,1,.48-.193h7.367v2.7H3.378a.725.725,0,0,1-.48-.193.579.579,0,0,1-.224-.45ZM8.055,22.22V20.805a6.139,6.139,0,0,0,2.05-.611,6.618,6.618,0,0,0,1.73-1.254v-.064a10.474,10.474,0,0,0,2.979,1.479,11.344,11.344,0,0,0,3.427.514h13v1.35Zm47.791-1.415V22.22H32.655V20.87H45.916a10.826,10.826,0,0,0,3.331-.514,13.213,13.213,0,0,0,2.947-1.35,6.543,6.543,0,0,0,1.634,1.19A5.822,5.822,0,0,0,55.845,20.805ZM54.436,14.89A10.089,10.089,0,0,1,50.848,18.2a9.935,9.935,0,0,1-4.933,1.254H18.241a9.757,9.757,0,0,1-4.9-1.254A10.757,10.757,0,0,1,9.72,14.89a34.546,34.546,0,0,1-3.78-7.909A37.87,37.87,0,0,1,4.147-1.764h6.6v8.1h1.409v-8.1H60.009q-.064.643-.128,1.35a12.838,12.838,0,0,1-.192,1.35H31.95V2.352H59.5l-.641,2.7H31.95V6.467H58.408a29.757,29.757,0,0,1-1.73,4.5,34.19,34.19,0,0,1-2.306,4.051ZM61.483-3.821a.618.618,0,0,1-.192.45.691.691,0,0,1-.513.193H12.155v-2.7H60.778a.691.691,0,0,1,.513.193.618.618,0,0,1,.192.45ZM29.2-12.759A2.673,2.673,0,0,0,30-10.8a2.653,2.653,0,0,0,1.954.8,2.654,2.654,0,0,0,1.954-.8,2.673,2.673,0,0,0,.8-1.961,2.673,2.673,0,0,0-.8-1.961,2.654,2.654,0,0,0-1.954-.8,2.653,2.653,0,0,0-1.954.8A2.673,2.673,0,0,0,29.2-12.759Zm4.1,0a1.311,1.311,0,0,1-.384.964,1.3,1.3,0,0,1-.961.386,1.3,1.3,0,0,1-.961-.386,1.311,1.311,0,0,1-.384-.964,1.311,1.311,0,0,1,.384-.964,1.3,1.3,0,0,1,.961-.386,1.3,1.3,0,0,1,.961.386A1.311,1.311,0,0,1,33.3-12.759Zm15.055-.579a2.654,2.654,0,0,0,1.954-.8,2.6,2.6,0,0,0,.8-1.9A2.673,2.673,0,0,0,50.3-18a2.653,2.653,0,0,0-1.954-.8A2.653,2.653,0,0,0,46.4-18a2.673,2.673,0,0,0-.8,1.961,2.6,2.6,0,0,0,.8,1.9A2.653,2.653,0,0,0,48.35-13.337Zm0-4.115a1.251,1.251,0,0,1,.961.418,1.422,1.422,0,0,1,.384,1,1.311,1.311,0,0,1-.384.964,1.3,1.3,0,0,1-.961.386,1.3,1.3,0,0,1-.961-.386A1.311,1.311,0,0,1,47-16.038a1.422,1.422,0,0,1,.384-1A1.251,1.251,0,0,1,48.35-17.453Zm-8.2,2.058a3.954,3.954,0,0,0,2.915-1.19A3.984,3.984,0,0,0,44.25-19.51,4.016,4.016,0,0,0,43.065-22.4a3.9,3.9,0,0,0-2.915-1.222A3.9,3.9,0,0,0,37.235-22.4,4.016,4.016,0,0,0,36.05-19.51a3.984,3.984,0,0,0,1.185,2.926A3.954,3.954,0,0,0,40.15-15.395Zm0-6.816a2.653,2.653,0,0,1,1.954.8,2.6,2.6,0,0,1,.8,1.9,2.673,2.673,0,0,1-.8,1.961,2.654,2.654,0,0,1-1.954.8,2.654,2.654,0,0,1-1.954-.8,2.673,2.673,0,0,1-.8-1.961,2.6,2.6,0,0,1,.8-1.9A2.653,2.653,0,0,1,40.15-22.211Z" transform="translate(-0.078 39.004)" fill="#8e6941"/>
</svg>
