<svg id="Component_32_2" data-name="Component 32 – 2" xmlns="http://www.w3.org/2000/svg" width="88" height="88" viewBox="0 0 88 88">
  <rect id="Rectangle_5645" data-name="Rectangle 5645" width="88" height="88" fill="#8e6941" opacity="0"/>
  <path id="Path_19869" data-name="Path 19869" d="M456.251,1271.512h-.774l-.515,2.665h7.219l-2.407,6.445H433.134l-2.149-6.445h5.93l-.774-3.352H398.588l-.688-.345-1.289-1.631v10.913h-1.8v-48.641a21.849,21.849,0,0,1,1.8-8.851,22.7,22.7,0,0,1,4.941-7.3,23.856,23.856,0,0,1,7.262-4.9,22.431,22.431,0,0,1,8.937-1.805,21.831,21.831,0,0,1,8.851,1.805,22.735,22.735,0,0,1,12.2,12.2,21.851,21.851,0,0,1,1.8,8.851v26.125h17.36a13.277,13.277,0,0,1,2.921.43,7.147,7.147,0,0,1,3.266,1.8,7.066,7.066,0,0,1,1.719,2.449,8.215,8.215,0,0,1,.6,3.223,5.751,5.751,0,0,1-.429,2.234,5,5,0,0,1-1.289,1.805,8.035,8.035,0,0,1-4.3,1.934A29.59,29.59,0,0,1,456.251,1271.512Zm-38.5-61.531a20.082,20.082,0,0,0-8.25,1.72,20.479,20.479,0,0,0-6.7,4.511,22.592,22.592,0,0,0-4.555,6.747,20.384,20.384,0,0,0-1.633,8.163v9.454h3.61v-7.047H410.1V1226.4h3.868a4.7,4.7,0,0,1,1.5-2.492,4.063,4.063,0,0,1,2.793-1.032,3.95,3.95,0,0,1,2.707,1.032,4.709,4.709,0,0,1,1.5,2.492h3.868v7.133h9.882v7.047h2.664v-9.454a19.5,19.5,0,0,0-1.718-8.163,20.847,20.847,0,0,0-11.258-11.258A19.5,19.5,0,0,0,417.751,1209.98Zm14.867,55.516h2.321l-1.891-8.25h5.843v-13.32l-1.375,1.719-.687.343H398.588l-.688-.343-1.289-1.633V1265.5h3.438a7.33,7.33,0,0,1,2.32-4.6,6.68,6.68,0,0,1,4.728-1.848,4.115,4.115,0,0,1,1.073.128c.314.087.645.187.989.3a7.339,7.339,0,0,1,2.32-4.6,7.136,7.136,0,0,1,9.582,0,7.268,7.268,0,0,1,2.364,4.6,7.659,7.659,0,0,1,.945-.3,4.641,4.641,0,0,1,1.117-.128,6.835,6.835,0,0,1,4.77,1.848A7.264,7.264,0,0,1,432.618,1265.5Zm-16.155-23.2H397.556l1.461,1.891H436.4l1.547-1.891Zm-17.446,26.812h36.7l-.43-1.889H397.556Zm13.492-3.609a5.768,5.768,0,0,0-1.848-3.351,5.11,5.11,0,0,0-3.565-1.375,5,5,0,0,0-3.481,1.375,5.768,5.768,0,0,0-1.848,3.351Zm-10.57-30.25v1.805h12.8v-1.805Zm0,3.524v1.8h12.8v-1.8Zm16.413,26.641a7.571,7.571,0,0,1,1.161-3.008,7.377,7.377,0,0,1,2.277-2.234,5.534,5.534,0,0,0-1.676-3.824,5.393,5.393,0,0,0-7.649,0,5.524,5.524,0,0,0-1.676,3.824,7.866,7.866,0,0,1,2.32,2.234,6.513,6.513,0,0,1,1.117,3.093h4.125Zm-6.53-37.211v1.719h12.8V1228.2Zm0,5.328h12.8v-1.8h-12.8Zm8.679-7.133a3.269,3.269,0,0,0-.859-1.246,1.962,1.962,0,0,0-1.375-.559,2.064,2.064,0,0,0-1.461.559,3.253,3.253,0,0,0-.859,1.246Zm-4.038,14.18h3.522v-5.329h-3.522Zm9.023,20.2a4.958,4.958,0,0,0-3.523,1.375,5.857,5.857,0,0,0-1.805,3.351h10.657a5.87,5.87,0,0,0-1.805-3.351A4.964,4.964,0,0,0,425.485,1260.77Zm9.024-25.524H421.7v1.805h12.8Zm0,5.329v-1.8H421.7v1.8ZM459.6,1275.9H433.392l1.032,3.008h24.149ZM435.2,1258.966l3.437,15.211h2.407l-3.524-15.211Zm7.649,15.211h10.312l2.664-15.211h-7.133v4.383h3.437v8.421h-8.679v-8.421h3.437v-4.383h-7.562Zm1.8-20.281q-2.149-3.093-1.676-5.07a13.3,13.3,0,0,1,1.418-3.609,11.419,11.419,0,0,0,1.16-3.353q.3-1.718-2.1-4.812l1.375-1.117q3.007,3.782,2.535,6.144a12.715,12.715,0,0,1-1.5,4.082,9.606,9.606,0,0,0-1.16,2.922q-.3,1.463,1.418,3.78Zm.516,11.172v4.9h5.242v-4.9Zm4.812-11.172q-2.147-3.093-1.676-5.07a13.265,13.265,0,0,1,1.419-3.609,9.465,9.465,0,0,0,1.2-3.353q.258-1.718-2.149-4.812l1.375-1.117q3.009,3.782,2.535,6.144a12.743,12.743,0,0,1-1.5,4.082,9.573,9.573,0,0,0-1.16,2.922q-.3,1.463,1.418,3.78Zm13.063,6.875a5.737,5.737,0,0,0-2.879-1.5,14.223,14.223,0,0,0-2.448-.3l-1.977,10.828a33.217,33.217,0,0,0,3.824-.3,7.529,7.529,0,0,0,4-1.59,3.773,3.773,0,0,0,.859-1.245,4.028,4.028,0,0,0,.258-1.5,6.878,6.878,0,0,0-.43-2.492A5.37,5.37,0,0,0,463.04,1260.77Z" transform="translate(-386.642 -1201.84)" fill="#8e6941"/>
</svg>
