<svg id="Component_31_3" data-name="Component 31 – 3" xmlns="http://www.w3.org/2000/svg" width="40" height="40" viewBox="0 0 40 40">
  <rect id="Rectangle_5643" data-name="Rectangle 5643" width="40" height="40" fill="#8e6941" opacity="0"/>
  <path id="Path_19867" data-name="Path 19867" d="M262.462,1225.536a1.779,1.779,0,0,1,.684.879c.064.273.1.424.1.449v10.352h-.821v-4.961h-3.008a1.513,1.513,0,0,1-.567.9,1.632,1.632,0,0,1-1.035.352,1.554,1.554,0,0,1-1.016-.352,1.748,1.748,0,0,1-.586-.9h-2.968v4.961h-.821v-23.438h.391a10.824,10.824,0,0,1,1.523.821q1.407.82,1.407,5.508a14.2,14.2,0,0,1-.234,2.812,7.629,7.629,0,0,1-.586,1.836,11.393,11.393,0,0,1,2.891-.313,12.543,12.543,0,0,1,2.813.274A4.453,4.453,0,0,1,262.462,1225.536Zm-9.218-.078a3.678,3.678,0,0,0,1.074-1.387,13.281,13.281,0,0,0,0-7.929,3.674,3.674,0,0,0-1.074-1.387Zm9.179,5.976v-4.141h-9.179v4.141h2.968a1.75,1.75,0,0,1,.586-.9,1.554,1.554,0,0,1,1.016-.352,1.632,1.632,0,0,1,1.035.352,1.515,1.515,0,0,1,.567.9Zm-1.446-5.762a8.645,8.645,0,0,0-3.164-.41,8.5,8.5,0,0,0-3.125.41,3.783,3.783,0,0,0-1.25.762h8.75A3.262,3.262,0,0,0,260.977,1225.672Zm-3.164,7.012a.762.762,0,0,0,.586-.254.862.862,0,0,0,.234-.606.816.816,0,0,0-.234-.566.8.8,0,0,0-1.172,0,.816.816,0,0,0-.234.566.862.862,0,0,0,.234.606A.763.763,0,0,0,257.814,1232.684Zm11.719,2.3a6.162,6.162,0,0,0,1.25,1.523l-.469.7q-.039-.038-.742-.723a6.546,6.546,0,0,1-1.328-2.246v2.969h-.859v-2.969a6.554,6.554,0,0,1-1.328,2.246q-.7.683-.742.723l-.234-.352-.234-.352a11.02,11.02,0,0,0,2.539-7.148,12.326,12.326,0,0,0-.411-3.477,9.653,9.653,0,0,0-.879-2.148,5.049,5.049,0,0,0-.683-.977,4.709,4.709,0,0,0-.488-.469h-7.109v-.859h20v.859H270.7a10.552,10.552,0,0,0-1.406,1.895,9.765,9.765,0,0,0-1.054,5.176,12.347,12.347,0,0,0,.41,3.477A9.647,9.647,0,0,0,269.532,1234.989Zm-1.719-17.7a1.94,1.94,0,0,1-1.308-.488,2.151,2.151,0,0,1-.723-1.191h-3.4v-.43a5.42,5.42,0,0,1,5-5.391v-7.929h.859v7.929a5.421,5.421,0,0,1,5,5.391v.43h-3.4a2.16,2.16,0,0,1-.722,1.191A1.943,1.943,0,0,1,267.814,1217.293Zm0-6.679a4.588,4.588,0,0,0-4.57,4.179h.859v-.039a3.636,3.636,0,0,1,1.211-2.363,3.6,3.6,0,0,1,2.5-.957,3.558,3.558,0,0,1,2.5.977,3.89,3.89,0,0,1,1.25,2.383h.821v-.039a4.6,4.6,0,0,0-4.571-4.141Zm0,2.5a1.993,1.993,0,0,1,1.309.469,2.084,2.084,0,0,1,.722,1.21h.859v-.039a2.782,2.782,0,0,0-.977-1.758,2.956,2.956,0,0,0-3.828,0,2.811,2.811,0,0,0-.977,1.8h.859v-.039a2.059,2.059,0,0,1,.723-1.172A1.99,1.99,0,0,1,267.814,1213.114Zm-1.719,9.141a11.633,11.633,0,0,1,.723,1.054,7.072,7.072,0,0,1,.567,1.172v-2.188h-1.289Zm1.719-8.321a1.229,1.229,0,0,0-.723.234,1.148,1.148,0,0,0-.449.625h2.344v-.039a1.163,1.163,0,0,0-.449-.586A1.231,1.231,0,0,0,267.814,1213.934Zm0,2.5a1.227,1.227,0,0,0,.723-.234,1.161,1.161,0,0,0,.449-.586h-2.344a1.154,1.154,0,0,0,.449.586A1.224,1.224,0,0,0,267.814,1216.434Zm.43,8.047v-.039a7.714,7.714,0,0,1,.566-1.133,8.34,8.34,0,0,1,.723-1.016h-1.289Zm15-10.7v23.438h-.859v-4.961h-2.969a1.513,1.513,0,0,1-.567.9,1.632,1.632,0,0,1-1.035.352,1.554,1.554,0,0,1-1.016-.352,1.748,1.748,0,0,1-.586-.9h-2.968v4.961h-.859v-10.352a4.485,4.485,0,0,1,.117-.449,1.971,1.971,0,0,1,.664-.879,4.8,4.8,0,0,1,1.856-.82,12.27,12.27,0,0,1,2.793-.274,11.875,11.875,0,0,1,2.93.313,8.139,8.139,0,0,1-.606-1.836,13.079,13.079,0,0,1-.254-2.812q0-4.687,1.426-5.508a15.332,15.332,0,0,1,1.5-.821Zm-.859,13.516h-9.141v4.141h2.968a1.75,1.75,0,0,1,.586-.9,1.554,1.554,0,0,1,1.016-.352,1.632,1.632,0,0,1,1.035.352,1.515,1.515,0,0,1,.567.9h2.969Zm-4.571-2.031a8.664,8.664,0,0,0-3.144.41,3.26,3.26,0,0,0-1.231.762h8.75a3.265,3.265,0,0,0-1.231-.762A8.668,8.668,0,0,0,277.814,1225.262Zm0,7.422a.867.867,0,0,0,.859-.859.784.784,0,0,0-.254-.566.827.827,0,0,0-.606-.254.765.765,0,0,0-.586.254.816.816,0,0,0-.234.566.862.862,0,0,0,.234.606A.763.763,0,0,0,277.814,1232.684Zm4.571-17.929a3.973,3.973,0,0,0-1.036,1.387,13.358,13.358,0,0,0,0,7.949,3.983,3.983,0,0,0,1.036,1.367Z" transform="translate(-247.833 -1201.864)" fill="#8e6941"/>
</svg>
