<svg id="Component_25_3" data-name="Component 25 – 3" xmlns="http://www.w3.org/2000/svg" width="64" height="64" viewBox="0 0 64 64">
  <path id="Path_19839" data-name="Path 19839" d="M51.953-8.117a2.594,2.594,0,0,0,.781,1.906,2.594,2.594,0,0,0,1.906.781,2.594,2.594,0,0,0,1.906-.781,2.594,2.594,0,0,0,.781-1.906,2.594,2.594,0,0,0-.781-1.906,2.594,2.594,0,0,0-1.906-.781,2.594,2.594,0,0,0-1.906.781A2.594,2.594,0,0,0,51.953-8.117Zm4,0a1.272,1.272,0,0,1-.375.938,1.272,1.272,0,0,1-.937.375A1.272,1.272,0,0,1,53.7-7.18a1.272,1.272,0,0,1-.375-.937,1.272,1.272,0,0,1,.375-.937,1.272,1.272,0,0,1,.938-.375,1.272,1.272,0,0,1,.938.375A1.272,1.272,0,0,1,55.953-8.117Zm-20,3.188a2.594,2.594,0,0,0,.781,1.906,2.594,2.594,0,0,0,1.906.781,2.594,2.594,0,0,0,1.906-.781,2.594,2.594,0,0,0,.781-1.906,2.522,2.522,0,0,0-.781-1.844,2.594,2.594,0,0,0-1.906-.781,2.594,2.594,0,0,0-1.906.781A2.522,2.522,0,0,0,35.953-4.93Zm4,0a1.379,1.379,0,0,1-.375.969,1.223,1.223,0,0,1-.937.406,1.223,1.223,0,0,1-.937-.406,1.379,1.379,0,0,1-.375-.969,1.272,1.272,0,0,1,.375-.937,1.272,1.272,0,0,1,.938-.375,1.272,1.272,0,0,1,.938.375A1.272,1.272,0,0,1,39.953-4.93Zm2.688,3.375A3.9,3.9,0,0,0,43.8,1.258a3.814,3.814,0,0,0,2.844,1.188,3.814,3.814,0,0,0,2.844-1.187,3.9,3.9,0,0,0,1.156-2.812A3.865,3.865,0,0,0,49.484-4.4a3.865,3.865,0,0,0-2.844-1.156A3.865,3.865,0,0,0,43.8-4.4,3.865,3.865,0,0,0,42.641-1.555Zm6.688,0A2.522,2.522,0,0,1,48.547.289a2.594,2.594,0,0,1-1.906.781A2.594,2.594,0,0,1,44.734.289a2.522,2.522,0,0,1-.781-1.844,2.594,2.594,0,0,1,.781-1.906,2.594,2.594,0,0,1,1.906-.781,2.594,2.594,0,0,1,1.906.781A2.594,2.594,0,0,1,49.328-1.555Zm7.563,15a9.293,9.293,0,0,1-10.5,0l-1.75-1.125-1.75,1.125a9.293,9.293,0,0,1-10.5,0l-1.75-1.125-1.75,1.125a4.761,4.761,0,0,1-.719.469q-.406.219-.781.406h-.062V10.133q.625-.25,1.219-.531a6.34,6.34,0,0,0,1.094-.656l1-.625,1,.625a10.5,10.5,0,0,0,2.781,1.375,10.61,10.61,0,0,0,6.438,0,10.5,10.5,0,0,0,2.781-1.375l1-.625,1,.625a10.5,10.5,0,0,0,2.781,1.375,10.61,10.61,0,0,0,6.438,0,10.5,10.5,0,0,0,2.781-1.375l1.375-.875-.75-1.125-1.375.875a9.01,9.01,0,0,1-10.5,0L44.641,6.7l-1.75,1.188a9.293,9.293,0,0,1-10.5,0L30.641,6.7l-1.75,1.188q-.313.188-.719.406t-.781.406h-.062v-20.25H58.641V-12.93H27.328v-5.312a5.114,5.114,0,0,1,1.563-3.75,5.114,5.114,0,0,1,3.75-1.562,5.114,5.114,0,0,1,3.75,1.563,5.114,5.114,0,0,1,1.563,3.75v2h1.375v-2a6.437,6.437,0,0,0-1.969-4.719,6.437,6.437,0,0,0-4.719-1.969A6.472,6.472,0,0,0,29.047-23.9a6.589,6.589,0,0,0-2.406,2.719v.063a6.73,6.73,0,0,0-2.437-2.75,6.378,6.378,0,0,0-3.562-1.062,6.437,6.437,0,0,0-4.719,1.969,6.437,6.437,0,0,0-1.969,4.719v5.313H2.641v1.375H13.953V8.383A8.8,8.8,0,0,1,9.141,9.477a9.857,9.857,0,0,1-4.75-1.594L3.016,6.945,2.266,8.07l1.375.875A10.5,10.5,0,0,0,6.422,10.32a10.3,10.3,0,0,0,3.219.5,10.208,10.208,0,0,0,2.281-.25,11.734,11.734,0,0,0,2.094-.687h-.062v4.125A9.35,9.35,0,0,1,9.141,15.07a9.288,9.288,0,0,1-4.75-1.625l-1.375-.937-.75,1.125,1.375.938a9.832,9.832,0,0,0,2.781,1.344,12.534,12.534,0,0,0,3.219.531,12.534,12.534,0,0,0,3.219-.531,8.975,8.975,0,0,0,2.781-1.406v.063l1-.687,1,.688a10.5,10.5,0,0,0,2.781,1.375,10.61,10.61,0,0,0,6.438,0,9.529,9.529,0,0,0,2.781-1.437v.063l1-.687,1,.688a10.5,10.5,0,0,0,2.781,1.375,10.61,10.61,0,0,0,6.438,0,9.529,9.529,0,0,0,2.781-1.437v.063l1-.687,1,.688a10.5,10.5,0,0,0,2.781,1.375,10.61,10.61,0,0,0,6.438,0,9.529,9.529,0,0,0,2.781-1.437v.063l1.375-.937-.75-1.125ZM25.953-7.18H15.328v-4.375H25.953ZM15.328-5.867H25.953V-1.43H15.328Zm0,5.75H25.953V4.32H15.328Zm10.625,5.75V9.2a8.843,8.843,0,0,1-3.844.156,10,10,0,0,1-3.719-1.469L16.641,6.7l-1.312.875V5.633ZM20.641-23.555a5.114,5.114,0,0,1,3.75,1.563,5.114,5.114,0,0,1,1.563,3.75v5.313H15.328v-5.312a5.114,5.114,0,0,1,1.563-3.75A5.114,5.114,0,0,1,20.641-23.555Zm-2.25,37-1.75-1.125-1.312.875v-4a1.024,1.024,0,0,1,.156-.125,1.024,1.024,0,0,0,.156-.125l1-.625,1,.625a10.5,10.5,0,0,0,2.781,1.375,10.3,10.3,0,0,0,3.219.5,11.638,11.638,0,0,0,1.219-.062,10.294,10.294,0,0,0,1.156-.187h-.062v4.25a8.843,8.843,0,0,1-3.844.156A9.471,9.471,0,0,1,18.391,13.445ZM2.641-32.93h56v1.375h-56Zm0,2.688h56v1.313h-56Z" transform="translate(0.934 40.93)" fill="#8e6941"/>
  <rect id="Rectangle_5619" data-name="Rectangle 5619" width="64" height="64" fill="#8e6941" opacity="0"/>
</svg>
