<svg xmlns="http://www.w3.org/2000/svg" width="342.043" height="120" viewBox="0 0 342.043 120">
  <g id="Group_18472" data-name="Group 18472" transform="translate(-514 -613.604)">
    <g id="Group_18470" data-name="Group 18470" transform="translate(673.413 655.777)">
      <path id="Path_20" data-name="Path 20" d="M4359.645,2130.474h-.871l-.336-.4c-4.763-5.367-8.588-9.729-16.372-9.729-9.661,0-16.033,9.525-16.033,23.749,0,13.623,6.84,22.745,17.042,22.745,5.028,0,8.386-2.684,8.585-6.709,0-.739,0-7.382-.063-7.382a5.584,5.584,0,0,1,5.564-5.5h1.414v18.385l-1.212.268a49.627,49.627,0,0,1-15.5,2.281c-14.157,0-23.549-9.593-23.549-24.087s9.392-24.086,23.617-24.086a25.314,25.314,0,0,1,11.136,2.281l6.576,2.618Z" transform="translate(-4318.316 -2120.006)" fill="#8e6941"/>
      <path id="Path_21" data-name="Path 21" d="M4393.92,2169.608a.889.889,0,0,0-1.476-.47c-3.354,3.222-6.039,4.5-8.253,4.5-4.224,0-7.044-2.482-7.044-6.24,0-4.831,2.751-6.574,13.752-10.063a3.89,3.89,0,0,0,2.688-3.691v-4.964c0-4.965-1.277-7.112-3.289-7.112-3.893,0-6.509,4.159-6.509,6.507,0,1.075,1.275,2.551,1.275,3.624a3.305,3.305,0,0,1-3.09,3.02c-2.142,0-3.55-1.746-3.55-4.228,0-3.355,4.827-9.394,12.276-9.394,5.3,0,8.854,3.018,8.854,9.8v15.364c0,3.02,1.142,6.576,2.886,7.045v.066h-4.562C4396,2173.365,4394.39,2172.024,4393.92,2169.608Zm-2.886-12.009c-6.306,2.146-7.914,3.825-7.914,9.192,0,2.213,1.677,3.755,4.226,3.755,2.348,0,6.241-1.476,6.241-4.293v-6.844A1.889,1.889,0,0,0,4391.034,2157.6Z" transform="translate(-4333.537 -2125.462)" fill="#8e6941"/>
      <path id="Path_22" data-name="Path 22" d="M4436.249,2146.059a3.315,3.315,0,0,1-3.827,3.488,3.626,3.626,0,0,1-3.222-3.555,2.061,2.061,0,0,0-2.213-2.148c-3.693,0-6.307,3.625-6.307,7.112v22.075h-5.973v-27.44a3.837,3.837,0,0,1,3.826-3.892h2.147v.4a1.83,1.83,0,0,0,1.876,1.878,2.12,2.12,0,0,0,1.343-.537,8.841,8.841,0,0,1,5.835-2.347C4433.628,2141.094,4436.249,2143.108,4436.249,2146.059Z" transform="translate(-4343.253 -2125.462)" fill="#8e6941"/>
      <path id="Path_23" data-name="Path 23" d="M4470.679,2167.719h-.069l-.06.068h-2.957a1.977,1.977,0,0,0-2.014-2.014,2.206,2.206,0,0,0-1.068.336,12.633,12.633,0,0,1-6.645,2.01c-7.847,0-13.019-6.44-13.019-16.035,0-9.727,4.97-16.235,14.5-16.235a8.226,8.226,0,0,1,5.169,2.013,1.809,1.809,0,0,0,1.137.4,1.947,1.947,0,0,0,1.945-1.947v-11.675a3.825,3.825,0,0,1,3.828-3.824h2.081v43.208A3.81,3.81,0,0,1,4470.679,2167.719Zm-10.664-30.126c-6.038,0-9.06,5.166-9.06,12.882,0,9.125,3.691,15.165,9.327,15.165a7.329,7.329,0,0,0,7.312-7.313v-11.742C4467.594,2142.49,4464.578,2137.593,4460.015,2137.593Z" transform="translate(-4351.051 -2120.217)" fill="#8e6941"/>
      <path id="Path_24" data-name="Path 24" d="M4516,2165.449a14.165,14.165,0,0,1-13.085,8.185c-8.72,0-14.623-5.971-14.623-15.029,0-12.614,6.438-17.511,16.1-17.511,5.431,0,9.725,1.947,11.869,6.644a2.808,2.808,0,0,1-2.479,4.024h-11.61a7.588,7.588,0,0,0-7.646,7.582v.066c0,6.911,3.555,12.816,8.923,12.816,5.7,0,9.463-2.819,11.2-7.112a.813.813,0,0,1,.808-.537A.65.65,0,0,1,4516,2165.449Zm-21.134-13.955,8.653-.068c4.831,0,7.113-6.038,3.489-9.057a3.959,3.959,0,0,0-2.682-1.006C4499.367,2141.363,4495.874,2144.247,4494.87,2151.494Z" transform="translate(-4362.295 -2125.462)" fill="#8e6941"/>
      <path id="Path_25" data-name="Path 25" d="M4555.88,2152.568v20.463h-5.973v-20.463c0-5.166-1.477-8.59-4.429-8.59-3.217,0-8.856,3.155-8.856,6.844v22.209h-5.971v-27.44a3.881,3.881,0,0,1,3.825-3.892h2.146v1.544a1.9,1.9,0,0,0,3.223,1.408c2.281-2.213,4.9-3.556,7.315-3.556C4552.928,2141.094,4555.88,2145.656,4555.88,2152.568Z" transform="translate(-4373.25 -2125.462)" fill="#8e6941"/>
    </g>
    <g id="Group_18471" data-name="Group 18471" transform="translate(514 613.604)">
      <path id="Path_26" data-name="Path 26" d="M4310.3,2071.6h2.016c.855.183,1.286.643,1.286,1.375q0,2.75-5.958,16.5h157.194l3.3.735v1.922q0,2.019-12.007,2.018h-2.567l-1.925-1.375H4305.721c0,.733,8.147-19.541-25.768,59.405q1.373,0,1.372,1.926-4.12,9.164-7.971,9.166-3.3-.367-3.3-1.922l29.8-68.575-18.593.223q-1.28,0-1.282-1.375.731-1.926,4.032-1.925l16.392-.223q1.1,0,8.616-17.141Z" transform="translate(-4146.417 -2065.309)" fill="#8e6941"/>
      <g id="Group_5" data-name="Group 5" transform="translate(0 0)">
        <g id="Group_4" data-name="Group 4">
          <path id="Path_27" data-name="Path 27" d="M4229.222,2129.569q-7.7,1.385-15.418,2.625l-9.145,1.48q-10.987,23.558-20.7,47.678a2.869,2.869,0,0,1-1.521,1.546,2.742,2.742,0,0,1-2.13,0,2.575,2.575,0,0,1-1.415-1.2,2.723,2.723,0,0,1-.3-1.785q.689-3.729,1.372-7.529a13.992,13.992,0,0,1,.263-1.462q.78-4.459,1.487-8.981.144-1.093.359-2.192a110.985,110.985,0,0,0,1.832-15.721,47.723,47.723,0,0,0-.353-7.413q-9.385,1.136-18.788,1.912-7.691.664-15.39.962-7.644,17.413-10.224,24.155a2.854,2.854,0,0,1-2.627,1.692,2.417,2.417,0,0,1-1.1-.217,2.937,2.937,0,0,1-1.479-1.523,2.76,2.76,0,0,1,.009-2.131q2.149-5.558,9.153-21.7-7.494.217-15.087.075a86.2,86.2,0,0,1-18.549-2.075,44.241,44.241,0,0,1-4.571-1.354,16.714,16.714,0,0,1-4.692-2.138,8.891,8.891,0,0,1-2.089-2.1,7.962,7.962,0,0,1-1.211-2.951,8.266,8.266,0,0,1,1.561-5.739,15.07,15.07,0,0,1,3.735-3.573,16.533,16.533,0,0,1,2.075-1.366l2.09-1.151a90.645,90.645,0,0,1,8.476-3.89q4.366-1.663,8.9-2.91,4.537-1.169,9.183-1.917a81.192,81.192,0,0,1,18.659-.675,48.919,48.919,0,0,1,5.318.653q8.353-18.543,12.143-26.666a2.806,2.806,0,1,1,5.07,2.4q-3.533,7.6-11.576,25.473a49.821,49.821,0,0,1,7.333,2.684,35.6,35.6,0,0,1,8.075,5.234,27.153,27.153,0,0,1,6,7.684,27.528,27.528,0,0,1,2.277,5.915q7.226-.99,14.365-2.193,15.4-32.955,33.209-64.626a2.632,2.632,0,0,1,1.678-1.338,3.013,3.013,0,0,1,2.144.217,3.155,3.155,0,0,1,1.311,1.716,2.659,2.659,0,0,1-.256,2.113q-16.7,29.864-31.379,60.743,2.933-.483,5.855-1.043,7.491-1.369,14.976-2.811Q4231.16,2126.189,4229.222,2129.569Zm-101.125,6q8.454.083,16.951-.271,5.132-11.681,10.22-23.072-1.967-.3-4-.454a81.641,81.641,0,0,0-17.795.69,88.416,88.416,0,0,0-8.681,1.883,75.894,75.894,0,0,0-8.474,2.808,88.259,88.259,0,0,0-8.131,3.723l-1.948,1.07c-.6.377-1.178.755-1.729,1.127a10.9,10.9,0,0,0-2.78,2.714q-2.1,3.1.787,5.218a14.258,14.258,0,0,0,3.648,1.633q2.065.656,4.192,1.163A85.049,85.049,0,0,0,4128.1,2135.567Zm36.214-1.564q9.183-.9,18.2-2.09a23.777,23.777,0,0,0-1.837-4.716,25.942,25.942,0,0,0-12.454-11.221,41.837,41.837,0,0,0-7.247-2.617q-4.779,10.649-9.6,21.584Q4157.855,2134.581,4164.311,2134Zm21.966,27.118q5.678-13.3,11.729-26.493-5.361.793-10.736,1.442a50.693,50.693,0,0,1,.468,8.057,145.218,145.218,0,0,1-1.373,16.121C4186.339,2160.54,4186.312,2160.832,4186.277,2161.121Z" transform="translate(-4096.882 -2063.113)" fill="#8e6941"/>
        </g>
      </g>
    </g>
  </g>
</svg>
