<svg xmlns="http://www.w3.org/2000/svg" width="110.233" height="81" viewBox="0 0 110.233 81">
  <path id="Path_32" data-name="Path 32" d="M3819.609,319.75a.9.9,0,0,1-.547-.122l-.256-.2c-3.87-4.457.725-13.882.587-16.956-.459-.542-.961-1.079-1.447-1.6-.706-.756-1.439-1.54-2.069-2.367-3.494-4.581-5.239-8.876-5.333-13.126-.392-17.734,8.468-14.13,12.9-24.022,4.223-9.469,4.4,15.921.83,22.874a56.907,56.907,0,0,0-2.623,5.831c-1.1,2.915-4.46,15.152,2.076,8.636,5.039-5.025,15.07-13.585,14.1-16.774a40.9,40.9,0,0,1-1.075-19.583,18.175,18.175,0,0,1,4.252-9.04c.893-1.011,5.148-5.087,5.556-.014a18.061,18.061,0,0,1-.048,3.2,19.24,19.24,0,0,0,.776,7.541,14,14,0,0,1-1.586,12.349c-.3.451-.6.9-.907,1.342-2.475,3.624-5.9,8.007.688,2.913q2.041-1.582,4.07-3.173c11.414-8.939,2.313-4.483,8.807-16.423,3.4-6.244,7.663-12.059,10.621-18.521,4.874-10.6,3.885,12.325-.135,19.5-1.982,3.53-11.105,11.866-14.836,14.759,3.316-1.143,6.82-2.012,10.056-3.271,5.813-2.271,9.362-5.514,13.054-6.641a49.871,49.871,0,0,1,13.064-2.3c6.1-.2,17.559,2.562,24.111,3.087,6.932.564,7.15,3.381,1.275,4.769a112.434,112.434,0,0,1-13.123,2.111l-1.2.142c-20.925,2.438-25.677-4.456-47.183,4.946,1.542.185,3.083.384,4.585.579a130.539,130.539,0,0,0,13.657,1.305c21.325.53-3,8.071-14.746,5.01a39.643,39.643,0,0,1-6.628-2.185c-2.727-1.257-4.924-1.136-7.129.391-3.691,2.566-11.38,7.267-14.105,10.84.4-.1.776-.229,1.146-.348a12.407,12.407,0,0,1,1.8-.489,43.064,43.064,0,0,1,8.822-.536c12.188.4,14.09-1.309,23.93-2.78a49.048,49.048,0,0,1,11.188-.677c10.364.825.269,4.353-1.841,5.5a77.47,77.47,0,0,1-7.079,3.54c-4.98,2.087-10.409,4.042-17.226,3.054a141.642,141.642,0,0,1-14.161-2.754c-19.491-4.882-15.5,19.5-16.667,19.684" transform="translate(-3810.032 -239.257)" fill="none" stroke="#8e6941" stroke-width="1"/>
</svg>
