<svg xmlns="http://www.w3.org/2000/svg" width="238.834" height="199.482" viewBox="0 0 238.834 199.482">
  <path id="Path_63" data-name="Path 63" d="M806.939,776.434a141.6,141.6,0,0,0-1.4-36.73c4.674,16.823,8.512,46.647-8.006,77.549a160.376,160.376,0,0,0,9.41-40.819m-9.364,34.414a241.772,241.772,0,0,0,3.989-28.074,412.126,412.126,0,0,0,1.108-47.183,139.694,139.694,0,0,1,2.21,40.654A155.732,155.732,0,0,1,797.575,810.848Zm-.116-11.037q-.449-12.6.338-27.816.8-15.5,2.882-33.679a404.1,404.1,0,0,1-1.176,44.276Q798.716,791.637,797.459,799.811Zm-1.724-27.925q-.753,14.565-.379,26.77c-.3-2.813-.68-5.669-1.074-8.627s-.8-6.019-1.171-9.417c-1.124-10.312-1.582-18.738-.4-27.211A78.485,78.485,0,0,1,799.43,731.4Q796.684,753.542,795.735,771.886ZM847.857,801.8a219.371,219.371,0,0,0-24.64,16.139A299.879,299.879,0,0,0,798.5,838.782c-3.739,3.495-5.289,4.014-.867-.753,3.588-3.869,7.283-8.145,9.118-12.05,2.954-6.275,11.759-12.126,22.622-17.1A173.512,173.512,0,0,1,847.857,801.8Zm-33.806,38.757c10.137-6.137,15.93-12.1,21.962-18.314,2.916-3,5.889-6.064,9.453-9.233-.949,1.454-1.788,2.907-2.629,4.362C838.579,824.74,834.274,832.192,814.051,840.555Zm-5.513-.849c9.631-8.957,23.5-21.853,39.269-31.4a145.484,145.484,0,0,0-13.279,12.5c-5.876,6.052-11.521,11.863-21.312,17.835C812.495,839.083,805.825,842.23,808.538,839.706Zm-1.41-1.507c-4.6,4.277-10.921,5.482-5.23.245a293.769,293.769,0,0,1,22.561-18.858,218.136,218.136,0,0,1,23.888-15.7c5.062-2.847,7.9-2.861.846,1.2C832.223,814.864,817.322,828.719,807.128,838.2Zm-51.734-5.789q10.931,14.768,22.11,32.685c-18.718-14.617-26.193-29.664-32.708-42.785-1.58-3.183-3.105-6.255-4.721-9.185Q747.68,821.988,755.394,832.41Zm12.752-9.948a65.365,65.365,0,0,0-29.494-21.233q1.043.228,2.153.516c14.126,3.666,36.055,14.764,39.558,44.28A76.787,76.787,0,0,0,768.146,822.462Zm-3.062,6.269a102.065,102.065,0,0,0-28.048-25.892,63.588,63.588,0,0,1,29.482,20.894q11.892,15.258,15.819,39.387A117.379,117.379,0,0,0,765.084,828.731Zm.934,6.551A183.955,183.955,0,0,0,739.7,807.065a99.552,99.552,0,0,1,23.724,22.891,107.124,107.124,0,0,1,9.8,16.068Q769.965,840.615,766.018,835.282Zm14.812,31.262q-12.023-19.476-23.779-35.358-8.166-11.031-16.189-20.313a178.389,178.389,0,0,1,23.5,25.634A118.87,118.87,0,0,1,780.83,866.544ZM795.68,823.3l1.7-1.543c20.2-34.624,14.543-68.476,9.283-85.516a88.966,88.966,0,0,0-3.026-8.392c-.32-.753-2.171-5.265-3.3-3.048-5.559,10.845-8.449,19.617-9.664,28.312s-.755,17.261.386,27.72c.348,3.19.772,6.384,1.183,9.468,1.66,12.475,3.074,23.115-.856,36.218a101.743,101.743,0,0,0-7.716,28.331c-.474-3.187-.931-6.208-1.213-8.71-3.507-30.962-26.406-42.567-41.135-46.39a53.528,53.528,0,0,0-8.892-1.577c-1.845-.147-5.819.126-7.816.112,9.378,4.9,13.831,15.868,18.336,24.944,5.552,11.181,11.79,23.741,24.935,36.295,7.232,6.907,10.461,6.974,15.283,14.828a102.791,102.791,0,0,0,21.888,56.61l1.757-1.882a100.223,100.223,0,0,1-20.011-78.14l1.525-.793c4.355.918,18.3-4.495,22.25-5.992,24.554-9.307,29.328-17.573,34.048-25.743,6.784-11.744,13.839-16.487,26.094-21.7,6.405-2.726,7.228-4.659-.812-2.955-12.524,2.656-28.381,7.3-41.4,13.258-11.261,5.15-20.435,11.315-23.626,18.086-2.127,4.515-7.058,9.738-11.175,14.1a54.654,54.654,0,0,0-6.005,7A99.26,99.26,0,0,1,795.68,823.3Z" transform="matrix(-0.259, -0.966, 0.966, -0.259, -472.862, 1086.839)" fill="#f2eadf" fill-rule="evenodd"/>
</svg>
