<svg xmlns="http://www.w3.org/2000/svg" width="230" height="72" viewBox="0 0 230 72">
  <g id="Group_7" data-name="Group 7" transform="translate(-4099.341 -2038.196)">
    <rect id="Rectangle_3" data-name="Rectangle 3" width="230" height="72" transform="translate(4099.341 2038.196)" fill="#dab68e" opacity="0"/>
    <g id="Group_1" data-name="Group 1" transform="translate(4281.43 2038.196)">
      <path id="Path_1" data-name="Path 1" d="M4624.437,2103.051a35.9,35.9,0,0,1-2.637,3.189,42.41,42.41,0,0,1-8.585,7.023,24.187,24.187,0,0,1,13.669-.357l.729.205-.585.479a18.808,18.808,0,0,1-9.479,4.451,15.687,15.687,0,0,1-9.484-1.921,56.343,56.343,0,0,0-8.946,5.475,22.038,22.038,0,0,1,11.389,2.452l.572.276-.5.39a13.083,13.083,0,0,1-8.64,3.025,16.993,16.993,0,0,1-9.135-3.524,20.776,20.776,0,0,0-2.909,1.808l2.579,8.3h31.8l5.546-17.863.221.344,2.287-1.469Z" transform="translate(-4584.418 -2078.053)" fill="#dab68e"/>
      <path id="Path_2" data-name="Path 2" d="M4589.763,2081.215a21.91,21.91,0,0,0,3.146-3.02,8.421,8.421,0,0,1-1.771-7.11q.694-4.29,4.694-9.917l.471-.664.231.783a19.489,19.489,0,0,1,.1,11.98,16.918,16.918,0,0,1-2.985,5.271q2-1.272,3.94-2.285h-.02l.4-.2.1-.053a26.924,26.924,0,0,0,4.8-5.771q-4.094-6.656,3.465-15.84l.614-.746.082.962a26.872,26.872,0,0,1-1.547,12.1,25.34,25.34,0,0,1-5.167,8.173,46.376,46.376,0,0,0,10.147-7.019,22.974,22.974,0,0,1,3.087-8l.012.011L4599.64,2038.2l-23.955,37.278,2.287,1.469.219-.344,2.724,8.768a19,19,0,0,1,7.887-3.429Q4589.284,2081.569,4589.763,2081.215Z" transform="translate(-4575.685 -2038.196)" fill="#dab68e"/>
    </g>
    <g id="Group_2" data-name="Group 2" transform="translate(4182.23 2102.529)">
      <path id="Path_3" data-name="Path 3" d="M4323.512,2212.809h-1.1l-2.1-3.493a.882.882,0,0,0-.884.884v2.609h-1.118v-7.454h2.066c1.629,0,2.715.841,2.715,2.108,0,.969-.628,1.534-1.652,1.747C4321.712,2209.667,4323.512,2212.809,4323.512,2212.809Zm-1.64-5.558a1.654,1.654,0,0,0-1.821-1.672.618.618,0,0,0-.617.618v2.939h.948C4321.275,2209.135,4321.872,2208.486,4321.872,2207.25Z" transform="translate(-4318.316 -2205.259)" fill="#dab68e"/>
      <path id="Path_4" data-name="Path 4" d="M4336.689,2215.408a2.247,2.247,0,0,1-2.074,1.3,2.224,2.224,0,0,1-2.321-2.384c0-2,1.021-2.779,2.554-2.779a1.888,1.888,0,0,1,1.886,1.054.446.446,0,0,1-.4.638H4334.5a1.2,1.2,0,0,0-1.216,1.2v.01c0,1.1.564,2.034,1.415,2.034a1.79,1.79,0,0,0,1.78-1.128.126.126,0,0,1,.127-.086A.1.1,0,0,1,4336.689,2215.408Zm-3.354-2.214,1.374-.012a.822.822,0,0,0,.555-1.437.633.633,0,0,0-.428-.16C4334.051,2211.585,4333.5,2212.043,4333.336,2213.194Z" transform="translate(-4326.907 -2209.062)" fill="#dab68e"/>
      <path id="Path_5" data-name="Path 5" d="M4348.062,2215.323a1.417,1.417,0,0,1-1.6,1.384,2.01,2.01,0,0,1-1.055-.255l-.246-.117a.974.974,0,0,0-.117-.064.243.243,0,0,1-.147-.224v-.8h.041c.013.011.013.011.013.021l.022.053a.043.043,0,0,1,.008.021c.344.511.789,1.182,1.481,1.182.563,0,.744-.319.744-.969a1.049,1.049,0,0,0-.927-1.108,1.678,1.678,0,0,1-1.395-1.619,1.29,1.29,0,0,1,1.437-1.288,2.9,2.9,0,0,1,1.162.234l.191.085a.209.209,0,0,1,.127.2v.756h-.031a.037.037,0,0,0-.011-.021l-.032-.054c0-.01,0-.01-.01-.021a1.791,1.791,0,0,0-1.4-1c-.51,0-.734.266-.734.82a1.257,1.257,0,0,0,1.065,1.267A1.623,1.623,0,0,1,4348.062,2215.323Z" transform="translate(-4334.647 -2209.062)" fill="#dab68e"/>
      <path id="Path_6" data-name="Path 6" d="M4357.1,2216.658a3.43,3.43,0,0,1-.554.053,2.416,2.416,0,0,1-2.461-2.151,2.441,2.441,0,0,1,2.122-2.991,3.36,3.36,0,0,1,.573-.054,2.414,2.414,0,0,1,2.45,2.14A2.464,2.464,0,0,1,4357.1,2216.658Zm1.108-2.821c-.256-1.492-1.066-2.376-1.992-2.215s-1.362,1.277-1.106,2.757,1.055,2.385,1.98,2.215S4358.476,2215.328,4358.209,2213.837Z" transform="translate(-4340.266 -2209.045)" fill="#dab68e"/>
      <path id="Path_7" data-name="Path 7" d="M4372.452,2212.33a.527.527,0,0,1-.607.555.576.576,0,0,1-.512-.564.327.327,0,0,0-.352-.341,1.092,1.092,0,0,0-1,1.128v3.5h-.949v-4.354a.61.61,0,0,1,.607-.618h.342v.064a.29.29,0,0,0,.3.3.333.333,0,0,0,.213-.085,1.4,1.4,0,0,1,.927-.373C4372.035,2211.543,4372.452,2211.862,4372.452,2212.33Z" transform="translate(-4349.484 -2209.062)" fill="#dab68e"/>
      <path id="Path_8" data-name="Path 8" d="M4381.493,2213.947a1.485,1.485,0,0,1-1.374,1.012c-.84,0-1.405-.489-1.405-1.778v-2.789h-.649v-.1a.314.314,0,0,1,.3-.319c.683-.043.872-.3.917-1a.282.282,0,0,1,.277-.277h.095v1.193h1.512v.5h-.9a.606.606,0,0,0-.608.606l-.021,2.406c0,.8.308,1.107.777,1.107a.882.882,0,0,0,.872-.628.124.124,0,0,1,.14-.075A.1.1,0,0,1,4381.493,2213.947Z" transform="translate(-4355.035 -2207.313)" fill="#dab68e"/>
      <path id="Path_9" data-name="Path 9" d="M4404.207,2211.293c-.126.883-.659,1.458-1.341,1.458a2.524,2.524,0,0,1-1.693-.958v-.011a.4.4,0,0,0-.3-.138.364.364,0,0,0-.242.1,3.586,3.586,0,0,1-2.259,1.011,2.09,2.09,0,0,1-2.088-1.906,2.466,2.466,0,0,1,1.46-2.333.409.409,0,0,0,.137-.607,2.175,2.175,0,0,1-.554-1.192,1.564,1.564,0,0,1,1.705-1.608c1.075,0,1.788.6,1.788,1.48a1.413,1.413,0,0,1-.83,1.086.683.683,0,0,0-.18,1.043c.264.31.648.746,1.255,1.459a.375.375,0,0,0,.277.128.358.358,0,0,0,.287-.138,5.674,5.674,0,0,0,.959-1.822.162.162,0,0,1,.2-.085.1.1,0,0,1,.056.128,6.856,6.856,0,0,1-.907,1.81.913.913,0,0,0,.064,1.085v.012a1.824,1.824,0,0,0,1.248.691.828.828,0,0,0,.785-.745.1.1,0,0,1,.107-.064A.091.091,0,0,1,4404.207,2211.293Zm-4.492-1.236c-.138-.159-.266-.3-.374-.426a1.139,1.139,0,0,0-.883-.415,1.168,1.168,0,0,0-1.192,1.16,1.47,1.47,0,0,0,1.64,1.5A1.1,1.1,0,0,0,4399.715,2210.057Zm-1.566-3.833a2.809,2.809,0,0,0,.81,1.491.318.318,0,0,0,.245.116.325.325,0,0,0,.16-.053,1.441,1.441,0,0,0,.7-1.246,1.074,1.074,0,0,0-1.033-1.213A.851.851,0,0,0,4398.148,2206.224Z" transform="translate(-4366.228 -2205.106)" fill="#dab68e"/>
      <path id="Path_10" data-name="Path 10" d="M4433.368,2212.809h-1.1l-2.1-3.493a.883.883,0,0,0-.886.884v2.609h-1.116v-7.454h2.066c1.628,0,2.715.841,2.715,2.108,0,.969-.629,1.534-1.65,1.747C4431.569,2209.667,4433.368,2212.809,4433.368,2212.809Zm-1.638-5.558a1.654,1.654,0,0,0-1.822-1.672.619.619,0,0,0-.618.618v2.939h.95C4431.134,2209.135,4431.73,2208.486,4431.73,2207.25Z" transform="translate(-4385.83 -2205.259)" fill="#dab68e"/>
      <path id="Path_11" data-name="Path 11" d="M4446.55,2215.408a2.318,2.318,0,0,1-4.4-1.086c0-2,1.024-2.779,2.558-2.779a1.883,1.883,0,0,1,1.882,1.054.445.445,0,0,1-.393.638h-1.841a1.2,1.2,0,0,0-1.214,1.2v.01c0,1.1.564,2.034,1.415,2.034a1.79,1.79,0,0,0,1.78-1.128.124.124,0,0,1,.126-.086A.1.1,0,0,1,4446.55,2215.408Zm-3.355-2.214,1.375-.012a.822.822,0,0,0,.552-1.437.623.623,0,0,0-.426-.16C4443.909,2211.585,4443.355,2212.043,4443.194,2213.194Z" transform="translate(-4394.419 -2209.062)" fill="#dab68e"/>
      <path id="Path_12" data-name="Path 12" d="M4457.921,2215.323a1.419,1.419,0,0,1-1.6,1.384,2.018,2.018,0,0,1-1.055-.255l-.243-.117a.965.965,0,0,0-.119-.064.241.241,0,0,1-.147-.224v-.8h.042c.01.011.01.011.01.021l.02.053s.013.011.013.021c.338.511.787,1.182,1.478,1.182.565,0,.746-.319.746-.969a1.048,1.048,0,0,0-.925-1.108,1.677,1.677,0,0,1-1.4-1.619,1.29,1.29,0,0,1,1.437-1.288,2.9,2.9,0,0,1,1.16.234l.191.085a.209.209,0,0,1,.129.2v.756h-.033a.038.038,0,0,0-.01-.021l-.032-.054c0-.01,0-.01-.011-.021a1.791,1.791,0,0,0-1.4-1c-.512,0-.734.266-.734.82a1.257,1.257,0,0,0,1.065,1.267A1.626,1.626,0,0,1,4457.921,2215.323Z" transform="translate(-4402.162 -2209.062)" fill="#dab68e"/>
      <path id="Path_13" data-name="Path 13" d="M4466.988,2213.947a1.488,1.488,0,0,1-1.372,1.012c-.843,0-1.406-.489-1.406-1.778v-2.789h-.651v-.1a.315.315,0,0,1,.3-.319c.681-.043.874-.3.915-1a.282.282,0,0,1,.277-.277h.095v1.193h1.512v.5h-.9a.606.606,0,0,0-.608.606l-.021,2.406c0,.8.308,1.107.776,1.107a.887.887,0,0,0,.875-.628.121.121,0,0,1,.139-.075A.1.1,0,0,1,4466.988,2213.947Z" transform="translate(-4407.576 -2207.313)" fill="#dab68e"/>
      <path id="Path_14" data-name="Path 14" d="M4475.667,2216.068a.141.141,0,0,0-.234-.074,2.032,2.032,0,0,1-1.309.713,1,1,0,0,1-1.118-.99c0-.766.436-1.042,2.182-1.6a.616.616,0,0,0,.427-.586v-.788c0-.787-.2-1.128-.521-1.128a1.14,1.14,0,0,0-1.032,1.033c0,.17.2.4.2.574a.522.522,0,0,1-.488.479.594.594,0,0,1-.566-.671,1.926,1.926,0,0,1,1.95-1.49c.842,0,1.406.479,1.406,1.554v2.439c0,.479.18,1.043.458,1.118v.011h-.725A.659.659,0,0,1,4475.667,2216.068Zm-.458-1.906c-1,.341-1.257.607-1.257,1.459a.605.605,0,0,0,.673.6c.371,0,.989-.234.989-.681v-1.086A.3.3,0,0,0,4475.209,2214.162Z" transform="translate(-4413.382 -2209.062)" fill="#dab68e"/>
      <path id="Path_15" data-name="Path 15" d="M4487.686,2216.753l-.011.012h-.479a.4.4,0,0,0-.662-.309,1.552,1.552,0,0,1-1,.4c-.84,0-1.395-.671-1.395-1.682v-2.769a.615.615,0,0,1,.606-.618h.342v3.387a.913.913,0,0,0,.884,1.032h.011a1.252,1.252,0,0,0,1.214-1.256v-3.163h.948v4.845C4488.015,2216.668,4487.824,2216.721,4487.686,2216.753Z" transform="translate(-4420.225 -2209.214)" fill="#dab68e"/>
      <path id="Path_16" data-name="Path 16" d="M4499.875,2212.33a.526.526,0,0,1-.607.555.575.575,0,0,1-.511-.564.328.328,0,0,0-.352-.341,1.093,1.093,0,0,0-1,1.128v3.5h-.948v-4.354a.61.61,0,0,1,.608-.618h.339v.064a.291.291,0,0,0,.3.3.332.332,0,0,0,.214-.085,1.4,1.4,0,0,1,.927-.373C4499.461,2211.543,4499.875,2211.862,4499.875,2212.33Z" transform="translate(-4427.795 -2209.062)" fill="#dab68e"/>
      <path id="Path_17" data-name="Path 17" d="M4508.456,2216.068a.141.141,0,0,0-.234-.074,2.035,2.035,0,0,1-1.31.713,1,1,0,0,1-1.117-.99c0-.766.436-1.042,2.181-1.6a.615.615,0,0,0,.428-.586v-.788c0-.787-.2-1.128-.521-1.128a1.141,1.141,0,0,0-1.033,1.033c0,.17.2.4.2.574a.525.525,0,0,1-.491.479c-.34,0-.563-.277-.563-.671a1.924,1.924,0,0,1,1.949-1.49c.841,0,1.4.479,1.4,1.554v2.439c0,.479.181,1.043.459,1.118v.011h-.724A.658.658,0,0,1,4508.456,2216.068Zm-.456-1.906c-1,.341-1.258.607-1.258,1.459a.6.6,0,0,0,.671.6c.373,0,.99-.234.99-.681v-1.086A.3.3,0,0,0,4508,2214.162Z" transform="translate(-4433.533 -2209.062)" fill="#dab68e"/>
      <path id="Path_18" data-name="Path 18" d="M4521.262,2213.365v3.247h-.946v-3.247c0-.821-.234-1.364-.7-1.364-.511,0-1.406.5-1.406,1.086v3.524h-.946v-4.354a.615.615,0,0,1,.606-.618h.339v.245a.31.31,0,0,0,.309.309.317.317,0,0,0,.2-.085,1.752,1.752,0,0,1,1.161-.564C4520.793,2211.543,4521.262,2212.267,4521.262,2213.365Z" transform="translate(-4440.58 -2209.062)" fill="#dab68e"/>
      <path id="Path_19" data-name="Path 19" d="M4531.792,2213.947a1.491,1.491,0,0,1-1.374,1.012c-.841,0-1.4-.489-1.4-1.778v-2.789h-.651v-.1a.315.315,0,0,1,.3-.319c.68-.043.874-.3.915-1a.28.28,0,0,1,.276-.277h.1v1.193h1.512v.5h-.905a.606.606,0,0,0-.606.606l-.021,2.406c0,.8.309,1.107.777,1.107a.884.884,0,0,0,.873-.628.124.124,0,0,1,.139-.075A.1.1,0,0,1,4531.792,2213.947Z" transform="translate(-4447.403 -2207.313)" fill="#dab68e"/>
    </g>
    <g id="Group_3" data-name="Group 3" transform="translate(4182.23 2069.729)">
      <path id="Path_20" data-name="Path 20" d="M4339.805,2125.449h-.453l-.175-.209c-2.477-2.791-4.466-5.058-8.513-5.058-5.023,0-8.336,4.953-8.336,12.349,0,7.083,3.557,11.826,8.861,11.826,2.615,0,4.361-1.4,4.464-3.489,0-.384,0-3.838-.033-3.838a2.9,2.9,0,0,1,2.893-2.86h.735v9.56l-.63.139a25.808,25.808,0,0,1-8.058,1.186c-7.361,0-12.245-4.988-12.245-12.524s4.884-12.524,12.28-12.524a13.165,13.165,0,0,1,5.791,1.186l3.419,1.361Z" transform="translate(-4318.316 -2120.006)" fill="#dab68e"/>
      <path id="Path_21" data-name="Path 21" d="M4385.869,2155.92a.462.462,0,0,0-.767-.244c-1.745,1.675-3.141,2.338-4.292,2.338-2.2,0-3.663-1.291-3.663-3.245,0-2.511,1.43-3.418,7.15-5.232a2.023,2.023,0,0,0,1.4-1.919v-2.582c0-2.582-.664-3.7-1.71-3.7a3.737,3.737,0,0,0-3.385,3.384c0,.559.663,1.326.663,1.884a1.718,1.718,0,0,1-1.606,1.57c-1.114,0-1.846-.907-1.846-2.2,0-1.745,2.51-4.885,6.383-4.885,2.755,0,4.6,1.569,4.6,5.093v7.989c0,1.57.594,3.419,1.5,3.663v.034h-2.372A2.151,2.151,0,0,1,4385.869,2155.92Zm-1.5-6.244c-3.279,1.116-4.115,1.989-4.115,4.78a1.978,1.978,0,0,0,2.2,1.953c1.221,0,3.245-.767,3.245-2.232v-3.558A.982.982,0,0,0,4384.369,2149.676Z" transform="translate(-4354.472 -2132.966)" fill="#dab68e"/>
      <path id="Path_22" data-name="Path 22" d="M4425.908,2143.676a1.723,1.723,0,0,1-1.99,1.813,1.886,1.886,0,0,1-1.675-1.848,1.071,1.071,0,0,0-1.15-1.117,3.58,3.58,0,0,0-3.279,3.7V2157.7h-3.105v-14.268a2,2,0,0,1,1.989-2.024h1.116v.209a.952.952,0,0,0,.976.977,1.1,1.1,0,0,0,.7-.279,4.6,4.6,0,0,1,3.034-1.22C4424.546,2141.094,4425.908,2142.142,4425.908,2143.676Z" transform="translate(-4377.554 -2132.966)" fill="#dab68e"/>
      <path id="Path_23" data-name="Path 23" d="M4458.279,2145.206h-.036l-.031.035h-1.537a1.028,1.028,0,0,0-1.047-1.047,1.146,1.146,0,0,0-.556.175,6.568,6.568,0,0,1-3.455,1.045c-4.08,0-6.77-3.349-6.77-8.338,0-5.058,2.584-8.442,7.537-8.442a4.277,4.277,0,0,1,2.688,1.047.939.939,0,0,0,.591.21,1.012,1.012,0,0,0,1.012-1.012v-6.07a1.989,1.989,0,0,1,1.99-1.989h1.082v22.467A1.981,1.981,0,0,1,4458.279,2145.206Zm-5.545-15.665c-3.14,0-4.711,2.686-4.711,6.7,0,4.745,1.919,7.885,4.85,7.885a3.81,3.81,0,0,0,3.8-3.8v-6.105C4456.675,2132.088,4455.106,2129.541,4452.734,2129.541Z" transform="translate(-4396.077 -2120.507)" fill="#dab68e"/>
      <path id="Path_24" data-name="Path 24" d="M4502.7,2153.758a7.366,7.366,0,0,1-6.8,4.256c-4.534,0-7.6-3.1-7.6-7.814,0-6.559,3.348-9.105,8.373-9.105,2.824,0,5.057,1.012,6.172,3.454a1.461,1.461,0,0,1-1.289,2.093h-6.037a3.945,3.945,0,0,0-3.976,3.942v.034c0,3.593,1.849,6.664,4.64,6.664a5.855,5.855,0,0,0,5.825-3.7.422.422,0,0,1,.42-.279A.338.338,0,0,1,4502.7,2153.758Zm-10.989-7.256,4.5-.035a2.694,2.694,0,0,0,1.814-4.709,2.06,2.06,0,0,0-1.395-.523C4494.053,2141.234,4492.236,2142.733,4491.714,2146.5Z" transform="translate(-4422.78 -2132.966)" fill="#dab68e"/>
      <path id="Path_25" data-name="Path 25" d="M4543.77,2147.06v10.64h-3.105v-10.64c0-2.686-.768-4.467-2.3-4.467-1.673,0-4.605,1.64-4.605,3.559V2157.7h-3.1v-14.268a2.018,2.018,0,0,1,1.989-2.024h1.115v.8a1.014,1.014,0,0,0,1.014,1.011,1.025,1.025,0,0,0,.662-.279,5.762,5.762,0,0,1,3.8-1.849C4542.234,2141.094,4543.77,2143.466,4543.77,2147.06Z" transform="translate(-4448.809 -2132.966)" fill="#dab68e"/>
    </g>
    <g id="Group_6" data-name="Group 6" transform="translate(4096.881 2047.8)">
      <path id="Path_26" data-name="Path 26" d="M4290.984,2071.6h1.048c.445.1.669.334.669.715q0,1.43-3.1,8.578h81.735l1.715.382v1q0,1.05-6.243,1.049h-1.334l-1-.715H4288.6c0,.381,4.236-10.16-13.4,30.889q.714,0,.713,1-2.142,4.765-4.145,4.766-1.715-.19-1.715-1l15.495-35.656-9.668.116c-.443,0-.667-.238-.667-.715q.38-1,2.1-1l8.523-.116q.573,0,4.48-8.913Z" transform="translate(-4203.309 -2068.331)" fill="#dab68e"/>
      <g id="Group_5" data-name="Group 5" transform="translate(2.46 0)">
        <g id="Group_4" data-name="Group 4">
          <path id="Path_27" data-name="Path 27" d="M4165.694,2097.668q-4.006.72-8.017,1.365l-4.755.77q-5.713,12.25-10.764,24.791a1.494,1.494,0,0,1-.791.8,1.426,1.426,0,0,1-1.107,0,1.339,1.339,0,0,1-.735-.626,1.416,1.416,0,0,1-.157-.928q.358-1.939.713-3.915a7.312,7.312,0,0,1,.137-.76q.406-2.318.773-4.67.075-.568.187-1.14a57.764,57.764,0,0,0,.953-8.174,24.818,24.818,0,0,0-.184-3.854q-4.879.59-9.769.994-4,.345-8,.5-3.975,9.054-5.316,12.56a1.485,1.485,0,0,1-1.366.88,1.256,1.256,0,0,1-.571-.113,1.526,1.526,0,0,1-.769-.792,1.435,1.435,0,0,1,0-1.108q1.118-2.89,4.759-11.283-3.9.113-7.844.039a44.813,44.813,0,0,1-9.645-1.079,23.042,23.042,0,0,1-2.377-.7,8.7,8.7,0,0,1-2.439-1.112,4.63,4.63,0,0,1-1.086-1.092,4.14,4.14,0,0,1-.63-1.534,4.3,4.3,0,0,1,.812-2.984,7.824,7.824,0,0,1,1.942-1.858,8.592,8.592,0,0,1,1.079-.71l1.087-.6a47.094,47.094,0,0,1,4.407-2.023q2.27-.864,4.629-1.513,2.359-.608,4.775-1a42.206,42.206,0,0,1,9.7-.351,25.4,25.4,0,0,1,2.765.339q4.344-9.642,6.314-13.865a1.459,1.459,0,1,1,2.636,1.25q-1.837,3.952-6.019,13.245a25.9,25.9,0,0,1,3.813,1.4,18.512,18.512,0,0,1,4.2,2.722,14.13,14.13,0,0,1,3.123,4,14.323,14.323,0,0,1,1.184,3.075q3.757-.515,7.469-1.14,8.008-17.135,17.268-33.6a1.369,1.369,0,0,1,.873-.7,1.567,1.567,0,0,1,1.115.113,1.641,1.641,0,0,1,.681.893,1.381,1.381,0,0,1-.133,1.1q-8.682,15.528-16.316,31.584,1.525-.251,3.044-.542,3.9-.712,7.787-1.461A1.878,1.878,0,0,1,4165.694,2097.668Zm-52.582,3.119q4.4.043,8.814-.141,2.669-6.073,5.314-12-1.023-.157-2.08-.236a42.441,42.441,0,0,0-9.253.359,45.966,45.966,0,0,0-4.514.979,39.455,39.455,0,0,0-4.406,1.46,45.893,45.893,0,0,0-4.228,1.936l-1.013.556c-.313.2-.612.393-.9.586a5.663,5.663,0,0,0-1.446,1.412,1.753,1.753,0,0,0,.409,2.713,7.407,7.407,0,0,0,1.9.849q1.074.341,2.18.6A44.206,44.206,0,0,0,4113.112,2100.787Zm18.83-.813q4.775-.47,9.466-1.087a12.355,12.355,0,0,0-.955-2.452,13.49,13.49,0,0,0-6.476-5.834,21.743,21.743,0,0,0-3.768-1.361q-2.485,5.537-4.992,11.223Q4128.586,2100.274,4131.942,2099.973Zm11.422,14.1q2.952-6.918,6.1-13.775-2.788.412-5.582.75a26.344,26.344,0,0,1,.243,4.189,75.472,75.472,0,0,1-.713,8.382C4143.4,2113.771,4143.382,2113.923,4143.364,2114.074Z" transform="translate(-4096.882 -2063.113)" fill="#dab68e"/>
        </g>
      </g>
    </g>
  </g>
</svg>
