<svg xmlns="http://www.w3.org/2000/svg" width="178.889" height="56" viewBox="0 0 178.889 56">
  <g id="Group_7" data-name="Group 7" transform="translate(-4099.341 -2038.196)">
    <rect id="Rectangle_3" data-name="Rectangle 3" width="178.889" height="56" transform="translate(4099.341 2038.196)" fill="#dab68e" opacity="0"/>
    <g id="Group_1" data-name="Group 1" transform="translate(4240.966 2038.196)">
      <path id="Path_1" data-name="Path 1" d="M4616.761,2103.051a27.943,27.943,0,0,1-2.051,2.48,32.981,32.981,0,0,1-6.677,5.463,18.813,18.813,0,0,1,10.632-.278l.566.159-.455.373a14.624,14.624,0,0,1-7.372,3.462,12.206,12.206,0,0,1-7.377-1.494,43.845,43.845,0,0,0-6.958,4.258,17.137,17.137,0,0,1,8.858,1.907l.445.215-.391.3a10.173,10.173,0,0,1-6.719,2.353,13.217,13.217,0,0,1-7.105-2.741,16.182,16.182,0,0,0-2.262,1.406l2.006,6.455h24.733l4.314-13.894.172.268,1.778-1.143Z" transform="translate(-4585.635 -2083.608)" fill="#dab68e"/>
      <path id="Path_2" data-name="Path 2" d="M4586.634,2071.655a17.037,17.037,0,0,0,2.447-2.349,6.55,6.55,0,0,1-1.377-5.53,19.361,19.361,0,0,1,3.651-7.713l.366-.517.18.609a15.159,15.159,0,0,1,.079,9.318,13.16,13.16,0,0,1-2.322,4.1q1.554-.989,3.064-1.778h-.015l.314-.155.079-.041a20.937,20.937,0,0,0,3.731-4.488q-3.185-5.177,2.694-12.32l.479-.58.063.748a20.9,20.9,0,0,1-1.2,9.411,19.722,19.722,0,0,1-4.019,6.357,36.087,36.087,0,0,0,7.892-5.459,17.878,17.878,0,0,1,2.4-6.222l.009.009-10.833-16.859-18.632,28.994,1.779,1.143.17-.268,2.118,6.82a14.78,14.78,0,0,1,6.134-2.667Q4586.262,2071.931,4586.634,2071.655Z" transform="translate(-4575.685 -2038.196)" fill="#dab68e"/>
    </g>
    <g id="Group_3" data-name="Group 3" transform="translate(4163.81 2062.721)">
      <path id="Path_20" data-name="Path 20" d="M4335.03,2124.239h-.352l-.136-.163c-1.927-2.171-3.474-3.934-6.622-3.934-3.907,0-6.484,3.852-6.484,9.6,0,5.509,2.767,9.2,6.892,9.2,2.034,0,3.391-1.085,3.472-2.713,0-.3,0-2.985-.026-2.985a2.259,2.259,0,0,1,2.25-2.225h.572v7.435l-.49.108a20.069,20.069,0,0,1-6.267.922c-5.725,0-9.524-3.879-9.524-9.741s3.8-9.74,9.551-9.74a10.241,10.241,0,0,1,4.5.922l2.659,1.059Z" transform="translate(-4318.316 -2120.006)" fill="#dab68e"/>
      <path id="Path_21" data-name="Path 21" d="M4383.931,2152.625a.359.359,0,0,0-.6-.19c-1.357,1.3-2.442,1.818-3.338,1.818a2.548,2.548,0,0,1-2.849-2.524c0-1.953,1.112-2.658,5.562-4.069a1.574,1.574,0,0,0,1.087-1.493v-2.008c0-2.008-.517-2.876-1.33-2.876a2.907,2.907,0,0,0-2.633,2.632c0,.435.516,1.031.516,1.465a1.336,1.336,0,0,1-1.249,1.222c-.867,0-1.436-.706-1.436-1.709,0-1.357,1.953-3.8,4.964-3.8,2.143,0,3.581,1.22,3.581,3.961v6.213c0,1.222.462,2.66,1.167,2.849v.027h-1.844A1.673,1.673,0,0,1,4383.931,2152.625Zm-1.167-4.857c-2.55.868-3.2,1.547-3.2,3.718a1.538,1.538,0,0,0,1.709,1.519c.95,0,2.524-.6,2.524-1.736V2148.5A.764.764,0,0,0,4382.764,2147.769Z" transform="translate(-4359.511 -2134.772)" fill="#dab68e"/>
      <path id="Path_22" data-name="Path 22" d="M4423.419,2143.1a1.34,1.34,0,0,1-1.547,1.411,1.467,1.467,0,0,1-1.3-1.438.833.833,0,0,0-.895-.869,2.784,2.784,0,0,0-2.551,2.876v8.927h-2.415v-11.1a1.552,1.552,0,0,1,1.547-1.574h.868v.162a.74.74,0,0,0,.759.76.856.856,0,0,0,.543-.217,3.579,3.579,0,0,1,2.36-.949C4422.359,2141.094,4423.419,2141.909,4423.419,2143.1Z" transform="translate(-4385.811 -2134.772)" fill="#dab68e"/>
      <path id="Path_23" data-name="Path 23" d="M4455.295,2139.787h-.028l-.024.027h-1.2a.8.8,0,0,0-.814-.815.89.89,0,0,0-.433.136,5.109,5.109,0,0,1-2.687.813c-3.174,0-5.266-2.6-5.266-6.485,0-3.934,2.01-6.566,5.862-6.566a3.325,3.325,0,0,1,2.09.814.73.73,0,0,0,.46.164.788.788,0,0,0,.787-.788v-4.721a1.547,1.547,0,0,1,1.548-1.547h.842v17.474A1.541,1.541,0,0,1,4455.295,2139.787Zm-4.313-12.184c-2.441,0-3.664,2.089-3.664,5.209,0,3.69,1.493,6.133,3.772,6.133a2.964,2.964,0,0,0,2.957-2.958v-4.748C4454.047,2129.584,4452.827,2127.6,4450.981,2127.6Z" transform="translate(-4406.915 -2120.576)" fill="#dab68e"/>
      <path id="Path_24" data-name="Path 24" d="M4499.5,2150.944a5.729,5.729,0,0,1-5.292,3.31c-3.526,0-5.914-2.415-5.914-6.078,0-5.1,2.6-7.082,6.513-7.082,2.2,0,3.933.787,4.8,2.687a1.135,1.135,0,0,1-1,1.627h-4.7a3.069,3.069,0,0,0-3.092,3.066v.027c0,2.794,1.438,5.183,3.608,5.183a4.554,4.554,0,0,0,4.531-2.876.328.328,0,0,1,.326-.217A.263.263,0,0,1,4499.5,2150.944Zm-8.548-5.644,3.5-.027a2.1,2.1,0,0,0,1.411-3.663,1.6,1.6,0,0,0-1.084-.407C4492.773,2141.2,4491.36,2142.369,4490.954,2145.3Z" transform="translate(-4437.339 -2134.772)" fill="#dab68e"/>
      <path id="Path_25" data-name="Path 25" d="M4540.854,2145.735v8.275h-2.416v-8.275c0-2.09-.6-3.474-1.791-3.474-1.3,0-3.582,1.276-3.582,2.768v8.981h-2.415v-11.1a1.569,1.569,0,0,1,1.547-1.574h.868v.625a.768.768,0,0,0,1.3.569,4.482,4.482,0,0,1,2.959-1.438C4539.66,2141.094,4540.854,2142.939,4540.854,2145.735Z" transform="translate(-4466.996 -2134.772)" fill="#dab68e"/>
    </g>
    <g id="Group_6" data-name="Group 6" transform="translate(4099.341 2045.666)">
      <path id="Path_26" data-name="Path 26" d="M4286.333,2071.6h.814c.346.074.521.26.521.556q0,1.112-2.41,6.672h63.572l1.333.3v.778q0,.816-4.855.815h-1.038l-.779-.556h-59.013c0,.3,3.295-7.9-10.421,24.024q.555,0,.555.779-1.666,3.706-3.223,3.707-1.334-.148-1.334-.777l12.051-27.732-7.52.09c-.345,0-.518-.185-.518-.556q.3-.779,1.63-.778l6.629-.091q.446,0,3.484-6.932Z" transform="translate(-4220.055 -2069.058)" fill="#dab68e"/>
      <g id="Group_5" data-name="Group 5" transform="translate(0 0)">
        <g id="Group_4" data-name="Group 4">
          <path id="Path_27" data-name="Path 27" d="M4150.4,2089.989q-3.116.56-6.235,1.062l-3.7.6q-4.444,9.528-8.372,19.282a1.163,1.163,0,0,1-.615.625,1.109,1.109,0,0,1-.861,0,1.04,1.04,0,0,1-.572-.487,1.1,1.1,0,0,1-.122-.722q.279-1.508.555-3.045a5.613,5.613,0,0,1,.106-.591q.315-1.8.6-3.632c.038-.295.087-.59.145-.887a44.809,44.809,0,0,0,.741-6.357,19.218,19.218,0,0,0-.143-3q-3.8.459-7.6.773-3.11.269-6.224.389-3.092,7.042-4.134,9.769a1.155,1.155,0,0,1-1.062.684.969.969,0,0,1-.444-.088,1.184,1.184,0,0,1-.6-.616,1.114,1.114,0,0,1,0-.862q.869-2.248,3.7-8.776-3.031.088-6.1.031a34.881,34.881,0,0,1-7.5-.839,17.808,17.808,0,0,1-1.849-.548,6.77,6.77,0,0,1-1.9-.865,3.584,3.584,0,0,1-.845-.849,3.212,3.212,0,0,1-.49-1.193,3.344,3.344,0,0,1,.631-2.321,6.094,6.094,0,0,1,1.511-1.445,6.7,6.7,0,0,1,.839-.553l.846-.465a36.509,36.509,0,0,1,3.428-1.574q1.765-.672,3.6-1.176,1.835-.473,3.714-.775a32.827,32.827,0,0,1,7.546-.273,19.792,19.792,0,0,1,2.151.264q3.379-7.5,4.911-10.784a1.135,1.135,0,1,1,2.05.972q-1.428,3.074-4.681,10.3a20.159,20.159,0,0,1,2.965,1.085,14.39,14.39,0,0,1,3.266,2.117,10.987,10.987,0,0,1,2.428,3.108,11.137,11.137,0,0,1,.921,2.392q2.922-.4,5.809-.887,6.229-13.327,13.431-26.136a1.065,1.065,0,0,1,.679-.541,1.22,1.22,0,0,1,.867.088,1.277,1.277,0,0,1,.53.694,1.074,1.074,0,0,1-.1.854q-6.753,12.077-12.69,24.565,1.185-.195,2.368-.422,3.029-.554,6.057-1.137A1.461,1.461,0,0,1,4150.4,2089.989Zm-40.9,2.425q3.419.034,6.855-.109,2.076-4.723,4.133-9.331-.8-.122-1.618-.183a33,33,0,0,0-7.2.279,35.691,35.691,0,0,0-3.511.762,30.648,30.648,0,0,0-3.427,1.135,35.727,35.727,0,0,0-3.288,1.506l-.788.433q-.366.229-.7.456a4.41,4.41,0,0,0-1.125,1.1,1.363,1.363,0,0,0,.318,2.11,5.777,5.777,0,0,0,1.476.661q.835.265,1.7.47A34.376,34.376,0,0,0,4109.506,2092.415Zm14.646-.632q3.713-.366,7.362-.846a9.649,9.649,0,0,0-.743-1.907,10.493,10.493,0,0,0-5.036-4.538,16.907,16.907,0,0,0-2.931-1.059q-1.933,4.307-3.883,8.729Q4121.54,2092.016,4124.151,2091.782Zm8.884,10.967q2.3-5.38,4.743-10.714-2.168.321-4.342.583a20.513,20.513,0,0,1,.189,3.259,58.731,58.731,0,0,1-.555,6.52C4133.06,2102.514,4133.049,2102.632,4133.035,2102.749Z" transform="translate(-4096.882 -2063.113)" fill="#dab68e"/>
        </g>
      </g>
    </g>
  </g>
</svg>
