<svg xmlns="http://www.w3.org/2000/svg" xmlns:xlink="http://www.w3.org/1999/xlink" width="101.053" height="120" viewBox="0 0 101.053 120">
  <defs>
    <clipPath id="clip-path">
      <rect id="Rectangle_47" data-name="Rectangle 47" width="101.053" height="120" transform="translate(53 45)" fill="#fff"/>
    </clipPath>
  </defs>
  <g id="Group_46" data-name="Group 46" transform="translate(-53 -45)" clip-path="url(#clip-path)">
    <path id="Path_1208" data-name="Path 1208" d="M133.173,78.783a76.407,76.407,0,0,1-5.561,6.8,89.661,89.661,0,0,1-18.121,14.953q15.308-4.612,28.827-.764l1.538.436-1.236,1.019q-9.9,8.22-19.991,9.494-9.951,1.291-20.007-4.11a118.55,118.55,0,0,0-18.861,11.673q11.381-.921,24.015,5.228l1.211.592-1.065.821Q95.24,131.73,85.7,131.376q-9.292-.346-19.267-7.513a43.7,43.7,0,0,0-6.13,3.854l5.431,17.7h67.07l11.708-38.1.463.732,4.822-3.132Z" transform="translate(4.23 19.559)" fill="#dab68e"/>
    <path id="Path_1209" data-name="Path 1209" d="M82.69,136.767a45.813,45.813,0,0,0,6.634-6.444q-5.17-6.214-3.732-15.158,1.48-9.149,9.9-21.151l.992-1.406.488,1.644q4.065,14.147.211,25.557a36.276,36.276,0,0,1-6.292,11.237q4.211-2.713,8.309-4.875l.813-.427.211-.107a57.155,57.155,0,0,0,10.122-12.33q-8.634-14.2,7.317-33.786l1.293-1.587.179,2.047a58.013,58.013,0,0,1-3.252,25.812,54.166,54.166,0,0,1-10.894,17.427A98.027,98.027,0,0,0,126.4,108.252a49.186,49.186,0,0,1,6.5-17.065L103.518,44.964,53,124.462l4.821,3.132.463-.732,5.748,18.7a39.74,39.74,0,0,1,16.633-7.317C81.34,137.821,82.015,137.27,82.69,136.767Z" transform="translate(0 -0.021)" fill="#dab68e"/>
  </g>
</svg>
