<svg id="logo-3conn" xmlns="http://www.w3.org/2000/svg" width="48" height="16" viewBox="0 0 48 16">
  <rect id="boundingbox" width="48" height="16" fill="#fff" opacity="0"/>
  <path id="logo-3conn-2" data-name="logo-3conn" d="M11.079,10.441a2.823,2.823,0,0,1-.949-.654,3.1,3.1,0,0,1-.653-1.052,4.012,4.012,0,0,1-.239-1.426A4.014,4.014,0,0,1,9.447,6a2.982,2.982,0,0,1,.619-1.057,2.883,2.883,0,0,1,1.012-.7,3.57,3.57,0,0,1,1.394-.256,3.423,3.423,0,0,1,1.341.243,3.268,3.268,0,0,1,1.035.712l-.511.682a1.221,1.221,0,0,1-.169.167.368.368,0,0,1-.231.066.5.5,0,0,1-.259-.071c-.077-.044-.164-.1-.258-.152a1.715,1.715,0,0,0-.337-.152,1.581,1.581,0,0,0-1.1.059,1.186,1.186,0,0,0-.429.375,1.81,1.81,0,0,0-.25.6,3.591,3.591,0,0,0-.081.8,2.434,2.434,0,0,0,.36,1.431,1.15,1.15,0,0,0,.991.5,1.394,1.394,0,0,0,.535-.086,1.547,1.547,0,0,0,.335-.189c.09-.067.173-.131.252-.188a.463.463,0,0,1,.291-.086.4.4,0,0,1,.35.169l.562.69a2.989,2.989,0,0,1-.631.56,3.332,3.332,0,0,1-.678.338,3.462,3.462,0,0,1-.7.167,5.131,5.131,0,0,1-.681.049A2.938,2.938,0,0,1,11.079,10.441Zm-8.667.065a3.122,3.122,0,0,1-1.03-.5A3.291,3.291,0,0,1,.59,9.132,5.772,5.772,0,0,1,0,7.872l.986-.4A1.261,1.261,0,0,1,1.7,7.389a.684.684,0,0,1,.472.333,2.644,2.644,0,0,0,.682.862,1.4,1.4,0,0,0,.852.269,1.552,1.552,0,0,0,.649-.127,1.341,1.341,0,0,0,.733-.77,1.463,1.463,0,0,0,.092-.509,3.3,3.3,0,0,0-.046-.6.772.772,0,0,0-.261-.462,1.436,1.436,0,0,0-.647-.3,5.46,5.46,0,0,0-1.208-.1V4.448a4.337,4.337,0,0,0,1.052-.1,1.562,1.562,0,0,0,.619-.274.829.829,0,0,0,.291-.425,2,2,0,0,0,.071-.554,1.375,1.375,0,0,0-.3-.948,1.156,1.156,0,0,0-.905-.333,1.334,1.334,0,0,0-1.307.91.913.913,0,0,1-.392.521,1.1,1.1,0,0,1-.693.058L.286,3.093a3.939,3.939,0,0,1,.441-1.36A3.158,3.158,0,0,1,1.535.768,3.322,3.322,0,0,1,2.641.189,4.578,4.578,0,0,1,3.983,0,4,4,0,0,1,5.358.22,3.089,3.089,0,0,1,6.376.81a2.517,2.517,0,0,1,.631.86A2.592,2.592,0,0,1,7.22,2.707a3.456,3.456,0,0,1-.1.871,1.976,1.976,0,0,1-.3.651,1.741,1.741,0,0,1-.487.465,3.057,3.057,0,0,1-.662.319A2.331,2.331,0,0,1,7.407,7.378a3.273,3.273,0,0,1-.3,1.446,2.934,2.934,0,0,1-.8,1.023,3.386,3.386,0,0,1-1.174.616,4.79,4.79,0,0,1-1.389.2A5.024,5.024,0,0,1,2.412,10.506Zm38.489.048a1.235,1.235,0,0,1-.418-.271,1.262,1.262,0,0,1-.383-.922,1.254,1.254,0,0,1,.383-.915A1.3,1.3,0,0,1,40.9,8.17a1.428,1.428,0,0,1,1.049,0,1.4,1.4,0,0,1,.425.275,1.265,1.265,0,0,1,.281.408,1.239,1.239,0,0,1,.1.508,1.288,1.288,0,0,1-.1.512,1.313,1.313,0,0,1-.281.41,1.327,1.327,0,0,1-.425.271,1.478,1.478,0,0,1-1.049,0Zm-22.858-.172a3.028,3.028,0,0,1-1.052-.67,2.951,2.951,0,0,1-.679-1.055,3.809,3.809,0,0,1-.241-1.4,3.759,3.759,0,0,1,.241-1.385,2.977,2.977,0,0,1,.679-1.046,3.02,3.02,0,0,1,1.052-.661,4,4,0,0,1,2.7,0,2.946,2.946,0,0,1,1.04.661,3.061,3.061,0,0,1,.676,1.046A3.816,3.816,0,0,1,22.7,7.26a3.867,3.867,0,0,1-.24,1.4,3.032,3.032,0,0,1-.676,1.055,2.954,2.954,0,0,1-1.04.67,4,4,0,0,1-2.7,0Zm.348-4.539a2.535,2.535,0,0,0-.321,1.431,2.572,2.572,0,0,0,.321,1.435,1.119,1.119,0,0,0,1,.469,1.1,1.1,0,0,0,.985-.469,2.607,2.607,0,0,0,.316-1.435,2.57,2.57,0,0,0-.316-1.431,1.1,1.1,0,0,0-.985-.47A1.12,1.12,0,0,0,18.392,5.843Zm18.056,4.725V6.447a1.136,1.136,0,0,0-.22-.741.793.793,0,0,0-.644-.266,1.382,1.382,0,0,0-.6.135,2.325,2.325,0,0,0-.54.367v4.625H32.511V4.084h1.2a.455.455,0,0,1,.475.328l.113.373a4.687,4.687,0,0,1,.387-.323,2.127,2.127,0,0,1,.427-.252,2.481,2.481,0,0,1,.493-.166,2.8,2.8,0,0,1,.579-.058,2.28,2.28,0,0,1,.94.183,2,2,0,0,1,.693.514,2.261,2.261,0,0,1,.423.779,3.235,3.235,0,0,1,.144.985v4.121Zm-8.014,0V6.447a1.141,1.141,0,0,0-.219-.741.789.789,0,0,0-.641-.266,1.378,1.378,0,0,0-.6.135,2.348,2.348,0,0,0-.541.367v4.625H24.5V4.084h1.2a.458.458,0,0,1,.475.328l.113.373a4.828,4.828,0,0,1,.386-.323,2.109,2.109,0,0,1,.427-.252,2.434,2.434,0,0,1,.492-.166,2.792,2.792,0,0,1,.577-.058,2.293,2.293,0,0,1,.943.183,1.978,1.978,0,0,1,.69.514,2.3,2.3,0,0,1,.427.779,3.32,3.32,0,0,1,.142.985v4.121Z" transform="translate(2.454 2.667)" fill="#fff" stroke="rgba(0,0,0,0)" stroke-width="1"/>
</svg>
