<svg xmlns="http://www.w3.org/2000/svg" width="252.926" height="88" viewBox="0 0 252.926 88">
  <path id="Union_1" data-name="Union 1" d="M61.6,88a2.038,2.038,0,0,1-.8-.169,1.99,1.99,0,0,1-1.036-.9,2.061,2.061,0,0,1-.219-1.288c.356-1.835.682-3.669,1.01-5.475a2.129,2.129,0,0,1,.19-1.068c.382-2.163.737-4.354,1.091-6.572a11.739,11.739,0,0,1,.245-1.615,78.634,78.634,0,0,0,1.336-11.5,35.675,35.675,0,0,0-.245-5.475c-4.554.547-9.136,1.013-13.636,1.4-3.736.328-7.472.547-11.208.711q-5.455,12.735-7.446,17.689a2.185,2.185,0,0,1-1.937,1.232,1.8,1.8,0,0,1-.791-.164,2.023,2.023,0,0,1-1.063-1.124,1.955,1.955,0,0,1,0-1.56c1.036-2.739,3.273-8,6.655-15.88H22.831A63.26,63.26,0,0,1,9.194,54.726a31.437,31.437,0,0,1-3.328-1.013A11.888,11.888,0,0,1,2.43,52.151,6.775,6.775,0,0,1,.9,50.618a6.322,6.322,0,0,1-.872-2.163,6.043,6.043,0,0,1,1.145-4.189A10.747,10.747,0,0,1,3.9,41.528a10.083,10.083,0,0,1,1.5-.986l1.528-.849a60.444,60.444,0,0,1,6.191-2.737,64.661,64.661,0,0,1,6.489-2.137c2.21-.573,4.445-1.041,6.683-1.4a59.426,59.426,0,0,1,13.636-.492A36.94,36.94,0,0,1,43.8,33.4c4.064-9.035,7.037-15.552,8.863-19.522a1.94,1.94,0,0,1,.466-.641,1.921,1.921,0,0,1,.68-.4,1.87,1.87,0,0,1,1.581,0,2.034,2.034,0,0,1,.982,2.737q-2.564,5.477-8.456,18.647a38.3,38.3,0,0,1,5.455,1.971,26.231,26.231,0,0,1,5.89,3.833,20.154,20.154,0,0,1,4.392,5.642,20.815,20.815,0,0,1,1.663,4.325c3.491-.492,7.009-1.011,10.472-1.614Q87,24.25,100.011,1.057a1.943,1.943,0,0,1,1.227-.984,2.194,2.194,0,0,1,1.554.164,2.273,2.273,0,0,1,.955,1.258,1.869,1.869,0,0,1,.076.8,1.831,1.831,0,0,1-.268.758Q91.42,24.963,80.674,47.524l4.283-.766,10.907-2.052a2.706,2.706,0,0,1,.831.809,2.742,2.742,0,0,1-.175,3.27c-3.737.656-7.5,1.315-11.237,1.917L78.6,51.77q-7.99,17.25-15.081,34.91a2.076,2.076,0,0,1-.442.7,2.049,2.049,0,0,1-.677.464A2.021,2.021,0,0,1,61.62,88Zm4.432-34.478a36.207,36.207,0,0,1,.354,5.915,105.258,105.258,0,0,1-1.008,11.8,1.433,1.433,0,0,0-.164.6l.109.029c2.728-6.491,5.619-12.953,8.537-19.387C71.265,52.864,68.648,53.219,66.029,53.521ZM26.812,36.245c-2.154.356-4.254.82-6.327,1.369a54.774,54.774,0,0,0-6.191,2.08,60.639,60.639,0,0,0-5.918,2.739l-1.419.794-1.281.82a8.2,8.2,0,0,0-2.018,1.973,2.488,2.488,0,0,0-.625,2.054,2.47,2.47,0,0,0,.4,1.026,2.5,2.5,0,0,0,.8.753,11.055,11.055,0,0,0,2.726,1.2c.982.3,2.018.6,3.056.849a61.274,61.274,0,0,0,12.763,1.26h.109c4.119,0,8.181,0,12.354-.192,2.51-5.723,4.991-11.336,7.473-16.893a26.3,26.3,0,0,0-2.918-.331q-2.131-.154-4.266-.154A58.733,58.733,0,0,0,26.812,36.245ZM39.875,52.7c3.054-.026,6.163-.411,9.3-.685h.109c4.473-.438,8.891-.958,13.283-1.533a17.15,17.15,0,0,0-1.336-3.45,19.125,19.125,0,0,0-9.082-8.215A29.77,29.77,0,0,0,46.856,36.9Q43.393,44.706,39.875,52.7Zm53.7,17.742,21.818-50.217-13.636.164c-.628,0-.955-.328-.955-1.011s1.336-1.4,2.945-1.4l11.972-.164q.765,0,6.274-12.568l.981-.523h1.473a.932.932,0,0,1,.955,1.015,54.042,54.042,0,0,1-4.363,12.076H235.582l2.4.52v1.422q0,1.481-8.753,1.479h-1.883l-1.39-1.013H119.615a5.341,5.341,0,0,0,.325-.656c.3-.67.553-1.339-.346.656h0a.054.054,0,0,0,0,.006c-1.484,3.295-6.1,13.827-18.79,43.5q.981,0,.982,1.4c-1.992,4.463-3.927,6.707-5.809,6.707S93.575,71.183,93.575,70.442Zm61.172-4.364a4.588,4.588,0,0,1-2.809-2.491,4.6,4.6,0,0,1-.411-1.878c0-3.561,1.991-4.82,10.037-7.394a2.739,2.739,0,0,0,1.937-2.739v-3.64c0-3.643-.927-5.2-2.4-5.2a5.247,5.247,0,0,0-4.744,4.765c0,.794.927,1.861.927,2.739a2.416,2.416,0,0,1-.714,1.508,2.39,2.39,0,0,1-1.523.68,2.821,2.821,0,0,1-2.726-3.093,8.847,8.847,0,0,1,8.944-6.874c3.874,0,6.463,2.219,6.463,7.175V60.886c0,2.219.818,4.82,2.1,5.15H166.5a3.034,3.034,0,0,1-2.755-2.711.659.659,0,0,0-.153-.3.652.652,0,0,0-.281-.183.648.648,0,0,0-.63.125,9.4,9.4,0,0,1-6.028,3.284,4.542,4.542,0,0,1-1.908-.175Zm6.9-11.544c-4.609,1.56-5.782,2.739-5.782,6.707a2.713,2.713,0,0,0,.234,1.138,2.77,2.77,0,0,0,.684.937,2.716,2.716,0,0,0,2.163.664c1.718,0,4.556-1.094,4.556-3.148V55.82a1.369,1.369,0,0,0-.156-.64,1.351,1.351,0,0,0-.432-.5,1.4,1.4,0,0,0-.615-.234,1.312,1.312,0,0,0-.163-.01A1.341,1.341,0,0,0,161.647,54.535Zm56.406,11.021A10.25,10.25,0,0,1,211.608,55.3c0-9.256,4.692-12.843,11.727-12.843a8.645,8.645,0,0,1,8.675,4.876,2.116,2.116,0,0,1,.188,1,2.077,2.077,0,0,1-1.021,1.677,2.056,2.056,0,0,1-.968.284h-8.483a5.466,5.466,0,0,0-5.454,5.476c0,5.066,2.726,9.392,6.491,9.392a8.185,8.185,0,0,0,8.181-5.2.639.639,0,0,1,.234-.3.629.629,0,0,1,.367-.11.73.73,0,0,1,.273.739,10.36,10.36,0,0,1-9.545,5.97q-.247.012-.493.012A10.119,10.119,0,0,1,218.053,65.555Zm-1.645-15.62v.11h6.3A3.8,3.8,0,0,0,226.27,47.6a3.816,3.816,0,0,0-1.026-4.208,2.906,2.906,0,0,0-1.935-.74h-.065C219.65,42.65,217.14,44.79,216.409,49.935Zm-79.39,16.237c-10.308,0-17.155-7.011-17.155-17.634S126.711,30.9,137.074,30.9a18.393,18.393,0,0,1,8.181,1.671l4.8,1.916-.19,4.161h-.573l-.245-.3c-3.465-3.916-6.246-7.119-11.919-7.119-7.063,0-11.7,6.983-11.7,17.387S130.419,65.3,137.865,65.3c3.655,0,6.108-1.971,6.244-4.929V54.89a4.1,4.1,0,0,1,4.064-4.025h1.037V64.308l-.873.193a36.061,36.061,0,0,1-10.86,1.674Zm51.19-11.912c0-7.037,3.627-11.883,10.555-11.883a5.951,5.951,0,0,1,3.763,1.477,1.387,1.387,0,0,0,.846.3,1.419,1.419,0,0,0,1.417-1.424V34.189a2.736,2.736,0,0,1,2.728-2.739h1.526V63.105a2.732,2.732,0,0,1-2.1,2.656H204.79a1.485,1.485,0,0,0-.1-.57,1.422,1.422,0,0,0-.32-.484,1.431,1.431,0,0,0-1.049-.425,1.757,1.757,0,0,0-.791.247,9.092,9.092,0,0,1-4.829,1.479C191.974,66.008,188.209,61.3,188.209,54.26Zm10.964-10.406c-4.39,0-6.6,3.78-6.6,9.422,0,6.679,2.728,11.115,6.791,11.115a5.463,5.463,0,0,0,5.454-5.476v-8.6a6.345,6.345,0,0,0-5.645-6.6Zm49.389,21.961V50.839c0-3.78-1.063-6.3-3.218-6.3s-6.463,2.327-6.463,5.009V65.815h-4.335v-20.1a2.746,2.746,0,0,1,.8-1.935,2.715,2.715,0,0,1,1.929-.8h1.554v1.148a1.422,1.422,0,0,0,1.419,1.424,1.364,1.364,0,0,0,.927-.409,8.168,8.168,0,0,1,5.455-2.739c4.119.028,6.3,3.369,6.3,8.434V65.815Zm-76.743-.136V45.58a2.727,2.727,0,0,1,2.726-2.737H176.1v.3a1.311,1.311,0,0,0,.383.984,1.333,1.333,0,0,0,.45.3,1.319,1.319,0,0,0,.531.088,1.518,1.518,0,0,0,.981-.385A6.534,6.534,0,0,1,182.7,42.4c2.916.028,4.77,1.507,4.77,3.669a2.4,2.4,0,0,1-2.728,2.546,2.717,2.717,0,0,1-1.684-.925,2.753,2.753,0,0,1-.661-1.814,1.469,1.469,0,0,0-.107-.619,1.5,1.5,0,0,0-1.5-.942,5.034,5.034,0,0,0-4.609,5.2V65.679ZM119.592,20.231l0-.006h.021c-.008.01-.014.015-.018.015S119.592,20.237,119.592,20.231Z" transform="translate(0)" fill="#fff"/>
</svg>
