<svg xmlns="http://www.w3.org/2000/svg" xmlns:xlink="http://www.w3.org/1999/xlink" width="170" height="240" viewBox="0 0 170 240">
  <defs>
    <clipPath id="clip-path">
      <rect id="Rectangle_23" data-name="Rectangle 23" width="170" height="240" transform="translate(0 0.05)" fill="#fff"/>
    </clipPath>
  </defs>
  <g id="Layer_1" transform="translate(0 -0.05)" clip-path="url(#clip-path)">
    <path id="Path_53" data-name="Path 53" d="M85.008,3.784A81.694,81.694,0,0,0,3.7,85.413V236.362H166.311V85.383a81.725,81.725,0,0,0-81.3-81.6Zm0-3.7A85.391,85.391,0,0,1,170,85.413V240.065H0V85.383A85.42,85.42,0,0,1,85.008.05Z" fill="#dab68e"/>
    <path id="Path_54" data-name="Path 54" d="M67.773,121.644q-6.924-4.554-17.491-2.656a17.344,17.344,0,0,0,8,3.658A19.589,19.589,0,0,0,67.773,121.644Zm-2.555-22.13a47.235,47.235,0,0,0-14.679-7.665,12.019,12.019,0,0,0,5.367,7.407C58.355,100.516,61.378,100.607,65.218,99.514Zm35.255-10A47.536,47.536,0,0,0,95.5,90.589q10.9,9.486,18.142-2.034A81.885,81.885,0,0,0,100.473,89.511ZM94.426,50.184a55.323,55.323,0,0,0-10.885-22.16q0,9.714,2.736,15.285a12.485,12.485,0,0,0,8.194,6.876ZM78.341,74.894a36.342,36.342,0,0,1-2.555-3.036Q73.7,69.233,71.25,65.575a12.505,12.505,0,0,0,2.4,6.193,9.068,9.068,0,0,0,4.732,3.127ZM72.46,63.268c1.859,2.854,3.583,5.267,5.14,7.225.922,1.169,1.784,2.171,2.6,3.036-.121-.5-.257-.971-.408-1.427q-2.086-6.739-7.287-8.834ZM54.47,90.832a48.32,48.32,0,0,1,11.414,6.314,7.735,7.735,0,0,0-3.916-4.827,16.227,16.227,0,0,0-7.453-1.487Zm-.65,25.393a25.084,25.084,0,0,1,12.926,2.216,8.886,8.886,0,0,0-5.579-3.491A13.242,13.242,0,0,0,53.819,116.225Zm67.349-.956a31.3,31.3,0,0,1-4.248,2.96,66.342,66.342,0,0,1-7.271,3.658,18.976,18.976,0,0,0,8.481-3.036,9.481,9.481,0,0,0,3.069-3.582Zm-17.037,6.405a79.884,79.884,0,0,0,11.61-5.434,22.788,22.788,0,0,0,5.654-4.386,15.059,15.059,0,0,0-10.582,1.442,16.819,16.819,0,0,0-6.652,8.378ZM99.6,87.326l.545-.091a82.183,82.183,0,0,1,12.094-.986Q107,83.455,99.551,87.265ZM86.141,27.538A59.545,59.545,0,0,1,95.53,45.13a21.612,21.612,0,0,0-1.965-10.382,16.174,16.174,0,0,0-7.468-7.21ZM87.85,167.3q-6.969-13.068-7.982-22.373Q74.743,133.695,69.6,130.538a3.126,3.126,0,0,1-5.227-1.267,3.146,3.146,0,0,1,1.509-3.7,3.121,3.121,0,0,1,3.9.778,3.153,3.153,0,0,1,.707,2,24.029,24.029,0,0,1,7.559,8.272,29.583,29.583,0,0,0-8.088-13.372,22.6,22.6,0,0,1-12.094,1.624,20.414,20.414,0,0,1-10.915-5.768l-1.512-1.518,2-.486q8.209-5.463,14.15-4.553c4.067.668,7.257,3.537,9.539,8.576a30.84,30.84,0,0,1,8.889,14.009q.091-15.709-6.3-26.2a36.29,36.29,0,0,0-6.41-7.787c-5.019,1.73-9.161,1.746-12.442,0s-5.79-5.434-7.105-10.9l-.469-1.928,1.663.486q9.207-1.26,14.135,1.336a10.462,10.462,0,0,1,5.594,9.107,37.444,37.444,0,0,1,5.941,6.83A121.62,121.62,0,0,1,71.6,93.7a40.877,40.877,0,0,1-.862-7.923,3.122,3.122,0,1,1,2.3.288,38.712,38.712,0,0,0,.816,7.21q.968,5.1,3.024,12.249a19.41,19.41,0,0,1,3.568-8.469,78.833,78.833,0,0,0,.62-19.474,12.468,12.468,0,0,1-9.071-4.462q-3.3-4.144-3.145-11.9V59.9l1.3.2q8.829,1.381,11.943,11.141a46.028,46.028,0,0,1,1.618,15.178,109.935,109.935,0,0,0,1.708-11.232,71,71,0,0,0,0-14.343,3.127,3.127,0,1,1,2.283-.3,72.79,72.79,0,0,1,0,14.86,113.737,113.737,0,0,1-2.026,12.826q9.645-14.708,9.8-28.839a41.767,41.767,0,0,0-.484-6.861A14.674,14.674,0,0,1,84.327,44.2c-2.328-4.645-3.281-11.156-2.9-19.519l.136-2.929,1.678,1.988C89.15,25.626,93.292,28.9,95.62,33.579S98.463,44.2,97.132,51.55a44.065,44.065,0,0,1,.62,7.847Q97.6,74.7,86.958,90.452a69.011,69.011,0,0,0,8.889-11.384A46.531,46.531,0,0,0,101.758,65a3.2,3.2,0,0,1-1.054-4.369,3.148,3.148,0,1,1,3.246,4.749,48.563,48.563,0,0,1-6.213,14.844,68.283,68.283,0,0,1-6.894,9.259c.6-.228,1.209-.455,1.844-.653q14.6-11.065,23.4-2.762h1.436l-.892,1.67q-9.222,17.121-23.7,3.415a25.529,25.529,0,0,0-7.468,3.916c-.726.7-1.512,1.4-2.252,2.095a18.257,18.257,0,0,0-4.445,12.279,32.856,32.856,0,0,0,.438,5.677,49.542,49.542,0,0,1,2.117,7.969q1.27-14.86,4.656-20.552a3.043,3.043,0,0,1-.393-1.518,3.142,3.142,0,0,1,1.932-2.9,3.13,3.13,0,0,1,4.267,2.289,3.148,3.148,0,0,1-1.331,3.226,3.122,3.122,0,0,1-1.739.529,3.411,3.411,0,0,1-.983-.151q-3.7,6.358-4.535,26.486a17.565,17.565,0,0,1,5.654-4.554,34.389,34.389,0,0,1,12.547-3.506q2.858-8.06,8.27-11.277,5.684-3.4,14.029-1.336l.937.228V111a12.012,12.012,0,0,1-5.019,9.577c-3.023,2.186-7.332,3.446-12.986,3.795q-10.582.365-16.63,3.6a14.576,14.576,0,0,0-6.047,5.813,14.365,14.365,0,0,0-1.512,4.554q-.091,2.034-.272,4.144.318,9.38,7.877,23.572Z" fill="#dab68e"/>
    <path id="Path_55" data-name="Path 55" d="M97.979,200.92h-.317l-.136-.167c-1.92-2.17-3.462-3.946-6.606-3.946-3.916,0-6.486,3.871-6.486,9.638s2.767,9.244,6.894,9.244c2.026,0,3.386-1.093,3.462-2.732v-3.036a2.272,2.272,0,0,1,2.253-2.231h.574v7.452l-.484.107a19.985,19.985,0,0,1-6.274.926c-5.715,0-9.509-3.886-9.509-9.775s3.795-9.775,9.539-9.775a10.206,10.206,0,0,1,4.535.926l2.661,1.062Z" fill="#dab68e"/>
    <path id="Path_56" data-name="Path 56" d="M105.674,214.6a.364.364,0,0,0-.085-.164.362.362,0,0,0-.339-.114.364.364,0,0,0-.166.081,5.211,5.211,0,0,1-3.341,1.821,2.538,2.538,0,0,1-2.615-1.478A2.555,2.555,0,0,1,98.9,213.7c0-1.974,1.1-2.672,5.563-4.1a1.505,1.505,0,0,0,.8-.574,1.528,1.528,0,0,0,.278-.944v-2.018c0-2.019-.514-2.884-1.331-2.884a2.908,2.908,0,0,0-2.63,2.641c0,.44.514,1.032.514,1.518a1.343,1.343,0,0,1-.4.837,1.326,1.326,0,0,1-.844.377,1.565,1.565,0,0,1-1.512-1.715,4.9,4.9,0,0,1,4.959-3.81c2.147,0,3.583,1.23,3.583,3.977v6.238c0,1.23.453,2.672,1.164,2.854H107.2a1.682,1.682,0,0,1-1.527-1.5Zm-1.164-4.872c-2.555.865-3.205,1.518-3.205,3.718a1.515,1.515,0,0,0,1.069,1.465,1.5,1.5,0,0,0,.639.053c.952,0,2.525-.607,2.525-1.745v-2.778a.766.766,0,0,0-.086-.355.757.757,0,0,0-.24-.275.768.768,0,0,0-.341-.129A.742.742,0,0,0,104.51,209.724Z" fill="#dab68e"/>
    <path id="Path_57" data-name="Path 57" d="M118.826,205.034a1.339,1.339,0,0,1-.421,1.066,1.321,1.321,0,0,1-1.091.345,1.507,1.507,0,0,1-.934-.513,1.525,1.525,0,0,1-.366-1.005.823.823,0,0,0-.059-.343.85.85,0,0,0-.194-.29.835.835,0,0,0-.639-.232,2.791,2.791,0,0,0-2.555,2.884V215.9h-2.418V204.76a1.513,1.513,0,0,1,1.511-1.517h.862v.167a.729.729,0,0,0,.462.71.737.737,0,0,0,.294.049.846.846,0,0,0,.544-.213,3.619,3.619,0,0,1,2.359-.956C117.8,203.015,118.826,203.835,118.826,205.034Z" fill="#dab68e"/>
    <path id="Path_58" data-name="Path 58" d="M129.62,215.947h-1.194a.813.813,0,0,0-.058-.316.788.788,0,0,0-.177-.268.8.8,0,0,0-.581-.236.978.978,0,0,0-.439.137,5.036,5.036,0,0,1-2.676.82c-3.174,0-5.261-2.611-5.261-6.512s2.011-6.587,5.851-6.587a3.289,3.289,0,0,1,2.086.819.771.771,0,0,0,.469.167.787.787,0,0,0,.786-.789v-4.736a1.516,1.516,0,0,1,1.512-1.518h.846v17.547a1.514,1.514,0,0,1-1.164,1.472ZM125.312,203.8c-2.434,0-3.659,2.1-3.659,5.222,0,3.7,1.512,6.162,3.765,6.162a3.028,3.028,0,0,0,3.023-3.036v-4.766a3.517,3.517,0,0,0-3.129-3.658Z" fill="#dab68e"/>
    <path id="Path_59" data-name="Path 59" d="M143.408,212.911a5.742,5.742,0,0,1-5.291,3.309,5.647,5.647,0,0,1-4.315-1.7,5.691,5.691,0,0,1-1.6-4.369c0-5.131,2.6-7.119,6.5-7.119a4.79,4.79,0,0,1,4.808,2.7,1.158,1.158,0,0,1-.062,1.088,1.144,1.144,0,0,1-.936.551h-4.7a3.028,3.028,0,0,0-3.023,3.036c0,2.808,1.511,5.206,3.6,5.206a4.535,4.535,0,0,0,4.535-2.884.349.349,0,0,1,.333-.228A.405.405,0,0,1,143.408,212.911Zm-8.542-5.676h3.492a2.106,2.106,0,0,0,1.975-1.356,2.117,2.117,0,0,0-.569-2.333,1.614,1.614,0,0,0-1.073-.41c-2.011-.015-3.417,1.169-3.825,4.038Z" fill="#dab68e"/>
    <path id="Path_60" data-name="Path 60" d="M155.109,207.675v8.3H152.69v-8.3c0-2.1-.59-3.491-1.784-3.491s-3.583,1.29-3.583,2.777v9.016h-2.4V204.836a1.523,1.523,0,0,1,.442-1.073,1.507,1.507,0,0,1,1.069-.444h.862v.637a.787.787,0,0,0,.786.789.753.753,0,0,0,.514-.227A4.529,4.529,0,0,1,151.617,203C153.9,203.015,155.109,204.867,155.109,207.675Z" fill="#dab68e"/>
    <path id="Path_61" data-name="Path 61" d="M83.072,182.114h.816a.517.517,0,0,1,.529.562A29.945,29.945,0,0,1,82,189.37h63.495l1.33.288v.789q0,.82-4.852.82h-1.044l-.771-.562H81.2c0,.3,3.3-7.938-10.416,24.119q.544,0,.544.774c-1.1,2.474-2.177,3.718-3.22,3.718s-1.33-.364-1.33-.774L78.87,190.705l-7.559.091c-.348,0-.529-.182-.529-.561s.741-.774,1.633-.774l6.637-.091q.423,0,3.477-6.967Z" fill="#dab68e"/>
    <path id="Path_62" data-name="Path 62" d="M68.408,206.536c-2.071.364-4.157.729-6.229,1.063l-3.7.592q-4.429,9.563-8.36,19.352a1.143,1.143,0,0,1-.244.386,1.134,1.134,0,0,1-1.267.252,1.108,1.108,0,0,1-.574-.5,1.145,1.145,0,0,1-.121-.714c.2-1.017.378-2.034.559-3.035a1.175,1.175,0,0,1,.106-.592c.212-1.2.408-2.414.6-3.643a6.451,6.451,0,0,1,.136-.9,43.578,43.578,0,0,0,.741-6.375,19.813,19.813,0,0,0-.136-3.035c-2.525.3-5.064.561-7.559.774-2.071.182-4.142.3-6.213.394q-3.024,7.059-4.127,9.806a1.211,1.211,0,0,1-1.073.683,1,1,0,0,1-.438-.091,1.122,1.122,0,0,1-.59-.623,1.081,1.081,0,0,1,0-.865c.575-1.518,1.814-4.432,3.689-8.8H27.56A35.008,35.008,0,0,1,20,209.83a17.23,17.23,0,0,1-1.844-.562,6.6,6.6,0,0,1-1.9-.865,3.758,3.758,0,0,1-.847-.85,3.493,3.493,0,0,1-.484-1.2,3.349,3.349,0,0,1,.635-2.322,5.954,5.954,0,0,1,1.512-1.518,5.551,5.551,0,0,1,.831-.546l.847-.471a33.6,33.6,0,0,1,3.432-1.518,35.812,35.812,0,0,1,3.6-1.184c1.225-.318,2.464-.577,3.7-.774a32.968,32.968,0,0,1,7.559-.273,20.378,20.378,0,0,1,2.147.258c2.252-5.009,3.9-8.621,4.913-10.822a1.074,1.074,0,0,1,.635-.577,1.039,1.039,0,0,1,.877,0,1.126,1.126,0,0,1,.544,1.518q-1.421,3.036-4.687,10.336a21.214,21.214,0,0,1,3.024,1.093,14.526,14.526,0,0,1,3.265,2.125,11.16,11.16,0,0,1,2.434,3.127,11.545,11.545,0,0,1,.922,2.4c1.935-.273,3.885-.561,5.805-.895q6.213-13.373,13.425-26.229a1.077,1.077,0,0,1,.68-.546,1.219,1.219,0,0,1,.862.091,1.26,1.26,0,0,1,.529.7,1.034,1.034,0,0,1-.106.865q-6.728,12.144-12.684,24.65L62,205.413l6.047-1.138a1.505,1.505,0,0,1,.461.448,1.521,1.521,0,0,1-.1,1.813ZM27.59,208.965c2.283,0,4.535,0,6.848-.106,1.391-3.173,2.767-6.284,4.142-9.365a14.642,14.642,0,0,0-1.618-.183,32.63,32.63,0,0,0-7.2.274c-1.194.2-2.358.455-3.507.759a30.285,30.285,0,0,0-3.432,1.153,33.568,33.568,0,0,0-3.281,1.518l-.786.44-.711.455A4.559,4.559,0,0,0,16.932,205a1.383,1.383,0,0,0,.318,2.125,6.117,6.117,0,0,0,1.512.668c.544.167,1.119.334,1.693.471a34.036,34.036,0,0,0,7.075.7Zm14.634-.638c2.479-.243,4.929-.531,7.362-.85a9.444,9.444,0,0,0-.741-1.912,10.6,10.6,0,0,0-5.034-4.554,16.45,16.45,0,0,0-2.933-1.062q-1.92,4.326-3.87,8.758c1.693-.015,3.417-.228,5.155-.38Zm8.889,11.005c1.512-3.6,3.114-7.18,4.732-10.747-1.436.213-2.887.41-4.339.577a20.09,20.09,0,0,1,.2,3.279,58.458,58.458,0,0,1-.559,6.542.789.789,0,0,0-.091.333Z" fill="#dab68e"/>
  </g>
</svg>
