<svg xmlns="http://www.w3.org/2000/svg" xmlns:xlink="http://www.w3.org/1999/xlink" width="170" height="170" viewBox="0 0 170 170">
  <defs>
    <clipPath id="clip-path">
      <rect id="Rectangle_21" data-name="Rectangle 21" width="170" height="170" fill="#fff"/>
    </clipPath>
    <clipPath id="clip-path-3">
      <rect id="Rectangle_20" data-name="Rectangle 20" width="64" height="76" transform="translate(53 45)" fill="#fff"/>
    </clipPath>
  </defs>
  <g id="Layer_1" clip-path="url(#clip-path)">
    <g id="Group_18" data-name="Group 18" clip-path="url(#clip-path)">
      <path id="Path_33" data-name="Path 33" d="M97.993,22.16,94.865,21.9l.85-10.744-6.29-.518A2.847,2.847,0,0,0,86.33,13.26l-.646,7.888-3.162-.264L84.078,2.142A2.287,2.287,0,0,1,86.551.017l.85.068-.85,10.14,6.256.519a2.9,2.9,0,0,0,3.128-2.652l.6-7.25,3.128.263Z" fill="#dab68e"/>
      <path id="Path_34" data-name="Path 34" d="M126.087,12.962l-.077-.289a4.09,4.09,0,0,0-2.55-2.652l-1.7-.731a2.872,2.872,0,0,0-3.774,1.547l-6.8,16.056L108.3,25.662l7.965-18.7-7.583-3.23.723-.544,17.222,7.335-.3,2.55Z" fill="#dab68e"/>
      <path id="Path_35" data-name="Path 35" d="M154.512,43.554l-.238-.315.06-.229c.612-3.17,1.13-5.729-1-8.5-2.636-3.451-7.787-3.128-12.87.757-4.871,3.723-6.265,8.661-3.477,12.308,1.377,1.8,3.256,2.27,4.744,1.241.272-.2,2.643-2.023,2.626-2.04a2.5,2.5,0,0,1,3.485.484l.383.5-6.571,5.023-.425-.357a22.293,22.293,0,0,1-5.049-4.913c-3.868-5.1-3.009-11.05,2.176-15s11.178-3.23,15.063,1.861a11.317,11.317,0,0,1,2.227,4.6l.85,3.069Z" fill="#dab68e"/>
      <path id="Path_36" data-name="Path 36" d="M146.36,67.26l6.852-5.338-1.632-4.454a2.875,2.875,0,0,0-2.916-1.887l-6.426.459-.068-.2,20.715-1.385,1.649,1.164a.916.916,0,0,1,.3.366.852.852,0,0,1-.255.969l-17.12,13.32Zm10.082-7.845,6.239-4.828-11.7.85,1,2.72a2.891,2.891,0,0,0,4.463,1.258Z" fill="#dab68e"/>
      <path id="Path_37" data-name="Path 37" d="M149.157,87.992l-.238-3.1,9.41-6.69a2.49,2.49,0,0,0-2.686-2.3l-7.379.569-.238-3.162L169.09,71.68l.451,5.84c.357,4.607-1.785,7.854-5.364,8.135-2.737.212-4.471-1.445-5.3-4.25Zm15.352-5.848c2.83-.221,4.573-2.405,4.326-5.508a1.751,1.751,0,0,0-1.878-1.615l-8.305.646.2,2.678c.161,2.525,2.125,4.071,5.6,3.8Z" fill="#dab68e"/>
      <path id="Path_38" data-name="Path 38" d="M154.954,111.843c-6.749-1.607-9.036-7.65-7.157-15.487l1.249-5.262L169.6,96.007l-1.513,6.34C166.2,110.253,161.117,113.322,154.954,111.843Zm.8-3.341c6.112,1.454,10.906-.688,12.326-6.647a2.848,2.848,0,0,0-2.117-3.459l-17.528-4.191-.484,2C146.539,102.136,149.029,106.9,155.753,108.5Z" fill="#dab68e"/>
      <path id="Path_39" data-name="Path 39" d="M136.406,123.276l6.427-10.821L161,123.25l-6.069,10.2c-.578-.272-1.394-.62-1.955-.85l.17-.28.263.085a2.789,2.789,0,0,0,2.882-1.547l1.5-2.55a2.864,2.864,0,0,0-1-3.927l-6.12-3.638-3.6,6.043-.128-.076,2.125-3.579a2.865,2.865,0,0,0-.994-3.927l-6.724-4-2.958,4.981c-.91,1.53-1.173,3.026-.6,3.791l.187.213-.153.263A8.779,8.779,0,0,1,136.406,123.276Z" fill="#dab68e"/>
      <path id="Path_40" data-name="Path 40" d="M122.806,136.867l1.7-1.615,21.327,4.352-12.121-12.988.6-.561,13.269,14.169a1.7,1.7,0,0,1-.077,2.431l-.484.459s-10.107-2.55-15.488-3.459a1.1,1.1,0,0,0-.969.289,1.128,1.128,0,0,0-.279.364,1.14,1.14,0,0,0-.042.9,1.161,1.161,0,0,0,.245.388l8.5,9.052-1.7,1.607Z" fill="#dab68e"/>
      <path id="Path_41" data-name="Path 41" d="M110.837,151.869a3.167,3.167,0,1,1-5.068-1.386,3.184,3.184,0,0,1,1.081-.611,3.137,3.137,0,0,1,3.987,2Z" fill="#dab68e"/>
      <path id="Path_42" data-name="Path 42" d="M73.767,148.18l3.136.17-.586,10.761,6.3.34a2.839,2.839,0,0,0,3.018-2.7l.434-7.9,3.162.17L88.208,167.8a2.312,2.312,0,0,1-2.423,2.2l-.85-.051.553-10.2-6.273-.34a2.89,2.89,0,0,0-3.052,2.737l-.4,7.259-3.128-.17Z" fill="#dab68e"/>
      <path id="Path_43" data-name="Path 43" d="M45.97,158.168l.076.289a4.1,4.1,0,0,0,2.593,2.55l1.743.68a2.882,2.882,0,0,0,3.732-1.649l6.367-16.244,2.924,1.148-7.43,18.938,7.65,3.009-.714.569-17.417-6.8.221-2.55Z" fill="#dab68e"/>
      <path id="Path_44" data-name="Path 44" d="M16.686,128.4l.247.306v.23c-.527,3.187-.969,5.763,1.233,8.5,2.737,3.4,7.88,2.907,12.853-1.122,4.76-3.859,6.018-8.84,3.128-12.4-1.428-1.768-3.315-2.176-4.786-1.105-.255.2-2.55,2.091-2.55,2.117a2.552,2.552,0,0,1-3.5-.391l-.4-.493,6.426-5.211.442.349a22.4,22.4,0,0,1,5.185,4.768c4.012,4.956,3.324,10.957-1.751,15.062s-11.051,3.545-15.114-1.428a11.441,11.441,0,0,1-2.363-4.547L14.791,130Z" fill="#dab68e"/>
      <path id="Path_45" data-name="Path 45" d="M24.2,104.456,17.511,110l1.751,4.4a2.872,2.872,0,0,0,2.967,1.8l6.418-.637.077.195L8.05,117.742l-1.7-1.114a.84.84,0,0,1-.077-1.334l16.72-13.8Zm-9.852,8.135L8.254,117.6l11.671-1.147-1.079-2.695a2.9,2.9,0,0,0-4.539-1.164Z" fill="#dab68e"/>
      <path id="Path_46" data-name="Path 46" d="M20.8,83.835l.331,3.094-9.223,6.953a2.5,2.5,0,0,0,2.754,2.227l7.353-.773.332,3.153L1.335,100.7.723,94.877c-.485-4.59,1.564-7.9,5.1-8.279,2.729-.289,4.514,1.309,5.415,4.131C12.5,89.845,20.8,83.835,20.8,83.835ZM5.619,90.108c-2.822.3-4.5,2.55-4.174,5.636A1.751,1.751,0,0,0,3.375,97.3l8.288-.85-.289-2.669c-.247-2.55-2.253-4.038-5.738-3.672Z" fill="#dab68e"/>
      <path id="Path_47" data-name="Path 47" d="M14.323,60.12c6.8,1.42,9.249,7.4,7.591,15.3l-1.114,5.3L.119,76.381,1.454,70C3.128,62.016,8.118,58.82,14.323,60.12Zm-.705,3.4c-6.146-1.292-10.881.986-12.139,6.987a2.847,2.847,0,0,0,2.218,3.4l17.638,3.7a20.061,20.061,0,0,1,.425-2.006c1.25-6.009-1.377-10.693-8.143-12.112Z" fill="#dab68e"/>
      <path id="Path_48" data-name="Path 48" d="M32.557,48.2l-6.112,11L7.973,48.943l5.78-10.4c.587.255,1.411.578,1.981.791l-.161.289L15.3,39.55a2.788,2.788,0,0,0-2.839,1.632l-1.42,2.55a2.847,2.847,0,0,0,1.114,3.893l6.222,3.468,3.4-6.154.136.077-2.023,3.638A2.857,2.857,0,0,0,21,52.556l6.8,3.8,2.814-5.1c.85-1.556,1.079-3.06.493-3.8l-.2-.213.145-.264C31.545,47.362,32.14,47.838,32.557,48.2Z" fill="#dab68e"/>
      <path id="Path_49" data-name="Path 49" d="M45.732,34.229l-1.7,1.7L22.6,32.189,35.1,44.795l-.578.569L20.852,31.586a1.7,1.7,0,0,1,0-2.44l.476-.467s10.2,2.244,15.564,3.017a1.089,1.089,0,0,0,.969-.315,1.139,1.139,0,0,0,0-1.649l-8.739-8.806,1.7-1.7Z" fill="#dab68e"/>
      <path id="Path_50" data-name="Path 50" d="M57.3,18.87a3.169,3.169,0,1,1,5.95-2.185,3.179,3.179,0,0,1-1.913,4.08,3.137,3.137,0,0,1-4.037-1.9Z" fill="#dab68e"/>
    </g>
    <g id="Group_19" data-name="Group 19" clip-path="url(#clip-path-3)">
      <path id="Path_51" data-name="Path 51" d="M106.455,78.783a48.393,48.393,0,0,1-3.522,4.306,56.786,56.786,0,0,1-11.476,9.47,31.948,31.948,0,0,1,18.257-.484l.974.276L109.9,93q-6.267,5.206-12.661,6.013a20.714,20.714,0,0,1-12.671-2.6A75.082,75.082,0,0,0,72.627,103.8a29.241,29.241,0,0,1,15.21,3.311l.767.375-.674.52a17.349,17.349,0,0,1-11.539,4.087q-5.885-.219-12.2-4.758a27.679,27.679,0,0,0-3.882,2.441l3.439,11.209h42.477l7.415-24.13.293.463,3.054-1.984Z" fill="#dab68e"/>
      <path id="Path_52" data-name="Path 52" d="M71.8,103.106A29.016,29.016,0,0,0,76,99.025a11.463,11.463,0,0,1-2.363-9.6q.937-5.794,6.271-13.4l.628-.89.309,1.041q2.574,8.96.134,16.186A22.975,22.975,0,0,1,77,99.483q2.667-1.718,5.262-3.087l.515-.271.134-.068a36.2,36.2,0,0,0,6.41-7.809q-5.468-8.991,4.634-21.4l.819-1,.113,1.3a36.741,36.741,0,0,1-2.059,16.347,34.305,34.305,0,0,1-6.9,11.037,62.083,62.083,0,0,0,13.557-9.48A31.151,31.151,0,0,1,103.6,74.238L84.995,44.964,53,95.313,56.053,97.3l.293-.463,3.64,11.844a25.168,25.168,0,0,1,10.535-4.634C70.949,103.773,71.376,103.424,71.8,103.106Z" fill="#dab68e"/>
    </g>
  </g>
</svg>
