<svg xmlns="http://www.w3.org/2000/svg" width="436.158" height="189.908" viewBox="0 0 436.158 189.908">
  <path id="Path_19835" data-name="Path 19835" d="M-136.423-137.9H-214.04V0h20.685V-52.008a18.582,18.582,0,0,1,18.715-18.715h25.216v-.985h-43.931V-118.4a18.582,18.582,0,0,1,18.715-18.715h18.912c8.865,0,16.154,4.334,18.321,11.032l.394,1.773h2.167C-135.437-128.444-136.423-137.9-136.423-137.9ZM-72.2.985h13.4v-.2c-5.122-1.379-8.471-11.82-8.471-20.685V-65.01c0-19.9-10.441-28.762-26-28.762-21.867,0-36.051,17.73-36.051,27.58,0,7.289,4.137,12.411,10.441,12.411,5.319,0,9.062-5.319,9.062-8.865,0-3.152-3.743-7.486-3.743-10.638,0-6.895,7.683-19.109,19.109-19.109,5.91,0,9.653,6.3,9.653,20.882v14.578A11.413,11.413,0,0,1-92.688-46.1C-125-35.854-133.074-30.732-133.074-16.548c0,11.032,8.274,18.321,20.685,18.321,6.5,0,14.381-3.743,24.231-13.2a2.608,2.608,0,0,1,4.334,1.379C-82.445-2.955-77.717.985-72.2.985ZM-84.809-39.991V-19.9c0,8.274-11.426,12.608-18.321,12.608-7.486,0-12.411-4.531-12.411-11.032,0-15.76,4.728-20.685,23.246-26.989A5.542,5.542,0,0,1-84.809-39.991ZM53.879-93.772c-7.486,0-15.366,3.546-22.064,9.259a11.053,11.053,0,0,1-7.486,2.758,10.519,10.519,0,0,1-8.471-3.94c-4.137-5.122-10.244-8.077-18.715-8.077-7.289,0-14.775,3.743-21.473,9.85a5.763,5.763,0,0,1-3.743,1.576,5.715,5.715,0,0,1-5.713-5.713V-92h-6.3A11.268,11.268,0,0,0-51.319-80.573V0h17.533V-68.556c0-9.85,16.942-12.411,24.034-12.411C1.083-80.967,5.22-72.1,5.22-58.9V0H22.753V-69.147c0-9.456,17.336-11.82,24.034-11.82,10.835,0,15.169,8.865,15.169,22.064V0H79.292V-58.9C79.292-79.785,72.2-93.772,53.879-93.772Zm46.1-19.306c6.7,0,11.229-4.334,11.229-11.229,0-6.7-4.531-11.426-11.229-11.426-6.9,0-11.426,4.728-11.426,11.426C88.551-117.412,93.082-113.078,99.977-113.078ZM91.112-80.573V0h17.533V-92h-6.3A11.394,11.394,0,0,0,91.112-80.573ZM139.969-137.9h-6.3a11.1,11.1,0,0,0-11.229,11.229V0h17.533ZM215.814-92,199.266-47.083a9.137,9.137,0,0,1-8.865,6.5,9.317,9.317,0,0,1-8.668-5.713L161.638-92H156.91a9.419,9.419,0,0,0-8.668,13.2l26.792,61.07a46.054,46.054,0,0,1,.985,35.066c-1.97,5.122-3.94,10.244-5.713,15.366-1.773,4.334-4.334,7.092-5.122,7.092-3.94,0-4.925-5.713-9.062-5.713-4.334,0-8.471,4.334-8.471,8.668,0,5.516,3.546,9.259,9.259,9.259,5.122,0,13.593-6.7,17.533-17.139l12.608-33.1L222.117-92Z" transform="translate(214.04 137.9)" fill="#f2eadf"/>
</svg>
