<svg xmlns="http://www.w3.org/2000/svg" width="619.678" height="140.067" viewBox="0 0 619.678 140.067">
  <path id="Path_19836" data-name="Path 19836" d="M-257.282-71.511c23.837-2.955,39.2-15.563,39.2-33.293,0-19.9-10.047-33.1-53.19-33.1h-36.248V0h42.552c31.52,0,52.6-6.895,52.6-35.854C-212.366-56.342-230.1-70.526-257.282-71.511Zm-11.623,0h-17.927v-52.6c0-7.486,5.91-12.805,13.79-12.805,27.974,0,34.672,13.4,34.672,34.081C-238.37-84.119-250.584-71.511-268.9-71.511Zm2.758,71.117h-20.685v-46.3A23.879,23.879,0,0,1-262.8-70.723c16.745,0,27.974,13.987,27.974,34.869C-234.824-7.092-247.432-.394-266.147-.394ZM-145.189.985h13.4v-.2c-5.122-1.379-8.471-11.82-8.471-20.685V-65.01c0-19.9-10.441-28.762-26-28.762-21.867,0-36.051,17.73-36.051,27.58,0,7.289,4.137,12.411,10.441,12.411,5.319,0,9.062-5.319,9.062-8.865,0-3.152-3.743-7.486-3.743-10.638,0-6.895,7.683-19.109,19.109-19.109,5.91,0,9.653,6.3,9.653,20.882v14.578a11.413,11.413,0,0,1-7.88,10.835c-32.308,10.244-40.385,15.366-40.385,29.55,0,11.032,8.274,18.321,20.685,18.321,6.5,0,14.381-3.743,24.231-13.2a2.608,2.608,0,0,1,4.334,1.379C-155.433-2.955-150.705.985-145.189.985ZM-157.8-39.991V-19.9c0,8.274-11.426,12.608-18.321,12.608-7.486,0-12.411-4.531-12.411-11.032,0-15.76,4.728-20.685,23.246-26.989A5.542,5.542,0,0,1-157.8-39.991ZM-19.109-93.772c-7.486,0-15.366,3.546-22.064,9.259a11.053,11.053,0,0,1-7.486,2.758A10.519,10.519,0,0,1-57.13-85.7c-4.137-5.122-10.244-8.077-18.715-8.077-7.289,0-14.775,3.743-21.473,9.85a5.763,5.763,0,0,1-3.743,1.576,5.715,5.715,0,0,1-5.713-5.713V-92h-6.3a11.268,11.268,0,0,0-11.229,11.426V0h17.533V-68.556c0-9.85,16.942-12.411,24.034-12.411,10.835,0,14.972,8.865,14.972,22.064V0h17.533V-69.147c0-9.456,17.336-11.82,24.034-11.82,10.835,0,15.169,8.865,15.169,22.064V0H6.3V-58.9C6.3-79.785-.788-93.772-19.109-93.772Zm82.149.985A29.144,29.144,0,0,0,52.6-90.62a12.513,12.513,0,0,1-4.531.985,11.057,11.057,0,0,1-11.032-11.229V-137.9h-6.3A11.1,11.1,0,0,0,19.5-126.671V0h1.182l3.743-7.092a3.509,3.509,0,0,1,3.152-1.97,2.963,2.963,0,0,1,2.167.788C37.43-1.97,48.068,1.773,60.282,1.773c26.792,0,44.916-19.306,44.916-48.265C105.2-74.269,88.256-92.787,63.04-92.787ZM60.873-.591c-9.85,0-19.109-7.486-23.64-19.109a2.5,2.5,0,0,1-.2-1.182V-65.4c0-11.426,8.668-21.867,20.488-21.867,16.745,0,27.974,16.942,27.974,42.749C85.5-18.321,75.648-.591,60.873-.591ZM207.835-54.372c-4.334-24.625-21.867-39.6-45.31-39.6a64.761,64.761,0,0,0-10.638.985c-28.565,4.925-44.325,27.186-39.2,55.357,4.334,24.822,21.867,39.794,45.507,39.794a64.155,64.155,0,0,0,10.244-.985C197.2-3.94,212.76-26.2,207.835-54.372ZM168.238,0C151.1,3.152,136.521-13.4,131.6-40.976,126.868-68.359,134.945-88.847,152.084-92c17.139-2.955,32.111,13.4,36.839,40.976C193.848-23.443,185.574-2.955,168.238,0ZM311.26-54.372c-4.334-24.625-21.867-39.6-45.31-39.6a64.761,64.761,0,0,0-10.638.985c-28.565,4.925-44.325,27.186-39.2,55.357,4.334,24.822,21.867,39.794,45.507,39.794a64.155,64.155,0,0,0,10.244-.985C300.622-3.94,316.185-26.2,311.26-54.372ZM271.663,0c-17.139,3.152-31.717-13.4-36.642-40.976C230.293-68.359,238.37-88.847,255.509-92c17.139-2.955,32.111,13.4,36.839,40.976C297.273-23.443,289-2.955,271.663,0Z" transform="translate(307.517 137.9)" fill="#f2eadf"/>
</svg>
