<svg xmlns="http://www.w3.org/2000/svg" width="288.437" height="142.8" viewBox="0 0 288.437 142.8">
  <path id="Path_19865" data-name="Path 19865" d="M-14.5-123.6-19.3-140h-124l-3,5.2h54.6V0h20.8V-115.6a19.035,19.035,0,0,1,19-19.2h12.4c9.6,0,18.2,3.8,22.2,9.6l1.2,1.6ZM35.3-95.2a26.323,26.323,0,0,0-17.4,7,6.352,6.352,0,0,1-4,1.6,5.466,5.466,0,0,1-5.6-5.6v-1.2H1.9A11.439,11.439,0,0,0-9.5-81.8V0H8.3V-65.8C8.3-76.2,16.1-87,27.1-87c4,0,6.6,2.6,6.6,6.4.2,5.4,4.2,10.2,9.6,10.6,7,.4,11.4-3.8,11.4-10.4C54.7-89.2,46.9-95.2,35.3-95.2Zm102.2,70a2.412,2.412,0,0,0-2.4,1.6c-5.2,12.8-16.4,21.2-33.4,21.2-16,0-26.6-17.6-26.6-38.2v-.2A22.62,22.62,0,0,1,97.9-63.4h34.6a8.381,8.381,0,0,0,7.4-12c-6.4-14-19.2-19.8-35.4-19.8-28.8,0-48,14.6-48,52.2,0,27,17.6,44.8,43.6,44.8,17.2,0,32.4-9.6,39-24.4A1.931,1.931,0,0,0,137.5-25.2ZM104.3-94.4a11.8,11.8,0,0,1,8,3c10.8,9,4,27-10.4,27l-25.8.2C79.1-85.8,89.5-94.4,104.3-94.4Z" transform="translate(147.166 140.5)" fill="#f2eadf" stroke="rgba(0,0,0,0)" stroke-miterlimit="10" stroke-width="1"/>
</svg>
