<svg xmlns="http://www.w3.org/2000/svg" width="349.8" height="149.8" viewBox="0 0 349.8 149.8">
  <path id="Path_19926" data-name="Path 19926" d="M-64.8-120.8l10,10.2h2.4v-16.6L-74.2-136c-8.4-3.8-18-5.8-29.6-5.8-43.6,0-71.8,28.8-71.8,72.2,0,42.8,27.4,71.4,68.6,71.4,18.6,0,31.8-8.6,42.2-16.2l12.4-9.2v-5.8h-2.4L-56-28.2C-79-5.2-89.4,1-103.6,1c-30.6,0-49-28.4-49-70.4,0-42.8,19.2-71.4,50.6-71.4C-85.2-140.8-76.2-132.6-64.8-120.8ZM10.8-95.2A39.58,39.58,0,0,0-9-89.6,12.053,12.053,0,0,1-14.8-88,11.392,11.392,0,0,1-26.2-99.4V-140h-6.4A11.27,11.27,0,0,0-44-128.6V0h17.8V-55.4A27.058,27.058,0,0,1,.8-82.6c11.4,0,17.2,9,17.2,22.8v48.4A11.27,11.27,0,0,0,29.4,0h6.2V-59.8C35.6-81,27.2-95.2,10.8-95.2ZM68.2-127l25.4,21a1.82,1.82,0,0,0,2.4,0,1.821,1.821,0,0,0,.2-2.4l-20-26.8c-5.4-7.4-9.6-12.4-11-12.4a9.193,9.193,0,0,0-8.8,9C56.4-137.2,61.2-132.8,68.2-127Zm74.6,71.8c-4.4-25-22.2-40.2-46-40.2a65.746,65.746,0,0,0-10.8,1C57-89.2,41.2-66.8,46.2-38.2c4.4,25,22.2,40.4,46,40.4a65.4,65.4,0,0,0,10.6-1C131.8-4,147.8-26.6,142.8-55.2ZM102.6,0C85.2,3,70.4-13.6,65.4-41.6s3.4-48.8,20.8-51.8,32.4,13.6,37.4,41.6S120-3,102.6,0Zm60.2-114.8c6.8,0,11.4-4.4,11.4-11.4,0-6.8-4.6-11.6-11.4-11.6-7,0-11.6,4.8-11.6,11.6C151.2-119.2,155.8-114.8,162.8-114.8Zm-9,33V0h17.8V-93.4h-6.4A11.568,11.568,0,0,0,153.8-81.8Z" transform="translate(175.6 147.6)" fill="#f2eadf"/>
</svg>
