<svg xmlns="http://www.w3.org/2000/svg" width="765.549" height="140.067" viewBox="0 0 765.549 140.067">
  <path id="Path_19833" data-name="Path 19833" d="M-295.894-14.578h-1.576l-.985,1.773c-2.364,5.713-11.623,9.259-23.246,9.259h-37.824V-137.9h-5.713a15.009,15.009,0,0,0-14.972,15.169V0h82.149S-296.485-11.032-295.894-14.578ZM-233.839.985h13.4v-.2c-5.122-1.379-8.471-11.82-8.471-20.685V-65.01c0-19.9-10.441-28.762-26-28.762-21.867,0-36.051,17.73-36.051,27.58,0,7.289,4.137,12.411,10.441,12.411,5.319,0,9.062-5.319,9.062-8.865,0-3.152-3.743-7.486-3.743-10.638,0-6.895,7.683-19.109,19.109-19.109,5.91,0,9.653,6.3,9.653,20.882v14.578a11.413,11.413,0,0,1-7.88,10.835c-32.308,10.244-40.385,15.366-40.385,29.55,0,11.032,8.274,18.321,20.685,18.321,6.5,0,14.381-3.743,24.231-13.2a2.608,2.608,0,0,1,4.334,1.379C-244.083-2.955-239.355.985-233.839.985Zm-12.608-40.976V-19.9c0,8.274-11.426,12.608-18.321,12.608-7.486,0-12.411-4.531-12.411-11.032,0-15.76,4.728-20.685,23.246-26.989A5.542,5.542,0,0,1-246.447-39.991ZM-129.035,0l-43.34-51.417A11.177,11.177,0,0,1-170.8-67.571L-139.673-92h-3.349l-52.2,40.582V-137.9h-6.3a11.1,11.1,0,0,0-11.229,11.229V0h17.533V-51.417L-151.493,0Zm73.678-24.822a2.375,2.375,0,0,0-2.364,1.576C-62.843-10.638-73.875-2.364-90.62-2.364c-15.76,0-26.2-17.336-26.2-37.627v-.2A22.281,22.281,0,0,1-94.363-62.449h34.081a8.255,8.255,0,0,0,7.289-11.82c-6.3-13.79-18.912-19.5-34.869-19.5-28.368,0-47.28,14.381-47.28,51.417,0,26.595,17.336,44.128,42.946,44.128,16.942,0,31.914-9.456,38.415-24.034A1.9,1.9,0,0,0-55.357-24.822Zm-32.7-68.162a11.618,11.618,0,0,1,7.88,2.955c10.638,8.865,3.94,26.6-10.244,26.6l-25.413.2C-112.881-84.513-102.637-92.984-88.059-92.984Zm99.288-.788a38.986,38.986,0,0,0-19.5,5.516,11.872,11.872,0,0,1-5.713,1.576A11.221,11.221,0,0,1-25.216-97.909V-137.9h-6.3a11.1,11.1,0,0,0-11.229,11.229V0h17.533V-54.569A26.652,26.652,0,0,1,1.379-81.361c11.229,0,16.942,8.865,16.942,22.458v47.674A11.1,11.1,0,0,0,29.55,0h6.107V-58.9C35.657-79.785,27.383-93.772,11.229-93.772Zm130.02,39.4c-4.334-24.625-21.867-39.6-45.31-39.6a64.76,64.76,0,0,0-10.638.985C56.736-88.059,40.976-65.8,46.1-37.627,50.432-12.805,67.965,2.167,91.605,2.167a64.155,64.155,0,0,0,10.244-.985C130.611-3.94,146.174-26.2,141.249-54.372ZM101.652,0C84.513,3.152,69.935-13.4,65.01-40.976,60.282-68.359,68.359-88.847,85.5-92c17.139-2.955,32.111,13.4,36.839,40.976C127.262-23.443,118.988-2.955,101.652,0ZM225.368-2.364V-92H207.835V-33.49c0,12.411-9.85,23.049-22.458,23.246h-.2c-9.85,0-16.351-7.683-16.351-19.109V-92h-6.3A11.394,11.394,0,0,0,151.3-80.573v51.22c0,18.715,10.244,31.126,25.807,31.126,6.5,0,13-2.758,18.518-7.486a7.44,7.44,0,0,1,4.728-1.773A7.481,7.481,0,0,1,207.835,0H216.7l.2-.2C219.458-.788,223-1.773,225.368-2.364ZM269.5-51.811c-14.381-3.94-19.7-13-19.7-23.443,0-10.244,4.137-15.169,13.593-15.169,11.82,0,19.9,9.456,25.807,18.518.2.2.2.2.2.394l.591.985a.688.688,0,0,1,.2.394h.591V-84.119a3.864,3.864,0,0,0-2.364-3.743l-3.546-1.576a53.645,53.645,0,0,0-21.473-4.334c-15.957,0-26.595,9.456-26.595,23.837,0,13.79,8.865,25.413,25.807,29.944,13.79,3.743,17.139,11.426,17.139,20.488,0,12.017-3.349,17.927-13.79,17.927-12.8,0-21.079-12.411-27.383-21.867a.688.688,0,0,0-.2-.394l-.394-.985c0-.2,0-.2-.2-.394h-.788v14.775A4.453,4.453,0,0,0,239.749-6.3a21.487,21.487,0,0,1,2.167,1.182l4.531,2.167c6.7,3.546,11.82,4.728,19.5,4.728,17.73,0,29.55-10.244,29.55-25.61C295.5-36.445,286.635-47.28,269.5-51.811ZM382.18-24.822a2.375,2.375,0,0,0-2.364,1.576c-5.122,12.608-16.154,20.882-32.9,20.882-15.76,0-26.2-17.336-26.2-37.627v-.2a22.281,22.281,0,0,1,22.458-22.261h34.081a8.255,8.255,0,0,0,7.289-11.82c-6.3-13.79-18.912-19.5-34.869-19.5-28.368,0-47.28,14.381-47.28,51.417,0,26.595,17.336,44.128,42.946,44.128,16.942,0,31.914-9.456,38.415-24.034A1.9,1.9,0,0,0,382.18-24.822Zm-32.7-68.162a11.618,11.618,0,0,1,7.88,2.955c10.638,8.865,3.94,26.6-10.244,26.6l-25.413.2C324.656-84.513,334.9-92.984,349.478-92.984Z" transform="translate(380.21 137.9)" fill="#f2eadf"/>
</svg>
