<svg xmlns="http://www.w3.org/2000/svg" width="536.234" height="141.446" viewBox="0 0 536.234 141.446">
  <path id="Path_19834" data-name="Path 19834" d="M-148.439-125.292l-19.306-7.683c-12.017-4.925-19.5-6.7-32.7-6.7-41.764,0-69.344,28.171-69.344,70.723s27.58,70.723,69.147,70.723c18.124,0,32.5-2.561,45.507-6.7l3.546-.788V-59.691h-4.137a16.4,16.4,0,0,0-16.351,16.154c.2,0,.2,19.5.2,21.67-.591,11.82-10.441,19.7-25.216,19.7-29.944,0-50.038-26.792-50.038-66.783,0-41.764,18.715-69.738,47.083-69.738,22.852,0,34.081,12.8,48.068,28.565l.985,1.182h2.561ZM-80.868.985h13.4v-.2c-5.122-1.379-8.471-11.82-8.471-20.685V-65.01c0-19.9-10.441-28.762-26-28.762-21.867,0-36.051,17.73-36.051,27.58,0,7.289,4.137,12.411,10.441,12.411,5.319,0,9.062-5.319,9.062-8.865,0-3.152-3.743-7.486-3.743-10.638,0-6.895,7.683-19.109,19.109-19.109,5.91,0,9.653,6.3,9.653,20.882v14.578a11.413,11.413,0,0,1-7.88,10.835c-32.308,10.244-40.385,15.366-40.385,29.55,0,11.032,8.274,18.321,20.685,18.321,6.5,0,14.381-3.743,24.231-13.2a2.608,2.608,0,0,1,4.334,1.379C-91.112-2.955-86.384.985-80.868.985ZM-93.476-39.991V-19.9c0,8.274-11.426,12.608-18.321,12.608-7.486,0-12.411-4.531-12.411-11.032,0-15.76,4.728-20.685,23.246-26.989A5.542,5.542,0,0,1-93.476-39.991Zm77.618-53.781A25.929,25.929,0,0,0-33-86.877a6.256,6.256,0,0,1-3.94,1.576,5.384,5.384,0,0,1-5.516-5.516V-92h-6.3A11.268,11.268,0,0,0-59.986-80.573V0h17.533V-64.813c0-10.244,7.683-20.882,18.518-20.882,3.94,0,6.5,2.561,6.5,6.3.2,5.319,4.137,10.047,9.456,10.441,6.895.394,11.229-3.743,11.229-10.244C3.251-87.862-4.432-93.772-15.858-93.772ZM89.734-11.032V-137.9H83.627A11.224,11.224,0,0,0,72.4-126.671v34.278a5.715,5.715,0,0,1-5.713,5.713,5.35,5.35,0,0,1-3.349-1.182,24.1,24.1,0,0,0-15.169-5.91C20.193-93.772,5.615-74.663,5.615-46.1,5.615-17.927,20.784.985,43.833.985a37.037,37.037,0,0,0,19.5-5.91,6.54,6.54,0,0,1,3.152-.985A5.8,5.8,0,0,1,72.4,0h8.668l.2-.2h.2A11.175,11.175,0,0,0,89.734-11.032ZM72.4-62.252v34.475A21.523,21.523,0,0,1,50.925-6.3c-16.548,0-27.383-17.73-27.383-44.522,0-22.655,8.865-37.824,26.6-37.824C63.533-88.65,72.4-74.269,72.4-62.252ZM179.96-24.822a2.375,2.375,0,0,0-2.364,1.576c-5.122,12.608-16.154,20.882-32.9,20.882-15.76,0-26.2-17.336-26.2-37.627v-.2a22.281,22.281,0,0,1,22.458-22.261h34.081a8.255,8.255,0,0,0,7.289-11.82c-6.3-13.79-18.912-19.5-34.869-19.5-28.368,0-47.28,14.381-47.28,51.417,0,26.595,17.336,44.128,42.946,44.128,16.942,0,31.914-9.456,38.415-24.034A1.9,1.9,0,0,0,179.96-24.822Zm-32.7-68.162a11.618,11.618,0,0,1,7.88,2.955c10.638,8.865,3.94,26.6-10.244,26.6l-25.413.2C122.436-84.513,132.68-92.984,147.258-92.984Zm93.575-.788c-7.092,0-14.775,3.94-21.473,10.441a5.763,5.763,0,0,1-3.743,1.576,5.715,5.715,0,0,1-5.713-5.713V-92h-6.3a11.394,11.394,0,0,0-11.229,11.426V0H209.9V-65.207c0-10.835,16.548-20.094,26-20.094,8.668,0,13,10.047,13,25.216V0h17.533V-60.085C266.443-80.376,257.775-93.772,240.833-93.772Z" transform="translate(269.792 139.673)" fill="#f2eadf"/>
</svg>
