<svg xmlns="http://www.w3.org/2000/svg" width="608.146" height="139.673" viewBox="0 0 608.146 139.673">
  <path id="Path_19832" data-name="Path 19832" d="M-217.193-14.578h-1.576l-.985,1.773C-222.117-7.092-231.376-3.546-243-3.546h-37.824V-137.9h-5.713a15.009,15.009,0,0,0-14.972,15.169V0h82.149S-217.783-11.032-217.193-14.578ZM-155.137.985h13.4v-.2c-5.122-1.379-8.471-11.82-8.471-20.685V-65.01c0-19.9-10.441-28.762-26-28.762-21.867,0-36.051,17.73-36.051,27.58,0,7.289,4.137,12.411,10.441,12.411,5.319,0,9.062-5.319,9.062-8.865,0-3.152-3.743-7.486-3.743-10.638,0-6.895,7.683-19.109,19.109-19.109,5.91,0,9.653,6.3,9.653,20.882v14.578a11.413,11.413,0,0,1-7.88,10.835c-32.308,10.244-40.385,15.366-40.385,29.55,0,11.032,8.274,18.321,20.685,18.321,6.5,0,14.381-3.743,24.231-13.2a2.608,2.608,0,0,1,4.334,1.379C-165.382-2.955-160.654.985-155.137.985Zm-12.608-40.976V-19.9c0,8.274-11.426,12.608-18.321,12.608-7.486,0-12.411-4.531-12.411-11.032,0-15.76,4.728-20.685,23.246-26.989A5.542,5.542,0,0,1-167.745-39.991ZM-50.333,0l-43.34-51.417A11.177,11.177,0,0,1-92.1-67.571L-60.971-92H-64.32l-52.205,40.582V-137.9h-6.3a11.1,11.1,0,0,0-11.229,11.229V0h17.533V-51.417L-72.791,0ZM23.345-24.822a2.375,2.375,0,0,0-2.364,1.576C15.859-10.638,4.827-2.364-11.918-2.364c-15.76,0-26.2-17.336-26.2-37.627v-.2A22.281,22.281,0,0,1-15.661-62.449H18.42a8.255,8.255,0,0,0,7.289-11.82C19.4-88.059,6.8-93.772-9.16-93.772c-28.368,0-47.28,14.381-47.28,51.417C-56.44-15.76-39.1,1.773-13.494,1.773c16.942,0,31.914-9.456,38.415-24.034A1.9,1.9,0,0,0,23.345-24.822Zm-32.7-68.162a11.618,11.618,0,0,1,7.88,2.955c10.638,8.865,3.94,26.6-10.244,26.6l-25.413.2C-34.179-84.513-23.935-92.984-9.357-92.984ZM66.093-51.811c-14.381-3.94-19.7-13-19.7-23.443,0-10.244,4.137-15.169,13.593-15.169,11.82,0,19.9,9.456,25.807,18.518.2.2.2.2.2.394l.591.985a.688.688,0,0,1,.2.394h.591V-84.119a3.864,3.864,0,0,0-2.364-3.743l-3.546-1.576a53.645,53.645,0,0,0-21.473-4.334c-15.957,0-26.6,9.456-26.6,23.837,0,13.79,8.865,25.413,25.807,29.944C72.988-36.248,76.337-28.565,76.337-19.5c0,12.017-3.349,17.927-13.79,17.927-12.805,0-21.079-12.411-27.383-21.867a.688.688,0,0,0-.2-.394l-.394-.985c0-.2,0-.2-.2-.394h-.788v14.775A4.453,4.453,0,0,0,36.346-6.3a21.488,21.488,0,0,1,2.167,1.182l4.531,2.167c6.7,3.546,11.82,4.728,19.5,4.728,17.73,0,29.55-10.244,29.55-25.61C92.1-36.445,83.232-47.28,66.093-51.811Zm43.931-61.267c6.7,0,11.229-4.334,11.229-11.229,0-6.7-4.531-11.426-11.229-11.426-6.9,0-11.426,4.728-11.426,11.426C98.6-117.412,103.129-113.078,110.024-113.078Zm-8.865,32.505V0h17.533V-92h-6.3A11.394,11.394,0,0,0,101.159-80.573ZM213.253-11.032V-137.9h-6.107a11.224,11.224,0,0,0-11.229,11.229v34.278A5.715,5.715,0,0,1,190.2-86.68a5.35,5.35,0,0,1-3.349-1.182,24.1,24.1,0,0,0-15.169-5.91c-27.974,0-42.552,19.109-42.552,47.674C129.133-17.927,144.3.985,167.352.985a37.037,37.037,0,0,0,19.5-5.91,6.54,6.54,0,0,1,3.152-.985A5.8,5.8,0,0,1,195.917,0h8.668l.2-.2h.2A11.175,11.175,0,0,0,213.253-11.032Zm-17.336-51.22v34.475A21.523,21.523,0,0,1,174.443-6.3c-16.548,0-27.383-17.73-27.383-44.522,0-22.655,8.865-37.824,26.6-37.824C187.051-88.65,195.917-74.269,195.917-62.252Zm107.562,37.43a2.375,2.375,0,0,0-2.364,1.576c-5.122,12.608-16.154,20.882-32.9,20.882-15.76,0-26.2-17.336-26.2-37.627v-.2a22.281,22.281,0,0,1,22.458-22.261h34.081a8.255,8.255,0,0,0,7.289-11.82c-6.3-13.79-18.912-19.5-34.869-19.5-28.368,0-47.28,14.381-47.28,51.417,0,26.595,17.336,44.128,42.946,44.128,16.942,0,31.914-9.456,38.415-24.034A1.9,1.9,0,0,0,303.478-24.822Zm-32.7-68.162a11.618,11.618,0,0,1,7.88,2.955c10.638,8.865,3.94,26.6-10.244,26.6l-25.413.2C245.954-84.513,256.2-92.984,270.776-92.984Z" transform="translate(301.508 137.9)" fill="#f2eadf"/>
</svg>
