<svg xmlns="http://www.w3.org/2000/svg" width="768.208" height="142.2" viewBox="0 0 768.208 142.2">
  <path id="Path_19927" data-name="Path 19927" d="M-278.9-140h-20.8v48.2a19.2,19.2,0,0,1-19.2,19.2h-41.6V-140h-5.8a15.237,15.237,0,0,0-15.2,15.4V0h21V-52.4a18.865,18.865,0,0,1,19-19h41.8V0h20.8Zm137,16.4-4.8-16.4h-124l-3,5.2h54.6V0h20.8V-115.6a19.035,19.035,0,0,1,19-19.2h12.4c9.6,0,18.2,3.8,22.2,9.6l1.2,1.6ZM29.9-140H9.1v48.2A19.2,19.2,0,0,1-10.1-72.6H-51.7V-140h-5.8a15.237,15.237,0,0,0-15.2,15.4V0h21V-52.4a18.865,18.865,0,0,1,19-19H9.1V0H29.9Zm109,84.8c-4.4-25-22.2-40.2-46-40.2a65.746,65.746,0,0,0-10.8,1c-29,5-45,27.6-39.8,56.2C46.7-13,64.5,2.2,88.5,2.2a65.132,65.132,0,0,0,10.4-1C128.1-4,143.9-26.6,138.9-55.2ZM98.7,0C81.3,3.2,66.5-13.6,61.5-41.6c-4.8-27.8,3.4-48.6,20.8-51.8,17.4-3,32.6,13.6,37.4,41.6C124.7-23.8,116.3-3,98.7,0ZM224.3-2.4v-91H206.5V-34c0,12.6-10,23.4-22.8,23.6h-.2c-10,0-16.6-7.8-16.6-19.4V-93.4h-6.4a11.568,11.568,0,0,0-11.4,11.6v52c0,19,10.4,31.6,26.2,31.6,6.6,0,13.2-2.8,18.8-7.6a7.554,7.554,0,0,1,4.8-1.8A7.6,7.6,0,0,1,206.5,0h9l.2-.2C218.3-.8,221.9-1.8,224.3-2.4Zm44.8-50.2c-14.6-4-20-13.2-20-23.8,0-10.4,4.2-15.4,13.8-15.4,12,0,20.2,9.6,26.2,18.8.2.2.2.2.2.4l.6,1a.7.7,0,0,1,.2.4h.6V-85.4a3.922,3.922,0,0,0-2.4-3.8l-3.6-1.6a54.462,54.462,0,0,0-21.8-4.4c-16.2,0-27,9.6-27,24.2,0,14,9,25.8,26.2,30.4,14,3.8,17.4,11.6,17.4,20.8,0,12.2-3.4,18.2-14,18.2-13,0-21.4-12.6-27.8-22.2a.7.7,0,0,0-.2-.4l-.4-1c0-.2,0-.2-.2-.4h-.8v15a4.521,4.521,0,0,0,2.8,4.2,21.816,21.816,0,0,1,2.2,1.2L245.7-3c6.8,3.6,12,4.8,19.8,4.8,18,0,30-10.4,30-26C295.5-37,286.5-48,269.1-52.6ZM383.5-25.2a2.412,2.412,0,0,0-2.4,1.6c-5.2,12.8-16.4,21.2-33.4,21.2-16,0-26.6-17.6-26.6-38.2v-.2a22.62,22.62,0,0,1,22.8-22.6h34.6a8.381,8.381,0,0,0,7.4-12c-6.4-14-19.2-19.8-35.4-19.8-28.8,0-48,14.6-48,52.2,0,27,17.6,44.8,43.6,44.8,17.2,0,32.4-9.6,39-24.4A1.931,1.931,0,0,0,383.5-25.2ZM350.3-94.4a11.8,11.8,0,0,1,8,3c10.8,9,4,27-10.4,27l-25.8.2C325.1-85.8,335.5-94.4,350.3-94.4Z" transform="translate(381.5 140)" fill="#f2eadf"/>
</svg>
