<svg xmlns="http://www.w3.org/2000/svg" width="54.493" height="64" viewBox="0 0 54.493 64">
  <g id="Group_18469" data-name="Group 18469" transform="translate(-3054.76 1895.077)">
    <path id="Path_19829" data-name="Path 19829" d="M3168.894-1753.949c0-4.146-1.343-6.832-6.95-6.832a2.588,2.588,0,0,0-2.764,2.567v10.543h3.594C3166.446-1747.671,3168.894-1750.2,3168.894-1753.949Z" transform="translate(-82.564 -106.186)" fill="#8e6941"/>
    <path id="Path_19830" data-name="Path 19830" d="M3164-1697.392a4.787,4.787,0,0,0-4.818,4.818v9.28h4.146c3.751,0,6.279-1.343,6.279-7.108C3169.6-1694.588,3167.354-1697.392,3164-1697.392Z" transform="translate(-82.564 -156.307)" fill="#8e6941"/>
    <path id="Path_19831" data-name="Path 19831" d="M3100.277-1866.644l-2.427-3.778-15.843-24.656-27.247,42.4,2.6,1.671.251-.391,3.1,9.972.282.907,2.932,9.439h36.169l6.311-20.318.251.391,2.6-1.671ZM3081-1839.523h-8.53v-27.642h7.266c8.648,0,10.662,2.646,10.662,6.634,0,3.554-3.08,6.081-7.858,6.674,5.449.2,9,3.041,9,7.147C3091.543-1840.905,3087.318-1839.523,3081-1839.523Z" transform="translate(0)" fill="#8e6941"/>
  </g>
</svg>
