<svg xmlns="http://www.w3.org/2000/svg" width="54.493" height="64" viewBox="0 0 54.493 64">
  <path id="Path_19824" data-name="Path 19824" d="M1879.592-1866.644l-2.428-3.778-15.843-24.656-27.247,42.4,2.6,1.671.251-.391,3.1,9.972.282.907,2.932,9.439h18.278a6.17,6.17,0,0,1-1.327-1.737l-.118-.237a.5.5,0,0,1,.434-.711h.434a7.108,7.108,0,0,0,1.816,2.686h7.709a6.317,6.317,0,0,0,1.334-4.186c0-3.041-1.026-4.818-5.37-6.4a13.729,13.729,0,0,1-4.009-2.239h-14.456v-24.6a3.009,3.009,0,0,1,3-3.041h1.145v26.931h7.582a9.9,9.9,0,0,0,1.794-.157,8.232,8.232,0,0,1-2.363-5.739c0-4.344,2.844-7.266,7.069-7.266,3.041,0,5.844.434,7.424,3.436l.158.237a.5.5,0,0,1-.434.71h-.434c-1.3-3-2.962-3.988-6.713-3.988-2.488,0-4.146,2.211-4.146,5.489,0,2.409,2.251,4.818,6.595,6.4,5.568,1.935,6.042,6.081,6.042,8.845a7.251,7.251,0,0,1-2.272,5.568h7l6.311-20.318.251.391,2.6-1.671Z" transform="translate(-1834.075 1895.077)" fill="#8e6941"/>
</svg>
