<svg xmlns="http://www.w3.org/2000/svg" width="54.493" height="64" viewBox="0 0 54.493 64">
  <path id="Path_19828" data-name="Path 19828" d="M2845.28-1866.644l-2.428-3.778-15.843-24.656-27.247,42.4,2.6,1.671.251-.391,3.1,9.972.281.907,2.932,9.439h36.169l6.311-20.318.251.391,2.6-1.671Zm-10.768,2.2-.079-.355a3.652,3.652,0,0,0-3.672-2.211h-3.791a3.725,3.725,0,0,0-3.751,3.751v9.359h8.806v.2h-5.055a3.725,3.725,0,0,0-3.751,3.751v10.425h-4.146v-27.642h15.559s.2,1.9.316,2.725Z" transform="translate(-2799.763 1895.077)" fill="#8e6941"/>
</svg>
