<svg xmlns="http://www.w3.org/2000/svg" width="54.493" height="64" viewBox="0 0 54.493 64">
  <g id="Group_18468" data-name="Group 18468" transform="translate(-2194.028 1895.077)">
    <g id="Group_18450" data-name="Group 18450" transform="translate(2194.028 -1895.077)">
      <path id="Path_19825" data-name="Path 19825" d="M2327.25-1650.627a3.725,3.725,0,0,0-3.751,3.751v9.082h12v-12.834Z" transform="translate(-2296.399 1701.793)" fill="#8e6941"/>
      <path id="Path_19826" data-name="Path 19826" d="M2239.545-1866.644l-2.427-3.778-15.843-24.656-27.247,42.4,2.6,1.671.251-.391,3.1,9.972.281.907,2.932,9.439h13.791V-1843.9h-8.829v-24.6a3.009,3.009,0,0,1,3-3.041h1.145v26.931h4.683v-9.806a3.009,3.009,0,0,1,3-3.041h1.145v12.774c1.726-.208,3.027-.852,3.412-1.784l.2-.355h.316c-.094.565-.313,2.075-.4,2.673h4.686a3.792,3.792,0,0,0,3.791-3.791v-9.517h4.107v26.378h2.12l6.311-20.318.251.391,2.6-1.671Z" transform="translate(-2194.028 1895.077)" fill="#8e6941"/>
    </g>
  </g>
</svg>
