<svg xmlns="http://www.w3.org/2000/svg" width="54.493" height="64" viewBox="0 0 54.493 64">
  <path id="Path_19844" data-name="Path 19844" d="M2566.833-1866.644l-2.428-3.778-15.843-24.656-27.247,42.4,2.6,1.671.251-.391,3.1,9.972.281.907,2.932,9.439h36.169l6.311-20.318.251.391,2.6-1.671Zm-6.108,5.284h-.513l-.2-.237c-2.8-3.159-5.054-5.726-9.635-5.726-5.687,0-9.438,5.608-9.438,13.979,0,8.016,4.028,13.387,10.03,13.387,2.962,0,4.936-1.58,5.055-3.949,0-.434,0-4.344-.04-4.344a3.287,3.287,0,0,1,3.277-3.238h.829v10.82l-.711.158a29.243,29.243,0,0,1-9.122,1.343c-8.333,0-13.861-5.647-13.861-14.176s5.528-14.177,13.9-14.177a14.9,14.9,0,0,1,6.555,1.343l3.87,1.54Z" transform="translate(-2521.316 1895.077)" fill="#8e6941"/>
</svg>
