<svg xmlns="http://www.w3.org/2000/svg" width="54.491" height="63.998" viewBox="0 0 54.491 63.998">
  <path id="Path_19917" data-name="Path 19917" d="M2629.77-678l-2.428-3.778L2611.5-706.431l-27.246,42.4,2.6,1.671.252-.391,3.1,9.971.282.907,2.932,9.439h36.168l6.31-20.317.251.391,2.6-1.671Zm-7.536,5.276h-.475l-1.975-2.015c-2.252-2.33-4.029-3.95-7.347-3.95-6.2,0-10,5.649-10,14.1,0,8.295,3.634,13.9,9.678,13.9,2.8,0,4.86-1.225,9.4-5.768l.236-.237h.475v1.146l-2.45,1.817a13.69,13.69,0,0,1-8.336,3.2c-8.137,0-13.549-5.649-13.549-14.1,0-8.573,5.57-14.261,14.181-14.261a13.9,13.9,0,0,1,5.848,1.145l4.306,1.739Z" transform="translate(-2584.254 706.431)" fill="#8e6941"/>
</svg>
