<svg xmlns="http://www.w3.org/2000/svg" width="54.491" height="63.998" viewBox="0 0 54.491 63.998">
  <path id="Union_4" data-name="Union 4" d="M2873.046-642.433V-668.7h-4.107v9.521a3.794,3.794,0,0,1-3.793,3.793h-.137v-27.419H2860.9v9.519a3.8,3.8,0,0,1-3.794,3.793h-8.217v-13.313h-1.146a3.01,3.01,0,0,0-3,3.042v24.61h4.148V-665.5a3.726,3.726,0,0,1,3.753-3.753h8.258v13.869h-3.973V-668.7h-1.146a3.009,3.009,0,0,0-3,3.042v23.227h-11.932l-2.932-9.439-.281-.907-3.1-9.971-.253.391-2.6-1.671,27.246-42.4,15.843,24.654L2877.2-678l8.976,13.969-2.6,1.671-.251-.391-6.31,20.318Zm-16.118,0h0V-651.4a3.727,3.727,0,0,1,3.753-3.753h8.258v12.72Zm-4.147,0h0Z" transform="translate(-2831.686 706.431)" fill="#8e6941"/>
</svg>
